{
.appVersion = "1208";
copyright = "Copyright 2018 Google Inc. All Rights Reserved.";
customParameters = (
{
name = glyphOrder;
value = (
.notdef,
NULL,
CR,
space,
Candrabindu,
Anusvara,
Visarga,
letterA,
letterAA,
letterI,
letterII,
letterU,
letterUU,
letterVocR,
letterVocRR,
letterVocL,
letterVocLL,
letterE,
letterAI,
letterO,
letterAU,
Ka,
Kha,
Ga,
Gha,
Nga,
Ca,
Cha,
Ja,
Jha,
Nya,
Tta,
Ttha,
Dda,
Ddha,
Nna,
Ta,
Tha,
Da,
Dha,
Na,
Pa,
Pha,
Ba,
Bha,
Ma,
Ya,
Ra,
La,
Lla,
Va,
Sha,
Ssa,
Sa,
Ha,
AA,
I,
II,
U,
UU,
vocR,
vocRR,
vocL,
vocLL,
E,
AI,
O,
AU,
virama,
Avagraha,
Jihvamuliya,
Upadhmaniya,
Om,
Danda,
DoubleDanda,
Abbreviation,
Separator,
SandhiMark,
Nukta,
VowelModifier,
ShortVowelMark,
SutraMark,
Sh_Zero,
Sh_One,
Sh_Two,
Sh_Three,
Sh_Four,
Sh_Five,
Sh_Six,
Sh_Seven,
Sh_Eight,
Sh_Nine,
Ekam,
SiddhamSign,
Headstroke,
ContinuationSign,
SectionMark1,
SectionMark2,
Gu,
Jhu,
Nyu,
Ku,
Ru,
Shu,
Kuu,
Guu,
Jhuu,
Nyuu,
Dduu,
Tuu,
Bhuu,
Ruu,
Shuu,
Ngaa,
Jaa,
Ttaa,
Nnaa,
Kr,
Krr,
Kl,
Kll,
Tl,
Tll,
JYa,
TYa,
DYa,
GRa,
TRa,
BhRa,
KSsa,
KKa,
KTa,
NgKa,
JJa,
RKa,
RGa,
RJa,
RVa,
RNna,
RTha,
RYa,
RSsa,
RHa,
RTa,
JNya,
TTha,
DDha,
NTha,
NDha,
SsTta,
SsTtha,
SsNna,
STha,
HYa,
NnDda,
TSa,
NTa,
STa,
SMa,
NgNga,
JNna,
TtKa,
NnSha,
KRu,
KRuu,
DRu,
DRuu,
BhRu,
BhRuu,
ShRu,
ShRuu,
KPRa,
RTRa,
JJVa,
RKSsa,
RVYa,
KTVa,
NnDdu,
TSu,
NTu,
RTr,
RYuu,
STu,
SMr,
RTRaa,
NgKaa,
NgNgaa,
JJaa,
JNnaa,
JYaa,
TtKaa,
NnShaa,
Bhu,
Tu,
Ddu,
uni0951,
uni200C,
uni200D,
uni25CC,
nbspace,
uni1CD7,
uni1CD9,
uni1CDC,
uni1CDD,
uni1CE0,
Jihvamuliya.ns,
Upadhmaniya.ns,
UU.alt,
UU.alt2,
U.alt,
U.alt2,
SandhiMarkLig,
SandhiMarkWide,
SandhiSp,
NullMark
);
},
{
name = description;
value = "Designed by Monotype design team.";
},
{
name = license;

glyphs = (
{
glyphname = .notdef;
lastChange = "2019-02-27 14:35:13 +0000";
layers = (
{
layerId = UUID0;
paths = (
{
closed = 1;
nodes = (
"506 0 LINE",
"506 714 LINE",
"95 714 LINE",
"95 0 LINE"
);
},
{
closed = 1;
nodes = (
"146 663 LINE",
"455 663 LINE",
"455 51 LINE",
"146 51 LINE"
);
}
);
width = 600;
}
);
},
{
glyphname = Candrabindu;
lastChange = "2019-02-27 14:35:13 +0000";
layers = (
{
layerId = UUID0;
paths = (
{
closed = 1;
nodes = (
"-291 694 LINE",
"-294 704 OFFCURVE",
"-295 715 OFFCURVE",
"-295 725 CURVE SMOOTH",
"-295 779 OFFCURVE",
"-254 824 OFFCURVE",
"-185 824 CURVE SMOOTH",
"-120 824 OFFCURVE",
"-79 779 OFFCURVE",
"-79 725 CURVE SMOOTH",
"-79 715 OFFCURVE",
"-80 705 OFFCURVE",
"-83 694 CURVE",
"-3 694 LINE",
"-1 704 OFFCURVE",
"0 714 OFFCURVE",
"0 724 CURVE SMOOTH",
"0 810 OFFCURVE",
"-81 890 OFFCURVE",
"-187 890 CURVE SMOOTH",
"-293 890 OFFCURVE",
"-374 810 OFFCURVE",
"-374 724 CURVE SMOOTH",
"-374 714 OFFCURVE",
"-373 704 OFFCURVE",
"-371 694 CURVE"
);
},
{
closed = 1;
nodes = (
"-156 679 OFFCURVE",
"-133 701 OFFCURVE",
"-133 730 CURVE SMOOTH",
"-133 759 OFFCURVE",
"-156 782 OFFCURVE",
"-184 782 CURVE SMOOTH",
"-212 782 OFFCURVE",
"-236 759 OFFCURVE",
"-236 730 CURVE SMOOTH",
"-236 701 OFFCURVE",
"-212 679 OFFCURVE",
"-184 679 CURVE SMOOTH"
);
}
);
width = 0;
}
);
unicode = 11180;
category = Mark;
},
{
glyphname = Anusvara;
lastChange = "2019-02-27 14:35:13 +0000";
layers = (
{
layerId = UUID0;
paths = (
{
closed = 1;
nodes = (
"-30 684 OFFCURVE",
"0 714 OFFCURVE",
"0 753 CURVE SMOOTH",
"0 791 OFFCURVE",
"-30 822 OFFCURVE",
"-66 822 CURVE SMOOTH",
"-102 822 OFFCURVE",
"-133 791 OFFCURVE",
"-133 753 CURVE SMOOTH",
"-133 714 OFFCURVE",
"-102 684 OFFCURVE",
"-66 684 CURVE SMOOTH"
);
}
);
width = 0;
}
);
unicode = 11181;
category = Mark;
},
{
glyphname = Visarga;
lastChange = "2019-02-27 14:35:13 +0000";
layers = (
{
layerId = UUID0;
paths = (
{
closed = 1;
nodes = (
"183 379 OFFCURVE",
"213 409 OFFCURVE",
"213 448 CURVE SMOOTH",
"213 486 OFFCURVE",
"183 517 OFFCURVE",
"147 517 CURVE SMOOTH",
"111 517 OFFCURVE",
"80 486 OFFCURVE",
"80 448 CURVE SMOOTH",
"80 409 OFFCURVE",
"111 379 OFFCURVE",
"147 379 CURVE SMOOTH"
);
},
{
closed = 1;
nodes = (
"183 49 OFFCURVE",
"213 79 OFFCURVE",
"213 118 CURVE SMOOTH",
"213 156 OFFCURVE",
"183 187 OFFCURVE",
"147 187 CURVE SMOOTH",
"111 187 OFFCURVE",
"80 156 OFFCURVE",
"80 118 CURVE SMOOTH",
"80 79 OFFCURVE",
"111 49 OFFCURVE",
"147 49 CURVE SMOOTH"
);
}
);
width = 293;
}
);
unicode = 11182;
category = Letter;
},
{
glyphname = letterA;
lastChange = "2019-02-27 14:35:13 +0000";
layers = (
{
layerId = UUID0;
paths = (
{
closed = 1;
nodes = (
"566 0 LINE",
"566 550 LINE",
"618 550 LINE",
"618 625 LINE",
"44 625 LINE",
"44 550 LINE",
"117 550 LINE",
"105 513 OFFCURVE",
"98 477 OFFCURVE",
"98 437 CURVE SMOOTH",
"98 390 OFFCURVE",
"110 344 OFFCURVE",
"134 310 CURVE",
"3 219 LINE",
"47 156 LINE",
"182 253 LINE",
"219 226 OFFCURVE",
"263 210 OFFCURVE",
"318 210 CURVE SMOOTH",
"329 210 OFFCURVE",
"339 210 OFFCURVE",
"349 211 CURVE",
"161 81 LINE",
"205 18 LINE",
"481 217 LINE",
"481 0 LINE"
);
},
{
closed = 1;
nodes = (
"261 283 OFFCURVE",
"183 316 OFFCURVE",
"183 442 CURVE SMOOTH",
"183 478 OFFCURVE",
"190 515 OFFCURVE",
"201 550 CURVE",
"481 550 LINE",
"481 307 LINE",
"438 293 OFFCURVE",
"398 283 OFFCURVE",
"344 283 CURVE SMOOTH"
);
}
);
width = 642;
}
);
unicode = 11183;
category = Letter;
},
{
glyphname = letterAA;
lastChange = "2019-02-27 14:35:13 +0000";
layers = (
{
layerId = UUID0;
paths = (
{
closed = 1;
nodes = (
"607 -122 OFFCURVE",
"668 -74 OFFCURVE",
"668 0 CURVE SMOOTH",
"668 66 OFFCURVE",
"627 111 OFFCURVE",
"566 128 CURVE",
"566 550 LINE",
"618 550 LINE",
"618 625 LINE",
"44 625 LINE",
"44 550 LINE",
"117 550 LINE",
"105 513 OFFCURVE",
"98 477 OFFCURVE",
"98 437 CURVE SMOOTH",
"98 390 OFFCURVE",
"110 344 OFFCURVE",
"134 310 CURVE",
"3 219 LINE",
"47 156 LINE",
"182 253 LINE",
"219 226 OFFCURVE",
"263 210 OFFCURVE",
"318 210 CURVE SMOOTH",
"329 210 OFFCURVE",
"339 210 OFFCURVE",
"349 211 CURVE",
"161 81 LINE",
"205 18 LINE",
"481 217 LINE",
"481 66 LINE",
"497 66 LINE SMOOTH",
"543 66 OFFCURVE",
"584 56 OFFCURVE",
"584 7 CURVE SMOOTH",
"584 -33 OFFCURVE",
"550 -48 OFFCURVE",
"510 -48 CURVE SMOOTH",
"463 -48 OFFCURVE",
"420 -26 OFFCURVE",
"383 0 CURVE",
"352 -67 LINE",
"378 -90 OFFCURVE",
"447 -122 OFFCURVE",
"515 -122 CURVE SMOOTH"
);
},
{
closed = 1;
nodes = (
"261 283 OFFCURVE",
"183 316 OFFCURVE",
"183 442 CURVE SMOOTH",
"183 478 OFFCURVE",
"190 515 OFFCURVE",
"201 550 CURVE",
"481 550 LINE",
"481 307 LINE",
"438 293 OFFCURVE",
"398 283 OFFCURVE",
"344 283 CURVE SMOOTH"
);
}
);
width = 680;
}
);
unicode = 11184;
category = Letter;
},
{
glyphname = letterI;
lastChange = "2019-02-27 14:35:13 +0000";
layers = (
{
layerId = UUID0;
paths = (
{
closed = 1;
nodes = (
"542 -12 OFFCURVE",
"598 90 OFFCURVE",
"598 176 CURVE SMOOTH",
"598 269 OFFCURVE",
"543 352 OFFCURVE",
"434 352 CURVE SMOOTH",
"351 352 OFFCURVE",
"291 299 OFFCURVE",
"271 248 CURVE",
"327 200 LINE",
"350 251 OFFCURVE",
"385 277 OFFCURVE",
"427 277 CURVE SMOOTH",
"483 277 OFFCURVE",
"513 241 OFFCURVE",
"513 176 CURVE SMOOTH",
"513 113 OFFCURVE",
"471 63 OFFCURVE",
"402 63 CURVE SMOOTH",
"293 63 OFFCURVE",
"168 166 OFFCURVE",
"87 367 CURVE",
"20 334 LINE",
"112 100 OFFCURVE",
"251 -12 OFFCURVE",
"404 -12 CURVE SMOOTH"
);
},
{
closed = 1;
nodes = (
"487 463 OFFCURVE",
"552 493 OFFCURVE",
"591 590 CURVE",
"527 619 LINE",
"506 579 OFFCURVE",
"484 538 OFFCURVE",
"431 538 CURVE SMOOTH",
"392 538 OFFCURVE",
"364 561 OFFCURVE",
"337 584 CURVE SMOOTH",
"307 610 OFFCURVE",
"273 635 OFFCURVE",
"220 635 CURVE SMOOTH",
"164 635 OFFCURVE",
"99 605 OFFCURVE",
"60 508 CURVE",
"124 479 LINE",
"144 517 OFFCURVE",
"172 560 OFFCURVE",
"215 560 CURVE SMOOTH",
"252 560 OFFCURVE",
"279 539 OFFCURVE",
"307 516 CURVE SMOOTH",
"339 490 OFFCURVE",
"376 463 OFFCURVE",
"427 463 CURVE SMOOTH"
);
}
);
width = 628;
}
);
unicode = 11185;
category = Letter;
},
{
glyphname = letterII;
lastChange = "2019-02-27 14:35:13 +0000";
layers = (
{
layerId = UUID0;
paths = (
{
closed = 1;
nodes = (
"241 -12 OFFCURVE",
"271 45 OFFCURVE",
"271 144 CURVE SMOOTH",
"271 550 LINE",
"404 550 LINE",
"404 625 LINE",
"62 625 LINE",
"62 550 LINE",
"186 550 LINE",
"186 128 LINE SMOOTH",
"186 76 OFFCURVE",
"169 62 OFFCURVE",
"140 62 CURVE SMOOTH",
"115 62 OFFCURVE",
"91 71 OFFCURVE",
"56 98 CURVE",
"18 39 LINE",
"48 10 OFFCURVE",
"101 -12 OFFCURVE",
"153 -12 CURVE SMOOTH"
);
},
{
closed = 1;
nodes = (
"168 684 OFFCURVE",
"198 714 OFFCURVE",
"198 753 CURVE SMOOTH",
"198 791 OFFCURVE",
"168 822 OFFCURVE",
"132 822 CURVE SMOOTH",
"96 822 OFFCURVE",
"65 791 OFFCURVE",
"65 753 CURVE SMOOTH",
"65 714 OFFCURVE",
"96 684 OFFCURVE",
"132 684 CURVE SMOOTH"
);
},
{
closed = 1;
nodes = (
"358 684 OFFCURVE",
"388 714 OFFCURVE",
"388 753 CURVE SMOOTH",
"388 791 OFFCURVE",
"358 822 OFFCURVE",
"322 822 CURVE SMOOTH",
"286 822 OFFCURVE",
"255 791 OFFCURVE",
"255 753 CURVE SMOOTH",
"255 714 OFFCURVE",
"286 684 OFFCURVE",
"322 684 CURVE SMOOTH"
);
}
);
width = 428;
}
);
unicode = 11186;
category = Letter;
},
{
glyphname = letterU;
lastChange = "2019-02-27 14:35:13 +0000";
layers = (
{
layerId = UUID0;
paths = (
{
closed = 1;
nodes = (
"507 -12 OFFCURVE",
"577 86 OFFCURVE",
"577 199 CURVE SMOOTH",
"577 284 OFFCURVE",
"532 348 OFFCURVE",
"450 377 CURVE",
"492 415 OFFCURVE",
"521 470 OFFCURVE",
"521 550 CURVE SMOOTH",
"521 608 OFFCURVE",
"484 625 OFFCURVE",
"433 625 CURVE SMOOTH",
"222 625 LINE",
"222 550 LINE",
"385 550 LINE SMOOTH",
"421 550 OFFCURVE",
"436 550 OFFCURVE",
"436 515 CURVE SMOOTH",
"436 440 OFFCURVE",
"376 398 OFFCURVE",
"333 390 CURVE",
"324 390 OFFCURVE",
"316 389 OFFCURVE",
"308 388 CURVE",
"308 313 LINE",
"325 315 OFFCURVE",
"343 317 OFFCURVE",
"361 317 CURVE SMOOTH",
"447 317 OFFCURVE",
"492 269 OFFCURVE",
"492 195 CURVE SMOOTH",
"492 113 OFFCURVE",
"444 63 OFFCURVE",
"363 63 CURVE SMOOTH",
"226 63 OFFCURVE",
"113 197 OFFCURVE",
"70 445 CURVE",
"0 428 LINE",
"44 153 OFFCURVE",
"188 -12 OFFCURVE",
"368 -12 CURVE SMOOTH"
);
}
);
width = 607;
}
);
unicode = 11187;
category = Letter;
},
{
glyphname = letterUU;
lastChange = "2019-02-27 14:35:13 +0000";
layers = (
{
layerId = UUID0;
paths = (
{
closed = 1;
nodes = (
"707 -55 OFFCURVE",
"752 41 OFFCURVE",
"752 128 CURVE SMOOTH",
"752 215 OFFCURVE",
"687 275 OFFCURVE",
"596 275 CURVE SMOOTH",
"585 275 OFFCURVE",
"575 274 OFFCURVE",
"564 272 CURVE",
"545 318 OFFCURVE",
"511 356 OFFCURVE",
"450 377 CURVE",
"492 415 OFFCURVE",
"521 470 OFFCURVE",
"521 550 CURVE SMOOTH",
"521 608 OFFCURVE",
"484 625 OFFCURVE",
"433 625 CURVE SMOOTH",
"222 625 LINE",
"222 550 LINE",
"385 550 LINE SMOOTH",
"421 550 OFFCURVE",
"436 550 OFFCURVE",
"436 515 CURVE SMOOTH",
"436 440 OFFCURVE",
"376 398 OFFCURVE",
"333 390 CURVE",
"324 390 OFFCURVE",
"316 389 OFFCURVE",
"308 388 CURVE",
"308 313 LINE",
"325 315 OFFCURVE",
"343 317 OFFCURVE",
"361 317 CURVE SMOOTH",
"447 317 OFFCURVE",
"492 269 OFFCURVE",
"492 195 CURVE SMOOTH",
"492 113 OFFCURVE",
"444 63 OFFCURVE",
"363 63 CURVE SMOOTH",
"226 63 OFFCURVE",
"113 197 OFFCURVE",
"70 445 CURVE",
"0 428 LINE",
"44 153 OFFCURVE",
"188 -12 OFFCURVE",
"368 -12 CURVE SMOOTH",
"507 -12 OFFCURVE",
"577 86 OFFCURVE",
"577 199 CURVE SMOOTH",
"577 203 LINE",
"582 204 OFFCURVE",
"588 204 OFFCURVE",
"594 204 CURVE SMOOTH",
"640 204 OFFCURVE",
"677 177 OFFCURVE",
"677 118 CURVE SMOOTH",
"677 61 OFFCURVE",
"639 -12 OFFCURVE",
"512 -63 CURVE",
"550 -122 LINE"
);
}
);
width = 782;
}
);
unicode = 11188;
category = Letter;
},
{
glyphname = letterVocR;
lastChange = "2019-02-27 14:35:13 +0000";
layers = (
{
layerId = UUID0;
paths = (
{
closed = 1;
nodes = (
"382 -12 OFFCURVE",
"462 43 OFFCURVE",
"462 154 CURVE SMOOTH",
"462 181 LINE",
"377 181 LINE",
"377 156 LINE SMOOTH",
"377 91 OFFCURVE",
"332 63 OFFCURVE",
"290 63 CURVE SMOOTH",
"244 63 OFFCURVE",
"197 88 OFFCURVE",
"197 176 CURVE SMOOTH",
"197 550 LINE",
"384 550 LINE",
"384 625 LINE",
"24 625 LINE",
"24 550 LINE",
"112 550 LINE",
"112 174 LINE SMOOTH",
"112 61 OFFCURVE",
"185 -12 OFFCURVE",
"290 -12 CURVE SMOOTH"
);
}
);
width = 492;
}
);
unicode = 11189;
category = Letter;
},
{
glyphname = letterVocRR;
lastChange = "2019-02-27 14:35:13 +0000";
layers = (
{
layerId = UUID0;
paths = (
{
closed = 1;
nodes = (
"382 -12 OFFCURVE",
"462 43 OFFCURVE",
"462 154 CURVE SMOOTH",
"462 181 LINE",
"377 181 LINE",
"377 156 LINE SMOOTH",
"377 91 OFFCURVE",
"332 63 OFFCURVE",
"290 63 CURVE SMOOTH",
"244 63 OFFCURVE",
"197 88 OFFCURVE",
"197 176 CURVE SMOOTH",
"197 550 LINE",
"274 550 LINE",
"274 483 LINE SMOOTH",
"274 384 OFFCURVE",
"305 327 OFFCURVE",
"387 327 CURVE SMOOTH",
"418 327 OFFCURVE",
"450 341 OFFCURVE",
"469 363 CURVE",
"425 422 LINE",
"414 406 OFFCURVE",
"402 402 OFFCURVE",
"390 402 CURVE SMOOTH",
"370 402 OFFCURVE",
"354 413 OFFCURVE",
"354 467 CURVE SMOOTH",
"354 550 LINE",
"439 550 LINE",
"439 625 LINE",
"24 625 LINE",
"24 550 LINE",
"112 550 LINE",
"112 174 LINE SMOOTH",
"112 61 OFFCURVE",
"185 -12 OFFCURVE",
"290 -12 CURVE SMOOTH"
);
}
);
width = 499;
}
);
unicode = 1118A;
category = Letter;
},
{
glyphname = letterVocL;
lastChange = "2019-02-27 14:35:13 +0000";
layers = (
{
layerId = UUID0;
paths = (
{
closed = 1;
nodes = (
"457 -12 OFFCURVE",
"525 38 OFFCURVE",
"546 57 CURVE",
"507 114 LINE",
"467 86 OFFCURVE",
"429 63 OFFCURVE",
"374 63 CURVE SMOOTH",
"333 63 OFFCURVE",
"305 83 OFFCURVE",
"305 118 CURVE SMOOTH",
"305 151 OFFCURVE",
"336 171 OFFCURVE",
"393 204 CURVE SMOOTH",
"445 234 OFFCURVE",
"500 271 OFFCURVE",
"500 350 CURVE SMOOTH",
"500 420 OFFCURVE",
"448 456 OFFCURVE",
"399 466 CURVE",
"399 550 LINE",
"565 550 LINE",
"565 625 LINE",
"24 625 LINE",
"24 550 LINE",
"74 550 LINE",
"74 0 LINE",
"159 0 LINE",
"159 550 LINE",
"314 550 LINE",
"314 464 LINE",
"274 455 OFFCURVE",
"245 436 OFFCURVE",
"222 415 CURVE",
"259 359 LINE",
"287 382 OFFCURVE",
"316 396 OFFCURVE",
"356 396 CURVE SMOOTH",
"391 396 OFFCURVE",
"417 380 OFFCURVE",
"417 347 CURVE SMOOTH",
"417 306 OFFCURVE",
"383 285 OFFCURVE",
"330 255 CURVE SMOOTH",
"277 225 OFFCURVE",
"222 184 OFFCURVE",
"222 117 CURVE SMOOTH",
"222 32 OFFCURVE",
"289 -12 OFFCURVE",
"374 -12 CURVE SMOOTH"
);
}
);
width = 595;
}
);
unicode = 1118B;
category = Letter;
},
{
glyphname = letterVocLL;
lastChange = "2019-02-27 14:35:13 +0000";
layers = (
{
layerId = UUID0;
paths = (
{
closed = 1;
nodes = (
"457 -12 OFFCURVE",
"525 38 OFFCURVE",
"546 57 CURVE",
"507 114 LINE",
"467 86 OFFCURVE",
"429 63 OFFCURVE",
"374 63 CURVE SMOOTH",
"333 63 OFFCURVE",
"305 83 OFFCURVE",
"305 118 CURVE SMOOTH",
"305 151 OFFCURVE",
"336 171 OFFCURVE",
"393 204 CURVE SMOOTH",
"445 234 OFFCURVE",
"500 271 OFFCURVE",
"500 350 CURVE SMOOTH",
"500 420 OFFCURVE",
"448 456 OFFCURVE",
"399 466 CURVE",
"399 550 LINE",
"472 550 LINE",
"472 544 LINE SMOOTH",
"472 465 OFFCURVE",
"532 416 OFFCURVE",
"607 416 CURVE SMOOTH",
"678 416 OFFCURVE",
"740 465 OFFCURVE",
"740 553 CURVE SMOOTH",
"740 625 LINE",
"24 625 LINE",
"24 550 LINE",
"74 550 LINE",
"74 0 LINE",
"159 0 LINE",
"159 550 LINE",
"314 550 LINE",
"314 464 LINE",
"274 455 OFFCURVE",
"245 436 OFFCURVE",
"222 415 CURVE",
"259 359 LINE",
"287 382 OFFCURVE",
"316 396 OFFCURVE",
"356 396 CURVE SMOOTH",
"391 396 OFFCURVE",
"417 380 OFFCURVE",
"417 347 CURVE SMOOTH",
"417 306 OFFCURVE",
"383 285 OFFCURVE",
"330 255 CURVE SMOOTH",
"277 225 OFFCURVE",
"222 184 OFFCURVE",
"222 117 CURVE SMOOTH",
"222 32 OFFCURVE",
"289 -12 OFFCURVE",
"374 -12 CURVE SMOOTH"
);
},
{
closed = 1;
nodes = (
"573 481 OFFCURVE",
"544 504 OFFCURVE",
"544 544 CURVE SMOOTH",
"544 550 LINE",
"668 550 LINE",
"668 544 LINE SMOOTH",
"668 504 OFFCURVE",
"642 481 OFFCURVE",
"609 481 CURVE SMOOTH"
);
}
);
width = 798;
}
);
unicode = 1118C;
category = Letter;
},
{
glyphname = letterE;
lastChange = "2019-02-27 14:35:13 +0000";
layers = (
{
layerId = UUID0;
paths = (
{
closed = 1;
nodes = (
"149 0 LINE",
"149 369 LINE",
"212 262 OFFCURVE",
"284 141 OFFCURVE",
"391 141 CURVE SMOOTH",
"492 141 OFFCURVE",
"508 210 OFFCURVE",
"508 290 CURVE SMOOTH",
"508 550 LINE",
"552 550 LINE",
"552 625 LINE",
"24 625 LINE",
"24 550 LINE",
"64 550 LINE",
"64 0 LINE"
);
},
{
closed = 1;
nodes = (
"313 214 OFFCURVE",
"203 407 OFFCURVE",
"149 508 CURVE",
"149 550 LINE",
"423 550 LINE",
"423 272 LINE SMOOTH",
"423 227 OFFCURVE",
"413 214 OFFCURVE",
"388 214 CURVE SMOOTH"
);
}
);
width = 576;
}
);
unicode = 1118D;
category = Letter;
},
{
glyphname = letterAI;
lastChange = "2019-02-27 14:35:13 +0000";
layers = (
{
layerId = UUID0;
paths = (
{
closed = 1;
nodes = (
"149 0 LINE",
"149 369 LINE",
"212 262 OFFCURVE",
"284 141 OFFCURVE",
"391 141 CURVE SMOOTH",
"492 141 OFFCURVE",
"508 210 OFFCURVE",
"508 290 CURVE SMOOTH",
"508 550 LINE",
"552 550 LINE",
"552 625 LINE",
"24 625 LINE",
"24 550 LINE",
"64 550 LINE",
"64 0 LINE"
);
},
{
closed = 1;
nodes = (
"313 214 OFFCURVE",
"203 407 OFFCURVE",
"149 508 CURVE",
"149 550 LINE",
"423 550 LINE",
"423 272 LINE SMOOTH",
"423 227 OFFCURVE",
"413 214 OFFCURVE",
"388 214 CURVE SMOOTH"
);
},
{
closed = 1;
nodes = (
"484 710 LINE",
"484 775 LINE",
"71 775 LINE",
"71 710 LINE"
);
}
);
width = 576;
}
);
unicode = 1118E;
category = Letter;
},
{
glyphname = letterO;
lastChange = "2019-02-27 14:35:13 +0000";
layers = (
{
layerId = UUID0;
paths = (
{
closed = 1;
nodes = (
"179 0 LINE",
"179 266 LINE",
"237 142 OFFCURVE",
"330 72 OFFCURVE",
"441 72 CURVE SMOOTH",
"574 72 OFFCURVE",
"627 166 OFFCURVE",
"627 256 CURVE SMOOTH",
"627 329 OFFCURVE",
"587 380 OFFCURVE",
"519 403 CURVE",
"554 436 OFFCURVE",
"579 462 OFFCURVE",
"579 530 CURVE SMOOTH",
"579 537 OFFCURVE",
"578 543 OFFCURVE",
"576 550 CURVE",
"622 550 LINE",
"622 625 LINE",
"24 625 LINE",
"24 550 LINE",
"94 550 LINE",
"94 0 LINE"
);
},
{
closed = 1;
nodes = (
"339 146 OFFCURVE",
"219 252 OFFCURVE",
"179 465 CURVE",
"179 550 LINE",
"462 550 LINE SMOOTH",
"489 550 OFFCURVE",
"500 538 OFFCURVE",
"500 511 CURVE SMOOTH",
"500 446 OFFCURVE",
"448 421 OFFCURVE",
"411 414 CURVE",
"403 414 OFFCURVE",
"396 413 OFFCURVE",
"389 412 CURVE",
"389 348 LINE",
"404 350 OFFCURVE",
"420 352 OFFCURVE",
"435 352 CURVE SMOOTH",
"509 352 OFFCURVE",
"547 311 OFFCURVE",
"547 249 CURVE SMOOTH",
"547 179 OFFCURVE",
"499 146 OFFCURVE",
"444 146 CURVE SMOOTH"
);
}
);
width = 651;
}
);
unicode = 1118F;
category = Letter;
},
{
glyphname = letterAU;
lastChange = "2019-02-27 14:35:13 +0000";
layers = (
{
layerId = UUID0;
paths = (
{
closed = 1;
nodes = (
"179 0 LINE",
"179 266 LINE",
"237 142 OFFCURVE",
"330 72 OFFCURVE",
"434 72 CURVE SMOOTH",
"560 72 OFFCURVE",
"627 159 OFFCURVE",
"627 251 CURVE SMOOTH",
"627 317 OFFCURVE",
"587 378 OFFCURVE",
"519 403 CURVE",
"536 419 OFFCURVE",
"551 434 OFFCURVE",
"562 453 CURVE",
"587 428 OFFCURVE",
"620 416 OFFCURVE",
"657 416 CURVE SMOOTH",
"728 416 OFFCURVE",
"785 465 OFFCURVE",
"785 550 CURVE SMOOTH",
"785 625 LINE",
"24 625 LINE",
"24 550 LINE",
"94 550 LINE",
"94 0 LINE"
);
},
{
closed = 1;
nodes = (
"339 146 OFFCURVE",
"219 252 OFFCURVE",
"179 465 CURVE",
"179 550 LINE",
"455 550 LINE SMOOTH",
"487 550 OFFCURVE",
"500 540 OFFCURVE",
"500 511 CURVE SMOOTH",
"500 446 OFFCURVE",
"448 421 OFFCURVE",
"411 414 CURVE",
"403 414 OFFCURVE",
"396 413 OFFCURVE",
"389 412 CURVE",
"389 348 LINE",
"404 350 OFFCURVE",
"420 352 OFFCURVE",
"435 352 CURVE SMOOTH",
"509 352 OFFCURVE",
"547 311 OFFCURVE",
"547 244 CURVE SMOOTH",
"547 179 OFFCURVE",
"499 146 OFFCURVE",
"437 146 CURVE SMOOTH"
);
},
{
closed = 1;
nodes = (
"611 481 OFFCURVE",
"581 504 OFFCURVE",
"581 544 CURVE SMOOTH",
"581 550 LINE",
"713 550 LINE",
"713 544 LINE SMOOTH",
"713 504 OFFCURVE",
"687 481 OFFCURVE",
"649 481 CURVE SMOOTH"
);
}
);
width = 815;
}
);
unicode = 11190;
category = Letter;
},
{
glyphname = Ka;
lastChange = "2019-02-27 14:35:13 +0000";
layers = (
{
layerId = UUID0;
paths = (
{
closed = 1;
nodes = (
"396 0 LINE",
"396 145 LINE",
"429 123 OFFCURVE",
"470 109 OFFCURVE",
"512 109 CURVE SMOOTH",
"609 109 OFFCURVE",
"677 189 OFFCURVE",
"677 289 CURVE SMOOTH",
"677 400 OFFCURVE",
"593 465 OFFCURVE",
"512 465 CURVE SMOOTH",
"464 465 OFFCURVE",
"424 448 OFFCURVE",
"396 413 CURVE",
"396 550 LINE",
"637 550 LINE",
"637 625 LINE",
"62 625 LINE",
"62 550 LINE",
"311 550 LINE",
"311 428 LINE",
"277 450 OFFCURVE",
"236 465 OFFCURVE",
"195 465 CURVE SMOOTH",
"102 465 OFFCURVE",
"30 389 OFFCURVE",
"30 280 CURVE SMOOTH",
"30 174 OFFCURVE",
"114 109 OFFCURVE",
"195 109 CURVE SMOOTH",
"243 109 OFFCURVE",
"282 124 OFFCURVE",
"311 161 CURVE",
"311 0 LINE"
);
},
{
closed = 1;
nodes = (
"159 184 OFFCURVE",
"115 215 OFFCURVE",
"115 285 CURVE SMOOTH",
"115 351 OFFCURVE",
"154 390 OFFCURVE",
"203 390 CURVE SMOOTH",
"243 390 OFFCURVE",
"276 372 OFFCURVE",
"311 349 CURVE",
"311 274 LINE",
"286 217 OFFCURVE",
"253 184 OFFCURVE",
"208 184 CURVE SMOOTH"
);
},
{
closed = 1;
nodes = (
"464 184 OFFCURVE",
"430 201 OFFCURVE",
"396 225 CURVE",
"396 299 LINE",
"420 357 OFFCURVE",
"454 390 OFFCURVE",
"501 390 CURVE SMOOTH",
"551 390 OFFCURVE",
"592 360 OFFCURVE",
"592 285 CURVE SMOOTH",
"592 219 OFFCURVE",
"553 184 OFFCURVE",
"504 184 CURVE SMOOTH"
);
}
);
width = 707;
}
);
unicode = 11191;
category = Letter;
},
{
glyphname = Kha;
lastChange = "2019-02-27 14:35:13 +0000";
layers = (
{
layerId = UUID0;
paths = (
{
closed = 1;
nodes = (
"159 0 LINE",
"159 550 LINE",
"266 550 LINE",
"266 312 LINE SMOOTH",
"266 204 OFFCURVE",
"332 141 OFFCURVE",
"435 141 CURVE SMOOTH",
"481 141 OFFCURVE",
"518 154 OFFCURVE",
"547 176 CURVE",
"547 0 LINE",
"632 0 LINE",
"632 550 LINE",
"682 550 LINE",
"682 625 LINE",
"24 625 LINE",
"24 550 LINE",
"74 550 LINE",
"74 0 LINE"
);
},
{
closed = 1;
nodes = (
"394 214 OFFCURVE",
"351 245 OFFCURVE",
"351 311 CURVE SMOOTH",
"351 550 LINE",
"547 550 LINE",
"547 256 LINE",
"528 234 OFFCURVE",
"495 214 OFFCURVE",
"440 214 CURVE SMOOTH"
);
}
);
width = 706;
}
);
unicode = 11192;
category = Letter;
},
{
glyphname = Ga;
lastChange = "2019-02-27 14:35:13 +0000";
layers = (
{
layerId = UUID0;
paths = (
{
closed = 1;
nodes = (
"498 0 LINE",
"498 550 LINE",
"561 550 LINE",
"561 625 LINE",
"24 625 LINE",
"24 550 LINE",
"148 550 LINE",
"148 333 LINE",
"106 324 OFFCURVE",
"31 307 OFFCURVE",
"31 263 CURVE SMOOTH",
"31 215 OFFCURVE",
"155 128 OFFCURVE",
"189 128 CURVE SMOOTH",
"223 128 OFFCURVE",
"233 169 OFFCURVE",
"233 204 CURVE SMOOTH",
"233 550 LINE",
"413 550 LINE",
"413 0 LINE"
);
}
);
width = 585;
}
);
unicode = 11193;
category = Letter;
},
{
glyphname = Gha;
lastChange = "2019-02-27 14:35:13 +0000";
layers = (
{
layerId = UUID0;
paths = (
{
closed = 1;
nodes = (
"673 0 LINE",
"673 550 LINE",
"723 550 LINE",
"723 625 LINE",
"588 625 LINE",
"588 316 LINE",
"570 301 OFFCURVE",
"542 284 OFFCURVE",
"502 284 CURVE SMOOTH",
"454 284 OFFCURVE",
"413 314 OFFCURVE",
"413 378 CURVE SMOOTH",
"413 550 LINE",
"328 550 LINE",
"328 382 LINE SMOOTH",
"328 361 OFFCURVE",
"330 345 OFFCURVE",
"336 322 CURVE",
"318 298 OFFCURVE",
"287 284 OFFCURVE",
"248 284 CURVE SMOOTH",
"195 284 OFFCURVE",
"159 314 OFFCURVE",
"159 379 CURVE SMOOTH",
"159 625 LINE",
"24 625 LINE",
"24 550 LINE",
"74 550 LINE",
"74 376 LINE SMOOTH",
"74 278 OFFCURVE",
"136 211 OFFCURVE",
"236 211 CURVE SMOOTH",
"296 211 OFFCURVE",
"338 234 OFFCURVE",
"365 265 CURVE",
"392 234 OFFCURVE",
"434 211 OFFCURVE",
"493 211 CURVE SMOOTH",
"534 211 OFFCURVE",
"564 220 OFFCURVE",
"588 237 CURVE",
"588 0 LINE"
);
}
);
width = 747;
}
);
unicode = 11194;
category = Letter;
},
{
glyphname = Nga;
lastChange = "2019-02-27 14:35:13 +0000";
layers = (
{
layerId = UUID0;
paths = (
{
closed = 1;
nodes = (
"446 47 LINE",
"377 87 LINE SMOOTH",
"238 167 OFFCURVE",
"152 219 OFFCURVE",
"152 315 CURVE SMOOTH",
"152 550 LINE",
"421 550 LINE",
"421 450 LINE",
"496 450 LINE",
"496 625 LINE",
"24 625 LINE",
"24 550 LINE",
"67 550 LINE",
"67 307 LINE SMOOTH",
"67 187 OFFCURVE",
"169 117 OFFCURVE",
"339 19 CURVE SMOOTH",
"404 -19 LINE"
);
}
);
width = 536;
}
);
unicode = 11195;
category = Letter;
},
{
glyphname = Ca;
lastChange = "2019-02-27 14:35:13 +0000";
layers = (
{
layerId = UUID0;
paths = (
{
closed = 1;
nodes = (
"187 -12 OFFCURVE",
"202 32 OFFCURVE",
"202 82 CURVE SMOOTH",
"202 122 LINE",
"388 122 LINE SMOOTH",
"506 122 OFFCURVE",
"537 194 OFFCURVE",
"537 271 CURVE SMOOTH",
"537 550 LINE",
"601 550 LINE",
"601 625 LINE",
"43 625 LINE",
"43 550 LINE",
"117 550 LINE",
"117 195 LINE",
"62 195 OFFCURVE",
"0 167 OFFCURVE",
"0 123 CURVE SMOOTH",
"0 54 OFFCURVE",
"100 -12 OFFCURVE",
"134 -12 CURVE SMOOTH"
);
},
{
closed = 1;
nodes = (
"202 550 LINE",
"452 550 LINE",
"452 274 LINE SMOOTH",
"452 214 OFFCURVE",
"422 197 OFFCURVE",
"383 197 CURVE SMOOTH",
"202 197 LINE"
);
}
);
width = 625;
}
);
unicode = 11196;
category = Letter;
},
{
glyphname = Cha;
lastChange = "2019-02-27 14:35:13 +0000";
layers = (
{
layerId = UUID0;
paths = (
{
closed = 1;
nodes = (
"260 -12 OFFCURVE",
"305 10 OFFCURVE",
"337 42 CURVE",
"383 5 OFFCURVE",
"432 -12 OFFCURVE",
"496 -12 CURVE SMOOTH",
"604 -12 OFFCURVE",
"676 77 OFFCURVE",
"676 184 CURVE SMOOTH",
"676 305 OFFCURVE",
"598 364 OFFCURVE",
"504 364 CURVE SMOOTH",
"464 364 OFFCURVE",
"431 356 OFFCURVE",
"401 328 CURVE",
"401 550 LINE",
"668 550 LINE",
"668 625 LINE",
"34 625 LINE",
"34 550 LINE",
"316 550 LINE",
"316 328 LINE",
"284 354 OFFCURVE",
"248 364 OFFCURVE",
"200 364 CURVE SMOOTH",
"104 364 OFFCURVE",
"24 288 OFFCURVE",
"24 176 CURVE SMOOTH",
"24 56 OFFCURVE",
"104 -12 OFFCURVE",
"205 -12 CURVE SMOOTH"
);
},
{
closed = 1;
nodes = (
"147 63 OFFCURVE",
"109 106 OFFCURVE",
"109 174 CURVE SMOOTH",
"109 257 OFFCURVE",
"161 289 OFFCURVE",
"201 289 CURVE SMOOTH",
"241 289 OFFCURVE",
"277 273 OFFCURVE",
"316 239 CURVE",
"316 225 LINE SMOOTH",
"316 147 OFFCURVE",
"286 63 OFFCURVE",
"202 63 CURVE SMOOTH"
);
},
{
closed = 1;
nodes = (
"447 63 OFFCURVE",
"414 78 OFFCURVE",
"379 107 CURVE",
"391 137 OFFCURVE",
"398 172 OFFCURVE",
"400 213 CURVE",
"418 268 OFFCURVE",
"453 289 OFFCURVE",
"495 289 CURVE SMOOTH",
"548 289 OFFCURVE",
"591 256 OFFCURVE",
"591 180 CURVE SMOOTH",
"591 105 OFFCURVE",
"542 63 OFFCURVE",
"486 63 CURVE SMOOTH"
);
}
);
width = 706;
}
);
unicode = 11197;
category = Letter;
},
{
glyphname = Ja;
lastChange = "2019-02-27 14:35:13 +0000";
layers = (
{
layerId = UUID0;
paths = (
{
closed = 1;
nodes = (
"320 2 OFFCURVE",
"331 38 OFFCURVE",
"331 72 CURVE SMOOTH",
"331 150 OFFCURVE",
"296 193 OFFCURVE",
"235 240 CURVE SMOOTH",
"185 278 OFFCURVE",
"159 298 OFFCURVE",
"159 362 CURVE SMOOTH",
"159 550 LINE",
"289 550 LINE",
"289 260 LINE",
"374 260 LINE",
"374 550 LINE",
"494 550 LINE",
"494 200 LINE",
"579 200 LINE",
"579 550 LINE",
"629 550 LINE",
"629 625 LINE",
"24 625 LINE",
"24 550 LINE",
"74 550 LINE",
"74 362 LINE SMOOTH",
"74 260 OFFCURVE",
"120 223 OFFCURVE",
"170 184 CURVE SMOOTH",
"216 148 OFFCURVE",
"246 123 OFFCURVE",
"246 73 CURVE SMOOTH",
"246 52 OFFCURVE",
"241 37 OFFCURVE",
"233 26 CURVE",
"301 -20 LINE"
);
}
);
width = 653;
}
);
unicode = 11198;
category = Letter;
},
{
glyphname = Jha;
lastChange = "2019-02-27 14:35:13 +0000";
layers = (
{
layerId = UUID0;
paths = (
{
closed = 1;
nodes = (
"600 -12 OFFCURVE",
"668 46 OFFCURVE",
"668 156 CURVE SMOOTH",
"668 550 LINE",
"731 550 LINE",
"731 625 LINE",
"24 625 LINE",
"24 550 LINE",
"148 550 LINE",
"148 333 LINE",
"106 324 OFFCURVE",
"31 307 OFFCURVE",
"31 263 CURVE SMOOTH",
"31 215 OFFCURVE",
"155 128 OFFCURVE",
"189 128 CURVE SMOOTH",
"223 128 OFFCURVE",
"233 169 OFFCURVE",
"233 204 CURVE SMOOTH",
"233 550 LINE",
"338 550 LINE",
"338 156 LINE SMOOTH",
"338 62 OFFCURVE",
"406 -12 OFFCURVE",
"501 -12 CURVE SMOOTH"
);
},
{
closed = 1;
nodes = (
"456 63 OFFCURVE",
"423 96 OFFCURVE",
"423 156 CURVE SMOOTH",
"423 550 LINE",
"583 550 LINE",
"583 156 LINE SMOOTH",
"583 95 OFFCURVE",
"547 63 OFFCURVE",
"502 63 CURVE SMOOTH"
);
}
);
width = 755;
}
);
unicode = 11199;
category = Letter;
},
{
glyphname = Nya;
lastChange = "2019-02-27 14:35:13 +0000";
layers = (
{
layerId = UUID0;
paths = (
{
closed = 1;
nodes = (
"582 14 OFFCURVE",
"655 89 OFFCURVE",
"655 200 CURVE SMOOTH",
"655 298 OFFCURVE",
"572 381 OFFCURVE",
"456 384 CURVE",
"456 550 LINE",
"629 550 LINE",
"629 625 LINE",
"24 625 LINE",
"24 550 LINE",
"84 550 LINE",
"84 0 LINE",
"169 0 LINE",
"169 550 LINE",
"371 550 LINE",
"371 379 LINE",
"329 370 OFFCURVE",
"256 344 OFFCURVE",
"256 300 CURVE SMOOTH",
"256 252 OFFCURVE",
"347 192 OFFCURVE",
"401 192 CURVE SMOOTH",
"446 192 OFFCURVE",
"456 233 OFFCURVE",
"456 268 CURVE SMOOTH",
"456 309 LINE",
"519 306 OFFCURVE",
"570 259 OFFCURVE",
"570 197 CURVE SMOOTH",
"570 123 OFFCURVE",
"539 85 OFFCURVE",
"461 49 CURVE",
"497 -12 LINE"
);
}
);
width = 695;
}
);
unicode = 1119A;
category = Letter;
},
{
glyphname = Tta;
lastChange = "2019-02-27 14:35:13 +0000";
layers = (
{
layerId = UUID0;
paths = (
{
closed = 1;
nodes = (
"387 -12 OFFCURVE",
"465 68 OFFCURVE",
"499 125 CURVE",
"451 176 LINE",
"411 118 OFFCURVE",
"353 61 OFFCURVE",
"270 61 CURVE SMOOTH",
"212 61 OFFCURVE",
"151 91 OFFCURVE",
"151 171 CURVE SMOOTH",
"151 550 LINE",
"383 550 LINE",
"383 420 LINE",
"458 420 LINE",
"458 550 LINE",
"518 550 LINE",
"518 625 LINE",
"24 625 LINE",
"24 550 LINE",
"66 550 LINE",
"66 171 LINE SMOOTH",
"66 57 OFFCURVE",
"149 -12 OFFCURVE",
"265 -12 CURVE SMOOTH"
);
}
);
width = 542;
}
);
unicode = 1119B;
category = Letter;
},
{
glyphname = Ttha;
lastChange = "2019-02-27 14:35:13 +0000";
layers = (
{
layerId = UUID0;
paths = (
{
closed = 1;
nodes = (
"481 13 OFFCURVE",
"621 144 OFFCURVE",
"621 324 CURVE SMOOTH",
"621 477 OFFCURVE",
"504 601 OFFCURVE",
"339 601 CURVE SMOOTH",
"189 601 OFFCURVE",
"40 476 OFFCURVE",
"40 288 CURVE",
"40 137 OFFCURVE",
"155 13 OFFCURVE",
"322 13 CURVE SMOOTH"
);
},
{
closed = 1;
nodes = (
"204 88 OFFCURVE",
"125 187 OFFCURVE",
"125 294 CURVE SMOOTH",
"125 432 OFFCURVE",
"232 526 OFFCURVE",
"343 526 CURVE SMOOTH",
"460 526 OFFCURVE",
"536 428 OFFCURVE",
"536 318 CURVE SMOOTH",
"536 187 OFFCURVE",
"433 88 OFFCURVE",
"318 88 CURVE SMOOTH"
);
}
);
width = 661;
}
);
unicode = 1119C;
category = Letter;
},
{
glyphname = Dda;
lastChange = "2019-02-27 14:35:13 +0000";
layers = (
{
layerId = UUID0;
paths = (
{
closed = 1;
nodes = (
"377 17 OFFCURVE",
"490 102 OFFCURVE",
"490 230 CURVE SMOOTH",
"490 331 OFFCURVE",
"419 407 OFFCURVE",
"322 407 CURVE SMOOTH",
"304 407 OFFCURVE",
"285 406 OFFCURVE",
"261 398 CURVE",
"276 449 OFFCURVE",
"288 496 OFFCURVE",
"295 550 CURVE",
"509 550 LINE",
"509 625 LINE",
"24 625 LINE",
"24 550 LINE",
"209 550 LINE",
"196 468 OFFCURVE",
"166 357 OFFCURVE",
"121 299 CURVE",
"172 253 LINE",
"204 292 OFFCURVE",
"246 332 OFFCURVE",
"306 332 CURVE SMOOTH",
"372 332 OFFCURVE",
"405 285 OFFCURVE",
"405 234 CURVE SMOOTH",
"405 142 OFFCURVE",
"348 98 OFFCURVE",
"262 46 CURVE",
"307 -15 LINE"
);
}
);
width = 533;
}
);
unicode = 1119D;
category = Letter;
},
{
glyphname = Ddha;
lastChange = "2019-02-27 14:35:13 +0000";
layers = (
{
layerId = UUID0;
paths = (
{
closed = 1;
nodes = (
"468 0 LINE",
"468 202 LINE",
"492 202 LINE SMOOTH",
"609 202 OFFCURVE",
"652 248 OFFCURVE",
"652 324 CURVE SMOOTH",
"652 406 OFFCURVE",
"599 441 OFFCURVE",
"529 441 CURVE SMOOTH",
"440 441 OFFCURVE",
"386 375 OFFCURVE",
"383 277 CURVE",
"233 277 LINE",
"233 550 LINE",
"611 550 LINE",
"611 625 LINE",
"24 625 LINE",
"24 550 LINE",
"148 550 LINE",
"148 281 LINE",
"106 272 OFFCURVE",
"31 255 OFFCURVE",
"31 211 CURVE SMOOTH",
"31 163 OFFCURVE",
"155 76 OFFCURVE",
"189 76 CURVE SMOOTH",
"223 76 OFFCURVE",
"233 117 OFFCURVE",
"233 152 CURVE SMOOTH",
"233 202 LINE",
"383 202 LINE",
"383 0 LINE"
);
},
{
closed = 1;
nodes = (
"471 347 OFFCURVE",
"498 371 OFFCURVE",
"528 371 CURVE SMOOTH",
"570 371 OFFCURVE",
"573 338 OFFCURVE",
"573 324 CURVE SMOOTH",
"573 278 OFFCURVE",
"525 277 OFFCURVE",
"487 277 CURVE SMOOTH",
"468 277 LINE"
);
}
);
width = 682;
}
);
unicode = 1119E;
category = Letter;
},
{
glyphname = Nna;
lastChange = "2019-02-27 14:35:13 +0000";
layers = (
{
layerId = UUID0;
paths = (
{
closed = 1;
nodes = (
"125 0 LINE",
"125 97 LINE SMOOTH",
"125 157 OFFCURVE",
"175 176 OFFCURVE",
"214 176 CURVE SMOOTH",
"260 176 OFFCURVE",
"283 154 OFFCURVE",
"295 124 CURVE",
"294 116 OFFCURVE",
"294 108 OFFCURVE",
"294 100 CURVE SMOOTH",
"294 0 LINE",
"379 0 LINE",
"379 97 LINE SMOOTH",
"379 157 OFFCURVE",
"429 176 OFFCURVE",
"468 176 CURVE SMOOTH",
"509 176 OFFCURVE",
"536 159 OFFCURVE",
"554 134 CURVE",
"554 0 LINE",
"639 0 LINE",
"639 625 LINE",
"554 625 LINE",
"554 223 LINE",
"530 239 OFFCURVE",
"500 249 OFFCURVE",
"463 249 CURVE SMOOTH",
"400 249 OFFCURVE",
"355 228 OFFCURVE",
"328 197 CURVE",
"301 228 OFFCURVE",
"262 249 OFFCURVE",
"209 249 CURVE SMOOTH",
"91 249 OFFCURVE",
"40 177 OFFCURVE",
"40 100 CURVE SMOOTH",
"40 0 LINE"
);
}
);
width = 719;
}
);
unicode = 1119F;
category = Letter;
},
{
glyphname = Ta;
lastChange = "2019-02-27 14:35:13 +0000";
layers = (
{
layerId = UUID0;
paths = (
{
closed = 1;
nodes = (
"526 -12 OFFCURVE",
"582 90 OFFCURVE",
"582 176 CURVE SMOOTH",
"582 271 OFFCURVE",
"516 343 OFFCURVE",
"426 355 CURVE",
"452 381 OFFCURVE",
"466 419 OFFCURVE",
"466 458 CURVE SMOOTH",
"466 496 OFFCURVE",
"456 526 OFFCURVE",
"439 550 CURVE",
"602 550 LINE",
"602 625 LINE",
"169 625 LINE",
"169 550 LINE",
"331 550 LINE",
"358 537 OFFCURVE",
"381 510 OFFCURVE",
"381 454 CURVE SMOOTH",
"381 390 OFFCURVE",
"352 363 OFFCURVE",
"316 358 CURVE",
"316 283 LINE",
"335 286 OFFCURVE",
"345 287 OFFCURVE",
"363 287 CURVE SMOOTH",
"456 287 OFFCURVE",
"497 246 OFFCURVE",
"497 172 CURVE SMOOTH",
"497 110 OFFCURVE",
"450 63 OFFCURVE",
"386 63 CURVE SMOOTH",
"282 63 OFFCURVE",
"164 156 OFFCURVE",
"74 355 CURVE",
"10 324 LINE",
"109 90 OFFCURVE",
"242 -12 OFFCURVE",
"388 -12 CURVE SMOOTH"
);
}
);
width = 626;
}
);
unicode = 111A0;
category = Letter;
},
{
glyphname = Tha;
lastChange = "2019-02-27 14:35:13 +0000";
layers = (
{
layerId = UUID0;
paths = (
{
closed = 1;
nodes = (
"557 0 LINE",
"557 550 LINE",
"650 550 LINE",
"650 625 LINE",
"24 625 LINE",
"24 550 LINE",
"96 550 LINE",
"96 276 LINE SMOOTH",
"96 152 OFFCURVE",
"168 100 OFFCURVE",
"288 100 CURVE SMOOTH",
"341 100 OFFCURVE",
"412 112 OFFCURVE",
"472 162 CURVE",
"472 0 LINE"
);
},
{
closed = 1;
nodes = (
"216 173 OFFCURVE",
"181 198 OFFCURVE",
"181 279 CURVE SMOOTH",
"181 333 LINE",
"472 333 LINE",
"472 252 LINE",
"407 185 OFFCURVE",
"338 173 OFFCURVE",
"292 173 CURVE SMOOTH"
);
},
{
closed = 1;
nodes = (
"181 550 LINE",
"472 550 LINE",
"472 403 LINE",
"181 403 LINE"
);
}
);
width = 674;
}
);
unicode = 111A1;
category = Letter;
},
{
glyphname = Da;
lastChange = "2019-02-27 14:35:13 +0000";
layers = (
{
layerId = UUID0;
paths = (
{
closed = 1;
nodes = (
"209 -12 OFFCURVE",
"255 34 OFFCURVE",
"276 92 CURVE",
"343 39 OFFCURVE",
"425 -12 OFFCURVE",
"514 -12 CURVE SMOOTH",
"624 -12 OFFCURVE",
"684 76 OFFCURVE",
"707 187 CURVE",
"636 206 LINE",
"623 122 OFFCURVE",
"581 63 OFFCURVE",
"511 63 CURVE SMOOTH",
"446 63 OFFCURVE",
"366 118 OFFCURVE",
"289 171 CURVE",
"289 550 LINE",
"659 550 LINE",
"659 625 LINE",
"60 625 LINE",
"60 550 LINE",
"204 550 LINE",
"204 209 LINE",
"182 216 OFFCURVE",
"159 220 OFFCURVE",
"135 220 CURVE SMOOTH",
"80 220 OFFCURVE",
"20 178 OFFCURVE",
"20 105 CURVE SMOOTH",
"20 31 OFFCURVE",
"68 -12 OFFCURVE",
"143 -12 CURVE SMOOTH"
);
},
{
closed = 1;
nodes = (
"102 58 OFFCURVE",
"99 91 OFFCURVE",
"99 105 CURVE SMOOTH",
"99 138 OFFCURVE",
"119 150 OFFCURVE",
"139 150 CURVE SMOOTH",
"160 150 OFFCURVE",
"181 144 OFFCURVE",
"202 135 CURVE",
"195 78 OFFCURVE",
"171 58 OFFCURVE",
"144 58 CURVE SMOOTH"
);
}
);
width = 717;
}
);
unicode = 111A2;
category = Letter;
},
{
glyphname = Dha;
lastChange = "2019-02-27 14:35:13 +0000";
layers = (
{
layerId = UUID0;
paths = (
{
closed = 1;
nodes = (
"454 -12 OFFCURVE",
"557 26 OFFCURVE",
"557 184 CURVE SMOOTH",
"557 550 LINE",
"627 550 LINE",
"627 625 LINE",
"24 625 LINE",
"24 550 LINE",
"151 550 LINE",
"151 186 LINE SMOOTH",
"151 75 OFFCURVE",
"199 -12 OFFCURVE",
"346 -12 CURVE SMOOTH"
);
},
{
closed = 1;
nodes = (
"284 61 OFFCURVE",
"236 88 OFFCURVE",
"236 187 CURVE SMOOTH",
"236 550 LINE",
"472 550 LINE",
"472 184 LINE SMOOTH",
"472 84 OFFCURVE",
"415 61 OFFCURVE",
"346 61 CURVE SMOOTH"
);
}
);
width = 651;
}
);
unicode = 111A3;
category = Letter;
},
{
glyphname = Na;
lastChange = "2019-02-27 14:35:13 +0000";
layers = (
{
layerId = UUID0;
paths = (
{
closed = 1;
nodes = (
"432 0 LINE",
"432 550 LINE",
"502 550 LINE",
"502 625 LINE",
"24 625 LINE",
"24 550 LINE",
"347 550 LINE",
"347 395 LINE",
"64 395 LINE",
"64 320 LINE",
"347 320 LINE",
"347 0 LINE"
);
}
);
width = 526;
}
);
unicode = 111A4;
category = Letter;
},
{
glyphname = Pa;
lastChange = "2019-02-27 14:35:13 +0000";
layers = (
{
layerId = UUID0;
paths = (
{
closed = 1;
nodes = (
"557 0 LINE",
"557 550 LINE",
"650 550 LINE",
"650 625 LINE",
"24 625 LINE",
"24 550 LINE",
"96 550 LINE",
"96 276 LINE SMOOTH",
"96 152 OFFCURVE",
"168 100 OFFCURVE",
"288 100 CURVE SMOOTH",
"341 100 OFFCURVE",
"412 112 OFFCURVE",
"472 162 CURVE",
"472 0 LINE"
);
},
{
closed = 1;
nodes = (
"216 173 OFFCURVE",
"181 198 OFFCURVE",
"181 279 CURVE SMOOTH",
"181 550 LINE",
"472 550 LINE",
"472 252 LINE",
"407 185 OFFCURVE",
"338 173 OFFCURVE",
"292 173 CURVE SMOOTH"
);
}
);
width = 674;
}
);
unicode = 111A5;
category = Letter;
},
{
glyphname = Pha;
lastChange = "2019-02-27 14:35:13 +0000";
layers = (
{
layerId = UUID0;
paths = (
{
closed = 1;
nodes = (
"299 0 LINE",
"309 66 OFFCURVE",
"322 121 OFFCURVE",
"335 167 CURVE",
"365 140 OFFCURVE",
"430 100 OFFCURVE",
"491 100 CURVE SMOOTH",
"594 100 OFFCURVE",
"657 170 OFFCURVE",
"657 270 CURVE SMOOTH",
"657 381 OFFCURVE",
"578 438 OFFCURVE",
"497 438 CURVE SMOOTH",
"347 438 OFFCURVE",
"270 275 OFFCURVE",
"242 86 CURVE",
"179 114 OFFCURVE",
"143 197 OFFCURVE",
"143 304 CURVE SMOOTH",
"143 401 OFFCURVE",
"192 515 OFFCURVE",
"282 550 CURVE",
"615 550 LINE",
"615 625 LINE",
"24 625 LINE",
"24 550 LINE",
"172 550 LINE",
"98 493 OFFCURVE",
"58 397 OFFCURVE",
"58 298 CURVE SMOOTH",
"58 161 OFFCURVE",
"126 26 OFFCURVE",
"250 0 CURVE"
);
},
{
closed = 1;
nodes = (
"438 175 OFFCURVE",
"392 207 OFFCURVE",
"360 236 CURVE",
"388 309 OFFCURVE",
"430 363 OFFCURVE",
"491 363 CURVE SMOOTH",
"545 363 OFFCURVE",
"572 319 OFFCURVE",
"572 269 CURVE SMOOTH",
"572 213 OFFCURVE",
"539 175 OFFCURVE",
"489 175 CURVE SMOOTH"
);
},
{
closed = 0;
nodes = (
"491 363 LINE SMOOTH"
);
}
);
width = 687;
}
);
unicode = 111A6;
category = Letter;
},
{
glyphname = Ba;
lastChange = "2019-02-27 14:35:13 +0000";
layers = (
{
layerId = UUID0;
paths = (
{
closed = 1;
nodes = (
"330 -12 OFFCURVE",
"407 65 OFFCURVE",
"407 232 CURVE SMOOTH",
"407 550 LINE",
"584 550 LINE",
"584 625 LINE",
"64 625 LINE",
"64 550 LINE",
"322 550 LINE",
"322 333 LINE",
"290 353 OFFCURVE",
"254 364 OFFCURVE",
"213 364 CURVE SMOOTH",
"104 364 OFFCURVE",
"30 286 OFFCURVE",
"30 176 CURVE SMOOTH",
"30 47 OFFCURVE",
"120 -12 OFFCURVE",
"213 -12 CURVE SMOOTH"
);
},
{
closed = 1;
nodes = (
"153 63 OFFCURVE",
"115 108 OFFCURVE",
"115 174 CURVE SMOOTH",
"115 257 OFFCURVE",
"167 289 OFFCURVE",
"218 289 CURVE SMOOTH",
"257 289 OFFCURVE",
"296 271 OFFCURVE",
"322 246 CURVE",
"322 225 LINE SMOOTH",
"322 140 OFFCURVE",
"300 63 OFFCURVE",
"213 63 CURVE SMOOTH"
);
}
);
width = 608;
}
);
unicode = 111A7;
category = Letter;
},
{
glyphname = Bha;
lastChange = "2019-02-27 14:35:13 +0000";
layers = (
{
layerId = UUID0;
paths = (
{
closed = 1;
nodes = (
"520 -12 OFFCURVE",
"601 89 OFFCURVE",
"601 199 CURVE SMOOTH",
"601 325 OFFCURVE",
"501 404 OFFCURVE",
"354 404 CURVE SMOOTH",
"334 404 OFFCURVE",
"307 402 OFFCURVE",
"286 399 CURVE",
"286 550 LINE",
"586 550 LINE",
"586 625 LINE",
"24 625 LINE",
"24 550 LINE",
"201 550 LINE",
"201 380 LINE",
"149 366 OFFCURVE",
"86 323 OFFCURVE",
"86 294 CURVE SMOOTH",
"86 251 OFFCURVE",
"177 198 OFFCURVE",
"231 198 CURVE SMOOTH",
"276 198 OFFCURVE",
"286 239 OFFCURVE",
"286 274 CURVE SMOOTH",
"286 323 LINE",
"308 327 OFFCURVE",
"334 329 OFFCURVE",
"359 329 CURVE SMOOTH",
"445 329 OFFCURVE",
"516 291 OFFCURVE",
"516 199 CURVE SMOOTH",
"516 125 OFFCURVE",
"462 63 OFFCURVE",
"381 63 CURVE SMOOTH",
"319 63 OFFCURVE",
"274 82 OFFCURVE",
"234 122 CURVE",
"188 67 LINE",
"238 14 OFFCURVE",
"300 -12 OFFCURVE",
"388 -12 CURVE SMOOTH"
);
}
);
width = 631;
}
);
unicode = 111A8;
category = Letter;
},
{
glyphname = Ma;
lastChange = "2019-02-27 14:35:13 +0000";
layers = (
{
layerId = UUID0;
paths = (
{
closed = 1;
nodes = (
"581 0 LINE",
"581 550 LINE",
"640 550 LINE",
"640 625 LINE",
"496 625 LINE",
"496 317 LINE",
"255 317 LINE",
"259 348 OFFCURVE",
"261 378 OFFCURVE",
"261 399 CURVE SMOOTH",
"261 487 OFFCURVE",
"234 625 OFFCURVE",
"74 625 CURVE SMOOTH",
"38 625 LINE",
"38 550 LINE",
"61 550 LINE SMOOTH",
"163 550 OFFCURVE",
"176 474 OFFCURVE",
"176 405 CURVE SMOOTH",
"176 373 OFFCURVE",
"170 335 OFFCURVE",
"159 313 CURVE",
"106 302 OFFCURVE",
"30 285 OFFCURVE",
"30 251 CURVE SMOOTH",
"30 203 OFFCURVE",
"139 126 OFFCURVE",
"173 126 CURVE SMOOTH",
"204 126 OFFCURVE",
"227 179 OFFCURVE",
"241 242 CURVE",
"496 242 LINE",
"496 0 LINE"
);
}
);
width = 664;
}
);
unicode = 111A9;
category = Letter;
},
{
glyphname = Ya;
lastChange = "2019-02-27 14:35:13 +0000";
layers = (
{
layerId = UUID0;
paths = (
{
closed = 1;
nodes = (
"542 0 LINE",
"542 550 LINE",
"595 550 LINE",
"595 625 LINE",
"24 625 LINE",
"24 550 LINE",
"67 550 LINE",
"84 487 OFFCURVE",
"136 438 OFFCURVE",
"182 402 CURVE",
"114 377 OFFCURVE",
"62 322 OFFCURVE",
"62 252 CURVE SMOOTH",
"62 178 OFFCURVE",
"123 100 OFFCURVE",
"268 100 CURVE SMOOTH",
"338 100 OFFCURVE",
"415 126 OFFCURVE",
"457 168 CURVE",
"457 0 LINE"
);
},
{
closed = 1;
nodes = (
"186 175 OFFCURVE",
"147 206 OFFCURVE",
"147 260 CURVE SMOOTH",
"147 318 OFFCURVE",
"216 356 OFFCURVE",
"290 358 CURVE",
"290 420 LINE",
"230 445 OFFCURVE",
"171 500 OFFCURVE",
"160 550 CURVE",
"457 550 LINE",
"457 252 LINE",
"399 194 OFFCURVE",
"330 175 OFFCURVE",
"263 175 CURVE SMOOTH"
);
}
);
width = 619;
}
);
unicode = 111AA;
category = Letter;
},
{
glyphname = Ra;
lastChange = "2019-02-27 14:35:13 +0000";
layers = (
{
layerId = UUID0;
paths = (
{
closed = 1;
nodes = (
"228 -12 OFFCURVE",
"238 29 OFFCURVE",
"238 64 CURVE SMOOTH",
"238 550 LINE",
"405 550 LINE",
"405 625 LINE",
"24 625 LINE",
"24 550 LINE",
"153 550 LINE",
"153 193 LINE",
"111 184 OFFCURVE",
"36 167 OFFCURVE",
"36 123 CURVE SMOOTH",
"36 75 OFFCURVE",
"160 -12 OFFCURVE",
"194 -12 CURVE SMOOTH"
);
}
);
width = 420;
}
);
unicode = 111AB;
category = Letter;
},
{
glyphname = La;
lastChange = "2019-02-27 14:35:13 +0000";
layers = (
{
layerId = UUID0;
paths = (
{
closed = 1;
nodes = (
"283 36 LINE",
"181 120 OFFCURVE",
"115 188 OFFCURVE",
"115 281 CURVE SMOOTH",
"115 344 OFFCURVE",
"159 376 OFFCURVE",
"209 376 CURVE SMOOTH",
"264 376 OFFCURVE",
"289 342 OFFCURVE",
"289 300 CURVE SMOOTH",
"289 290 LINE",
"364 290 LINE",
"364 295 LINE SMOOTH",
"364 336 OFFCURVE",
"402 376 OFFCURVE",
"458 376 CURVE SMOOTH",
"504 376 OFFCURVE",
"532 353 OFFCURVE",
"549 329 CURVE",
"549 0 LINE",
"634 0 LINE",
"634 550 LINE",
"692 550 LINE",
"692 625 LINE",
"65 625 LINE",
"65 550 LINE",
"549 550 LINE",
"549 420 LINE",
"525 439 OFFCURVE",
"495 449 OFFCURVE",
"458 449 CURVE SMOOTH",
"401 449 OFFCURVE",
"355 426 OFFCURVE",
"330 386 CURVE",
"307 428 OFFCURVE",
"261 449 OFFCURVE",
"204 449 CURVE SMOOTH",
"98 449 OFFCURVE",
"30 380 OFFCURVE",
"30 274 CURVE",
"30 145 OFFCURVE",
"132 61 OFFCURVE",
"232 -17 CURVE"
);
}
);
width = 716;
}
);
unicode = 111AC;
category = Letter;
},
{
glyphname = Lla;
lastChange = "2019-02-27 14:35:13 +0000";
layers = (
{
layerId = UUID0;
paths = (
{
closed = 1;
nodes = (
"378 52 OFFCURVE",
"434 145 OFFCURVE",
"434 237 CURVE SMOOTH",
"434 329 OFFCURVE",
"346 402 OFFCURVE",
"230 404 CURVE",
"230 550 LINE",
"318 550 LINE",
"318 544 LINE SMOOTH",
"318 465 OFFCURVE",
"378 416 OFFCURVE",
"453 416 CURVE SMOOTH",
"524 416 OFFCURVE",
"586 465 OFFCURVE",
"586 553 CURVE SMOOTH",
"586 625 LINE",
"58 625 LINE",
"58 550 LINE",
"145 550 LINE",
"145 399 LINE",
"103 390 OFFCURVE",
"30 364 OFFCURVE",
"30 320 CURVE SMOOTH",
"30 272 OFFCURVE",
"121 212 OFFCURVE",
"175 212 CURVE SMOOTH",
"220 212 OFFCURVE",
"230 253 OFFCURVE",
"230 288 CURVE SMOOTH",
"230 329 LINE",
"293 326 OFFCURVE",
"349 289 OFFCURVE",
"349 228 CURVE SMOOTH",
"349 166 OFFCURVE",
"294 104 OFFCURVE",
"111 49 CURVE",
"143 -18 LINE"
);
},
{
closed = 1;
nodes = (
"420 481 OFFCURVE",
"390 504 OFFCURVE",
"390 544 CURVE SMOOTH",
"390 550 LINE",
"514 550 LINE",
"514 544 LINE SMOOTH",
"514 504 OFFCURVE",
"488 481 OFFCURVE",
"452 481 CURVE SMOOTH"
);
}
);
width = 614;
}
);
unicode = 111AD;
category = Letter;
},
{
glyphname = Va;
lastChange = "2019-02-27 17:00:30 +0000";
layers = (
{
layerId = UUID0;
paths = (
{
closed = 1;
nodes = (
"445 0 LINE",
"445 550 LINE",
"511 550 LINE",
"511 625 LINE",
"24 625 LINE",
"24 550 LINE",
"360 550 LINE",
"360 419 LINE",
"329 444 OFFCURVE",
"285 464 OFFCURVE",
"224 464 CURVE SMOOTH",
"115 464 OFFCURVE",
"38 381 OFFCURVE",
"38 276 CURVE SMOOTH",
"38 158 OFFCURVE",
"120 88 OFFCURVE",
"224 88 CURVE SMOOTH",
"285 88 OFFCURVE",
"326 110 OFFCURVE",
"360 144 CURVE",
"360 0 LINE"
);
},
{
closed = 1;
nodes = (
"178 163 OFFCURVE",
"123 197 OFFCURVE",
"123 274 CURVE SMOOTH",
"123 347 OFFCURVE",
"162 389 OFFCURVE",
"232 389 CURVE SMOOTH",
"278 389 OFFCURVE",
"326 365 OFFCURVE",
"360 329 CURVE",
"360 289 LINE",
"357 215 OFFCURVE",
"306 163 OFFCURVE",
"238 163 CURVE SMOOTH"
);
}
);
width = 535;
}
);
unicode = 111AE;
category = Letter;
},
{
glyphname = Sha;
lastChange = "2019-02-27 14:35:13 +0000";
layers = (
{
layerId = UUID0;
paths = (
{
closed = 1;
nodes = (
"597 0 LINE",
"597 550 LINE",
"676 550 LINE",
"676 625 LINE",
"24 625 LINE",
"24 550 LINE",
"168 550 LINE",
"168 321 LINE",
"126 312 OFFCURVE",
"51 295 OFFCURVE",
"51 251 CURVE SMOOTH",
"51 203 OFFCURVE",
"175 116 OFFCURVE",
"209 116 CURVE SMOOTH",
"243 116 OFFCURVE",
"253 157 OFFCURVE",
"253 192 CURVE SMOOTH",
"253 242 LINE",
"512 242 LINE",
"512 0 LINE"
);
},
{
closed = 1;
nodes = (
"253 550 LINE",
"512 550 LINE",
"512 317 LINE",
"253 317 LINE"
);
}
);
width = 700;
}
);
unicode = 111AF;
category = Letter;
},
{
glyphname = Ssa;
lastChange = "2019-02-27 14:35:13 +0000";
layers = (
{
layerId = UUID0;
paths = (
{
closed = 1;
nodes = (
"557 0 LINE",
"557 550 LINE",
"650 550 LINE",
"650 625 LINE",
"472 625 LINE",
"472 283 LINE",
"181 514 LINE",
"181 625 LINE",
"24 625 LINE",
"24 550 LINE",
"96 550 LINE",
"96 276 LINE SMOOTH",
"96 152 OFFCURVE",
"169 100 OFFCURVE",
"288 100 CURVE SMOOTH",
"372 100 OFFCURVE",
"434 129 OFFCURVE",
"472 162 CURVE",
"472 0 LINE"
);
},
{
closed = 1;
nodes = (
"216 173 OFFCURVE",
"181 198 OFFCURVE",
"181 279 CURVE SMOOTH",
"181 421 LINE",
"435 220 LINE",
"400 193 OFFCURVE",
"348 173 OFFCURVE",
"292 173 CURVE SMOOTH"
);
}
);
width = 674;
}
);
unicode = 111B0;
category = Letter;
},
{
glyphname = Sa;
lastChange = "2019-02-27 14:35:13 +0000";
layers = (
{
layerId = UUID0;
paths = (
{
closed = 1;
nodes = (
"617 0 LINE",
"617 550 LINE",
"676 550 LINE",
"676 625 LINE",
"532 625 LINE",
"532 317 LINE",
"253 317 LINE",
"253 625 LINE",
"24 625 LINE",
"24 550 LINE",
"168 550 LINE",
"168 321 LINE",
"126 312 OFFCURVE",
"51 295 OFFCURVE",
"51 251 CURVE SMOOTH",
"51 203 OFFCURVE",
"175 116 OFFCURVE",
"209 116 CURVE SMOOTH",
"243 116 OFFCURVE",
"253 157 OFFCURVE",
"253 192 CURVE SMOOTH",
"253 242 LINE",
"532 242 LINE",
"532 0 LINE"
);
}
);
width = 700;
}
);
unicode = 111B1;
category = Letter;
},
{
glyphname = Ha;
lastChange = "2019-02-27 14:35:13 +0000";
layers = (
{
layerId = UUID0;
paths = (
{
closed = 1;
nodes = (
"450 -3 OFFCURVE",
"507 74 OFFCURVE",
"507 145 CURVE SMOOTH",
"507 242 OFFCURVE",
"439 295 OFFCURVE",
"355 295 CURVE SMOOTH",
"297 295 OFFCURVE",
"247 264 OFFCURVE",
"220 206 CURVE",
"165 225 OFFCURVE",
"139 273 OFFCURVE",
"139 353 CURVE SMOOTH",
"139 423 OFFCURVE",
"173 511 OFFCURVE",
"238 550 CURVE",
"465 550 LINE",
"465 625 LINE",
"24 625 LINE",
"24 550 LINE",
"150 550 LINE",
"88 500 OFFCURVE",
"54 423 OFFCURVE",
"54 349 CURVE SMOOTH",
"54 240 OFFCURVE",
"105 133 OFFCURVE",
"264 127 CURVE",
"276 186 OFFCURVE",
"308 220 OFFCURVE",
"357 220 CURVE SMOOTH",
"399 220 OFFCURVE",
"426 191 OFFCURVE",
"426 144 CURVE SMOOTH",
"426 95 OFFCURVE",
"391 64 OFFCURVE",
"345 54 CURVE",
"367 -12 LINE"
);
}
);
width = 537;
}
);
unicode = 111B2;
category = Letter;
},
{
glyphname = AA;
production = AA;
lastChange = "2019-02-27 14:35:13 +0000";
layers = (
{
layerId = UUID0;
paths = (
{
closed = 1;
nodes = (
"144 340 LINE",
"144 550 LINE",
"207 550 LINE",
"207 625 LINE",
"-70 625 LINE",
"-70 550 LINE",
"59 550 LINE",
"59 340 LINE"
);
}
);
width = 231;
}
);
unicode = 111B3;
},
{
glyphname = I;
lastChange = "2019-02-27 17:02:16 +0000";
layers = (
{
layerId = UUID0;
paths = (
{
closed = 1;
nodes = (
"169 0 LINE",
"169 550 LINE",
"296 550 LINE",
"296 625 LINE",
"169 625 LINE",
"169 688 LINE SMOOTH",
"169 753 OFFCURVE",
"208 805 OFFCURVE",
"280 805 CURVE SMOOTH",
"392 805 OFFCURVE",
"471 720 OFFCURVE",
"543 593 CURVE",
"625 593 LINE",
"532 780 OFFCURVE",
"415 880 OFFCURVE",
"278 880 CURVE SMOOTH",
"142 880 OFFCURVE",
"84 781 OFFCURVE",
"84 690 CURVE SMOOTH",
"84 625 LINE",
"24 625 LINE",
"24 550 LINE",
"84 550 LINE",
"84 0 LINE"
);
},
{
closed = 0;
nodes = (
"170 550 LINE"
);
}
);
width = 224;
}
);
unicode = 111B4;
},
{
glyphname = II;
lastChange = "2019-02-27 14:35:13 +0000";
layers = (
{
layerId = UUID0;
paths = (
{
closed = 1;
nodes = (
"170 0 LINE",
"170 550 LINE",
"230 550 LINE",
"230 625 LINE",
"164 625 LINE",
"88 770 OFFCURVE",
"13 880 OFFCURVE",
"-101 880 CURVE SMOOTH",
"-225 880 OFFCURVE",
"-290 710 OFFCURVE",
"-313 598 CURVE",
"-237 583 LINE",
"-212 687 OFFCURVE",
"-174 805 OFFCURVE",
"-95 805 CURVE SMOOTH",
"-32 805 OFFCURVE",
"19 729 OFFCURVE",
"75 625 CURVE",
"-82 625 LINE",
"-82 550 LINE",
"85 550 LINE",
"85 0 LINE"
);
}
);
width = 254;
}
);
unicode = 111B5;
category = Letter;
},
{
glyphname = U;
lastChange = "2019-02-27 14:35:13 +0000";
layers = (
{
layerId = UUID0;
paths = (
{
closed = 1;
nodes = (
"-9 -219 OFFCURVE",
"0 -182 OFFCURVE",
"0 -151 CURVE SMOOTH",
"0 27 LINE",
"-85 27 LINE",
"-85 -49 LINE",
"-127 -58 OFFCURVE",
"-169 -88 OFFCURVE",
"-169 -119 CURVE SMOOTH",
"-169 -162 OFFCURVE",
"-72 -219 OFFCURVE",
"-41 -219 CURVE SMOOTH"
);
}
);
width = 0;
}
);
unicode = 111B6;
category = Mark;
},
{
glyphname = UU;
lastChange = "2019-02-27 14:35:13 +0000";
layers = (
{
layerId = UUID0;
paths = (
{
closed = 1;
nodes = (
"0 -190 LINE",
"0 27 LINE",
"-85 27 LINE",
"-85 -123 LINE",
"-303 -123 LINE",
"-303 -190 LINE"
);
}
);
width = 0;
}
);
unicode = 111B7;
category = Mark;
},
{
glyphname = vocR;
lastChange = "2019-02-27 14:35:13 +0000";
layers = (
{
layerId = UUID0;
paths = (
{
closed = 1;
nodes = (
"169 -230 OFFCURVE",
"204 -152 OFFCURVE",
"204 -73 CURVE SMOOTH",
"204 -59 LINE",
"129 -59 LINE",
"129 -86 LINE SMOOTH",
"129 -139 OFFCURVE",
"106 -165 OFFCURVE",
"65 -165 CURVE SMOOTH",
"23 -165 OFFCURVE",
"0 -128 OFFCURVE",
"0 -70 CURVE SMOOTH",
"0 27 LINE",
"-85 27 LINE",
"-85 -73 LINE SMOOTH",
"-85 -171 OFFCURVE",
"-21 -230 OFFCURVE",
"64 -230 CURVE SMOOTH"
);
}
);
width = 0;
}
);
unicode = 111B8;
category = Mark;
},
{
glyphname = vocRR;
lastChange = "2019-02-27 14:35:13 +0000";
layers = (
{
layerId = UUID0;
paths = (
{
closed = 1;
nodes = (
"83 -230 OFFCURVE",
"114 -203 OFFCURVE",
"129 -174 CURVE",
"145 -205 OFFCURVE",
"175 -230 OFFCURVE",
"219 -230 CURVE SMOOTH",
"297 -230 OFFCURVE",
"334 -162 OFFCURVE",
"334 -73 CURVE SMOOTH",
"334 -35 LINE",
"259 -35 LINE",
"259 -83 LINE SMOOTH",
"259 -147 OFFCURVE",
"237 -165 OFFCURVE",
"212 -165 CURVE SMOOTH",
"184 -165 OFFCURVE",
"167 -149 OFFCURVE",
"167 -89 CURVE SMOOTH",
"167 -35 LINE",
"92 -35 LINE",
"92 -89 LINE SMOOTH",
"92 -147 OFFCURVE",
"71 -165 OFFCURVE",
"44 -165 CURVE SMOOTH",
"16 -165 OFFCURVE",
"0 -141 OFFCURVE",
"0 -83 CURVE SMOOTH",
"0 27 LINE",
"-85 27 LINE",
"-85 -73 LINE SMOOTH",
"-85 -161 OFFCURVE",
"-47 -230 OFFCURVE",
"35 -230 CURVE SMOOTH"
);
}
);
width = 0;
}
);
unicode = 111B9;
category = Mark;
},
{
glyphname = vocL;
lastChange = "2019-02-27 14:35:13 +0000";
layers = (
{
layerId = UUID0;
paths = (
{
closed = 1;
nodes = (
"117 -359 OFFCURVE",
"158 -342 OFFCURVE",
"183 -321 CURVE",
"150 -277 LINE",
"127 -294 OFFCURVE",
"104 -304 OFFCURVE",
"77 -304 CURVE SMOOTH",
"54 -304 OFFCURVE",
"39 -296 OFFCURVE",
"39 -276 CURVE SMOOTH",
"39 -258 OFFCURVE",
"58 -246 OFFCURVE",
"85 -229 CURVE SMOOTH",
"119 -208 OFFCURVE",
"151 -183 OFFCURVE",
"151 -144 CURVE SMOOTH",
"151 -111 OFFCURVE",
"129 -86 OFFCURVE",
"100 -74 CURVE",
"100 -48 LINE",
"200 -48 LINE",
"200 18 LINE",
"-201 18 LINE",
"-201 -48 LINE",
"-150 -48 LINE",
"-150 -351 LINE",
"-76 -351 LINE",
"-76 -48 LINE",
"35 -48 LINE",
"35 -72 LINE",
"5 -78 OFFCURVE",
"-18 -91 OFFCURVE",
"-33 -103 CURVE",
"1 -145 LINE",
"14 -134 OFFCURVE",
"36 -122 OFFCURVE",
"55 -122 CURVE SMOOTH",
"77 -122 OFFCURVE",
"85 -136 OFFCURVE",
"85 -147 CURVE SMOOTH",
"85 -165 OFFCURVE",
"65 -178 OFFCURVE",
"33 -196 CURVE SMOOTH",
"-6 -218 OFFCURVE",
"-28 -246 OFFCURVE",
"-28 -278 CURVE SMOOTH",
"-28 -333 OFFCURVE",
"17 -359 OFFCURVE",
"74 -359 CURVE SMOOTH"
);
}
);
width = 0;
}
);
unicode = 111BA;
category = Mark;
},
{
glyphname = vocLL;
lastChange = "2019-02-27 14:35:13 +0000";
layers = (
{
layerId = UUID0;
paths = (
{
closed = 1;
nodes = (
"97 -360 OFFCURVE",
"138 -343 OFFCURVE",
"162 -322 CURVE",
"128 -278 LINE",
"107 -295 OFFCURVE",
"84 -305 OFFCURVE",
"58 -305 CURVE SMOOTH",
"35 -305 OFFCURVE",
"20 -298 OFFCURVE",
"20 -283 CURVE SMOOTH",
"20 -264 OFFCURVE",
"39 -251 OFFCURVE",
"68 -233 CURVE SMOOTH",
"100 -213 OFFCURVE",
"132 -188 OFFCURVE",
"132 -151 CURVE SMOOTH",
"132 -122 OFFCURVE",
"107 -98 OFFCURVE",
"74 -88 CURVE",
"74 -49 LINE",
"110 -49 LINE",
"112 -108 OFFCURVE",
"156 -144 OFFCURVE",
"208 -144 CURVE SMOOTH",
"263 -144 OFFCURVE",
"309 -105 OFFCURVE",
"309 -38 CURVE SMOOTH",
"309 17 LINE",
"-201 17 LINE",
"-201 -49 LINE",
"-150 -49 LINE",
"-150 -352 LINE",
"-76 -352 LINE",
"-76 -49 LINE",
"9 -49 LINE",
"9 -86 LINE",
"-20 -92 OFFCURVE",
"-40 -106 OFFCURVE",
"-54 -119 CURVE",
"-20 -161 LINE",
"-8 -149 OFFCURVE",
"12 -136 OFFCURVE",
"35 -136 CURVE SMOOTH",
"55 -136 OFFCURVE",
"66 -141 OFFCURVE",
"66 -152 CURVE SMOOTH",
"66 -167 OFFCURVE",
"46 -180 OFFCURVE",
"15 -199 CURVE SMOOTH",
"-25 -224 OFFCURVE",
"-47 -252 OFFCURVE",
"-47 -285 CURVE SMOOTH",
"-47 -336 OFFCURVE",
"-2 -360 OFFCURVE",
"55 -360 CURVE SMOOTH"
);
},
{
closed = 1;
nodes = (
"190 -87 OFFCURVE",
"174 -73 OFFCURVE",
"172 -49 CURVE",
"247 -49 LINE",
"245 -73 OFFCURVE",
"230 -87 OFFCURVE",
"210 -87 CURVE SMOOTH"
);
}
);
width = 0;
}
);
unicode = 111BB;
category = Mark;
},
{
glyphname = E;
lastChange = "2019-02-27 14:35:13 +0000";
layers = (
{
layerId = UUID0;
paths = (
{
closed = 1;
nodes = (
"182 710 LINE",
"182 769 LINE",
"-182 769 LINE",
"-182 710 LINE"
);
}
);
width = 0;
}
);
unicode = 111BC;
category = Mark;
},
{
glyphname = AI;
lastChange = "2019-02-27 14:35:13 +0000";
layers = (
{
layerId = UUID0;
paths = (
{
closed = 1;
nodes = (
"182 815 LINE",
"182 874 LINE",
"-182 874 LINE",
"-182 815 LINE"
);
},
{
closed = 1;
nodes = (
"182 710 LINE",
"182 769 LINE",
"-182 769 LINE",
"-182 710 LINE"
);
}
);
width = 0;
}
);
unicode = 111BD;
category = Mark;
},
{
glyphname = O;
lastChange = "2019-02-27 14:35:13 +0000";
layers = (
{
layerId = UUID0;
paths = (
{
closed = 1;
nodes = (
"0 674 LINE",
"-42 783 OFFCURVE",
"-100 845 OFFCURVE",
"-176 845 CURVE SMOOTH",
"-220 845 OFFCURVE",
"-245 818 OFFCURVE",
"-271 789 CURVE SMOOTH",
"-294 763 OFFCURVE",
"-307 749 OFFCURVE",
"-330 749 CURVE SMOOTH",
"-356 749 OFFCURVE",
"-374 771 OFFCURVE",
"-391 792 CURVE SMOOTH",
"-415 821 OFFCURVE",
"-445 845 OFFCURVE",
"-491 845 CURVE SMOOTH",
"-564 845 OFFCURVE",
"-607 779 OFFCURVE",
"-629 719 CURVE",
"-571 691 LINE",
"-551 742 OFFCURVE",
"-528 780 OFFCURVE",
"-493 780 CURVE SMOOTH",
"-467 780 OFFCURVE",
"-450 761 OFFCURVE",
"-430 737 CURVE SMOOTH",
"-407 709 OFFCURVE",
"-377 684 OFFCURVE",
"-330 684 CURVE SMOOTH",
"-284 684 OFFCURVE",
"-258 706 OFFCURVE",
"-228 740 CURVE SMOOTH",
"-208 763 OFFCURVE",
"-193 780 OFFCURVE",
"-170 780 CURVE SMOOTH",
"-136 780 OFFCURVE",
"-108 748 OFFCURVE",
"-78 674 CURVE"
);
}
);
width = 0;
}
);
unicode = 111BE;
category = Mark;
},
{
glyphname = AU;
lastChange = "2019-02-27 14:35:13 +0000";
layers = (
{
layerId = UUID0;
paths = (
{
closed = 1;
nodes = (
"170 400 LINE",
"170 550 LINE",
"230 550 LINE",
"230 625 LINE",
"163 625 LINE",
"113 781 OFFCURVE",
"50 845 OFFCURVE",
"-29 845 CURVE SMOOTH",
"-73 845 OFFCURVE",
"-98 818 OFFCURVE",
"-124 789 CURVE SMOOTH",
"-147 763 OFFCURVE",
"-160 749 OFFCURVE",
"-183 749 CURVE SMOOTH",
"-209 749 OFFCURVE",
"-227 771 OFFCURVE",
"-244 792 CURVE SMOOTH",
"-268 821 OFFCURVE",
"-298 845 OFFCURVE",
"-344 845 CURVE SMOOTH",
"-417 845 OFFCURVE",
"-460 779 OFFCURVE",
"-482 719 CURVE",
"-424 691 LINE",
"-404 742 OFFCURVE",
"-381 780 OFFCURVE",
"-346 780 CURVE SMOOTH",
"-320 780 OFFCURVE",
"-303 761 OFFCURVE",
"-283 737 CURVE SMOOTH",
"-260 709 OFFCURVE",
"-230 684 OFFCURVE",
"-183 684 CURVE SMOOTH",
"-137 684 OFFCURVE",
"-111 706 OFFCURVE",
"-81 740 CURVE SMOOTH",
"-61 763 OFFCURVE",
"-46 780 OFFCURVE",
"-23 780 CURVE SMOOTH",
"12 780 OFFCURVE",
"43 748 OFFCURVE",
"81 625 CURVE",
"-70 625 LINE",
"-70 550 LINE",
"85 550 LINE",
"85 400 LINE"
);
}
);
width = 270;
}
);
unicode = 111BF;
category = Letter;
},
{
glyphname = virama;
lastChange = "2019-02-27 14:35:13 +0000";
layers = (
{
layerId = UUID0;
paths = (
{
closed = 1;
nodes = (
"170 0 LINE",
"170 720 LINE",
"85 720 LINE",
"85 625 LINE",
"-70 625 LINE",
"-70 550 LINE",
"85 550 LINE",
"85 0 LINE"
);
}
);
width = 250;
}
);
unicode = 111C0;
category = Letter;
},
{
glyphname = Avagraha;
lastChange = "2019-02-27 14:35:13 +0000";
layers = (
{
layerId = UUID0;
paths = (
{
closed = 1;
nodes = (
"204 -195 OFFCURVE",
"258 -162 OFFCURVE",
"258 -95 CURVE SMOOTH",
"258 -52 OFFCURVE",
"230 -16 OFFCURVE",
"181 17 CURVE SMOOTH",
"146 40 OFFCURVE",
"122 56 OFFCURVE",
"122 81 CURVE SMOOTH",
"122 95 OFFCURVE",
"133 114 OFFCURVE",
"163 114 CURVE SMOOTH",
"185 114 OFFCURVE",
"210 100 OFFCURVE",
"225 87 CURVE",
"264 137 LINE",
"241 158 OFFCURVE",
"203 179 OFFCURVE",
"149 179 CURVE SMOOTH",
"96 179 OFFCURVE",
"46 140 OFFCURVE",
"46 84 CURVE SMOOTH",
"46 34 OFFCURVE",
"82 0 OFFCURVE",
"120 -25 CURVE SMOOTH",
"157 -50 OFFCURVE",
"181 -67 OFFCURVE",
"181 -92 CURVE SMOOTH",
"181 -117 OFFCURVE",
"162 -129 OFFCURVE",
"133 -129 CURVE SMOOTH",
"100 -129 OFFCURVE",
"71 -116 OFFCURVE",
"44 -95 CURVE",
"5 -148 LINE",
"35 -174 OFFCURVE",
"85 -195 OFFCURVE",
"137 -195 CURVE SMOOTH"
);
}
);
width = 263;
}
);
unicode = 111C1;
category = Letter;
},
{
glyphname = Jihvamuliya;
lastChange = "2019-02-27 14:35:13 +0000";
layers = (
{
layerId = UUID0;
paths = (
{
closed = 1;
nodes = (
"400 615 LINE",
"400 839 LINE",
"435 839 LINE",
"435 897 LINE",
"153 897 LINE",
"153 839 LINE",
"333 839 LINE",
"333 828 LINE",
"270 816 LINE SMOOTH",
"183 799 OFFCURVE",
"136 767 OFFCURVE",
"136 724 CURVE SMOOTH",
"136 666 OFFCURVE",
"217 631 OFFCURVE",
"354 615 CURVE"
);
},
{
closed = 1;
nodes = (
"278 684 OFFCURVE",
"214 700 OFFCURVE",
"214 725 CURVE SMOOTH",
"214 747 OFFCURVE",
"267 764 OFFCURVE",
"333 774 CURVE",
"333 678 LINE"
);
}
);
width = 571;
}
);
unicode = 111C2;
category = Letter;
},
{
glyphname = Upadhmaniya;
lastChange = "2019-02-27 14:35:13 +0000";
layers = (
{
layerId = UUID0;
paths = (
{
closed = 1;
nodes = (
"584 710 LINE",
"584 749 LINE SMOOTH",
"584 848 OFFCURVE",
"531 920 OFFCURVE",
"460 920 CURVE SMOOTH",
"424 920 OFFCURVE",
"401 907 OFFCURVE",
"383 891 CURVE SMOOTH",
"368 878 OFFCURVE",
"356 869 OFFCURVE",
"340 869 CURVE SMOOTH",
"325 869 OFFCURVE",
"312 878 OFFCURVE",
"297 890 CURVE SMOOTH",
"278 905 OFFCURVE",
"254 920 OFFCURVE",
"216 920 CURVE SMOOTH",
"144 920 OFFCURVE",
"92 848 OFFCURVE",
"92 756 CURVE SMOOTH",
"92 710 LINE"
);
},
{
closed = 1;
nodes = (
"164 827 OFFCURVE",
"188 854 OFFCURVE",
"218 854 CURVE SMOOTH",
"245 854 OFFCURVE",
"262 842 OFFCURVE",
"278 830 CURVE SMOOTH",
"296 817 OFFCURVE",
"318 807 OFFCURVE",
"343 807 CURVE SMOOTH",
"368 807 OFFCURVE",
"389 818 OFFCURVE",
"405 831 CURVE SMOOTH",
"419 843 OFFCURVE",
"434 854 OFFCURVE",
"458 854 CURVE SMOOTH",
"487 854 OFFCURVE",
"511 835 OFFCURVE",
"517 769 CURVE",
"159 769 LINE"
);
}
);
width = 676;
}
);
unicode = 111C3;
category = Letter;
},
{
glyphname = Danda;
lastChange = "2019-02-27 14:35:13 +0000";
layers = (
{
layerId = UUID0;
paths = (
{
closed = 1;
nodes = (
"205 625 LINE",
"120 645 LINE",
"120 0 LINE",
"205 -20 LINE"
);
}
);
width = 325;
}
);
unicode = 111C5;
category = Letter;
},
{
glyphname = DoubleDanda;
lastChange = "2019-02-27 14:35:13 +0000";
layers = (
{
layerId = UUID0;
paths = (
{
closed = 1;
nodes = (
"365 625 LINE",
"280 645 LINE",
"280 0 LINE",
"365 -20 LINE"
);
},
{
closed = 1;
nodes = (
"205 625 LINE",
"120 645 LINE",
"120 0 LINE",
"205 -20 LINE"
);
}
);
width = 485;
}
);
unicode = 111C6;
category = Letter;
},
{
glyphname = Abbreviation;
lastChange = "2019-02-27 16:01:19 +0000";
layers = (
{
layerId = UUID0;
paths = (
{
closed = 1;
nodes = (
"235 236 OFFCURVE",
"274 275 OFFCURVE",
"274 326 CURVE SMOOTH",
"274 376 OFFCURVE",
"235 417 OFFCURVE",
"188 417 CURVE SMOOTH",
"141 417 OFFCURVE",
"100 376 OFFCURVE",
"100 326 CURVE SMOOTH",
"100 275 OFFCURVE",
"141 236 OFFCURVE",
"188 236 CURVE SMOOTH"
);
}
);
width = 374;
}
);
unicode = 111C7;
category = Letter;
},
{
glyphname = Separator;
lastChange = "2019-02-27 14:35:13 +0000";
layers = (
{
layerId = UUID0;
paths = (
{
closed = 1;
nodes = (
"98 -290 LINE",
"98 -50 LINE",
"20 -50 LINE",
"20 -290 LINE"
);
}
);
width = 125;
}
);
unicode = 111C8;
category = Letter;
},
{
glyphname = SandhiMark;
lastChange = "2019-02-27 14:35:13 +0000";
layers = (
{
layerId = UUID0;
paths = (
{
closed = 1;
nodes = (
"-43 -300 OFFCURVE",
"-10 -277 OFFCURVE",
"-10 -232 CURVE SMOOTH",
"-10 -194 OFFCURVE",
"-41 -170 OFFCURVE",
"-68 -154 CURVE SMOOTH",
"-94 -139 OFFCURVE",
"-109 -130 OFFCURVE",
"-109 -114 CURVE SMOOTH",
"-109 -104 OFFCURVE",
"-100 -96 OFFCURVE",
"-85 -96 CURVE SMOOTH",
"-73 -96 OFFCURVE",
"-57 -102 OFFCURVE",
"-42 -110 CURVE",
"-13 -69 LINE",
"-30 -56 OFFCURVE",
"-57 -43 OFFCURVE",
"-91 -43 CURVE SMOOTH",
"-134 -43 OFFCURVE",
"-171 -68 OFFCURVE",
"-171 -111 CURVE SMOOTH",
"-171 -148 OFFCURVE",
"-140 -172 OFFCURVE",
"-111 -190 CURVE SMOOTH",
"-90 -203 OFFCURVE",
"-71 -215 OFFCURVE",
"-71 -227 CURVE SMOOTH",
"-71 -238 OFFCURVE",
"-79 -247 OFFCURVE",
"-101 -247 CURVE SMOOTH",
"-127 -247 OFFCURVE",
"-154 -236 OFFCURVE",
"-173 -223 CURVE",
"-198 -268 LINE",
"-173 -289 OFFCURVE",
"-135 -300 OFFCURVE",
"-98 -300 CURVE SMOOTH"
);
}
);
width = 0;
}
);
unicode = 111C9;
category = Mark;
},
{
glyphname = Nukta;
lastChange = "2019-02-27 14:35:13 +0000";
layers = (
{
layerId = UUID0;
paths = (
{
closed = 1;
nodes = (
"284 -188 OFFCURVE",
"314 -158 OFFCURVE",
"314 -119 CURVE SMOOTH",
"314 -81 OFFCURVE",
"284 -50 OFFCURVE",
"248 -50 CURVE SMOOTH",
"212 -50 OFFCURVE",
"181 -81 OFFCURVE",
"181 -119 CURVE SMOOTH",
"181 -158 OFFCURVE",
"212 -188 OFFCURVE",
"248 -188 CURVE SMOOTH"
);
}
);
width = 0;
}
);
unicode = 111CA;
category = Mark;
},
{
glyphname = VowelModifier;
lastChange = "2019-02-27 14:35:13 +0000";
layers = (
{
layerId = UUID0;
paths = (
{
closed = 1;
nodes = (
"225 684 LINE",
"225 894 LINE",
"147 894 LINE",
"147 684 LINE"
);
}
);
width = 0;
}
);
unicode = 111CB;
category = Mark;
},
{
glyphname = ShortVowelMark;
lastChange = "2019-02-27 14:35:13 +0000";
layers = (
{
layerId = UUID0;
paths = (
{
closed = 1;
nodes = (
"203 -215 LINE",
"3 -37 LINE",
"-46 -87 LINE",
"154 -265 LINE"
);
}
);
width = 0;
}
);
unicode = 111CC;
category = Mark;
},
{
glyphname = SutraMark;
lastChange = "2019-02-27 14:35:13 +0000";
layers = (
{
layerId = UUID0;
paths = (
{
closed = 1;
nodes = (
"472 442 OFFCURVE",
"495 464 OFFCURVE",
"495 493 CURVE SMOOTH",
"495 522 OFFCURVE",
"472 545 OFFCURVE",
"443 545 CURVE SMOOTH",
"414 545 OFFCURVE",
"392 522 OFFCURVE",
"392 493 CURVE SMOOTH",
"392 464 OFFCURVE",
"414 442 OFFCURVE",
"443 442 CURVE SMOOTH"
);
},
{
closed = 1;
nodes = (
"230 339 LINE",
"230 388 LINE",
"80 388 LINE",
"80 339 LINE"
);
},
{
closed = 1;
nodes = (
"471 0 LINE",
"471 150 LINE",
"418 150 LINE",
"418 0 LINE"
);
},
{
closed = 1;
nodes = (
"359 229 OFFCURVE",
"372 242 OFFCURVE",
"372 259 CURVE SMOOTH",
"372 277 OFFCURVE",
"359 290 OFFCURVE",
"342 290 CURVE SMOOTH",
"324 290 OFFCURVE",
"311 277 OFFCURVE",
"311 259 CURVE SMOOTH",
"311 242 OFFCURVE",
"324 229 OFFCURVE",
"342 229 CURVE SMOOTH"
);
},
{
closed = 1;
nodes = (
"341 311 OFFCURVE",
"363 333 OFFCURVE",
"363 362 CURVE SMOOTH",
"363 391 OFFCURVE",
"341 414 OFFCURVE",
"312 414 CURVE SMOOTH",
"283 414 OFFCURVE",
"260 391 OFFCURVE",
"260 362 CURVE SMOOTH",
"260 333 OFFCURVE",
"283 311 OFFCURVE",
"312 311 CURVE SMOOTH"
);
},
{
closed = 1;
nodes = (
"472 180 OFFCURVE",
"495 203 OFFCURVE",
"495 232 CURVE SMOOTH",
"495 261 OFFCURVE",
"472 283 OFFCURVE",
"443 283 CURVE SMOOTH",
"414 283 OFFCURVE",
"392 261 OFFCURVE",
"392 232 CURVE SMOOTH",
"392 203 OFFCURVE",
"414 180 OFFCURVE",
"443 180 CURVE SMOOTH"
);
},
{
closed = 1;
nodes = (
"563 229 OFFCURVE",
"576 242 OFFCURVE",
"576 259 CURVE SMOOTH",
"576 277 OFFCURVE",
"563 290 OFFCURVE",
"546 290 CURVE SMOOTH",
"528 290 OFFCURVE",
"515 277 OFFCURVE",
"515 259 CURVE SMOOTH",
"515 242 OFFCURVE",
"528 229 OFFCURVE",
"546 229 CURVE SMOOTH"
);
},
{
closed = 1;
nodes = (
"472 311 OFFCURVE",
"495 333 OFFCURVE",
"495 362 CURVE SMOOTH",
"495 391 OFFCURVE",
"472 414 OFFCURVE",
"443 414 CURVE SMOOTH",
"414 414 OFFCURVE",
"392 391 OFFCURVE",
"392 362 CURVE SMOOTH",
"392 333 OFFCURVE",
"414 311 OFFCURVE",
"443 311 CURVE SMOOTH"
);
},
{
closed = 1;
nodes = (
"359 435 OFFCURVE",
"372 448 OFFCURVE",
"372 465 CURVE SMOOTH",
"372 483 OFFCURVE",
"359 496 OFFCURVE",
"342 496 CURVE SMOOTH",
"324 496 OFFCURVE",
"311 483 OFFCURVE",
"311 465 CURVE SMOOTH",
"311 448 OFFCURVE",
"324 435 OFFCURVE",
"342 435 CURVE SMOOTH"
);
},
{
closed = 1;
nodes = (
"602 311 OFFCURVE",
"625 333 OFFCURVE",
"625 362 CURVE SMOOTH",
"625 391 OFFCURVE",
"602 414 OFFCURVE",
"573 414 CURVE SMOOTH",
"544 414 OFFCURVE",
"522 391 OFFCURVE",
"522 362 CURVE SMOOTH",
"522 333 OFFCURVE",
"544 311 OFFCURVE",
"573 311 CURVE SMOOTH"
);
},
{
closed = 1;
nodes = (
"563 435 OFFCURVE",
"576 448 OFFCURVE",
"576 465 CURVE SMOOTH",
"576 483 OFFCURVE",
"563 496 OFFCURVE",
"546 496 CURVE SMOOTH",
"528 496 OFFCURVE",
"515 483 OFFCURVE",
"515 465 CURVE SMOOTH",
"515 448 OFFCURVE",
"528 435 OFFCURVE",
"546 435 CURVE SMOOTH"
);
},
{
closed = 1;
nodes = (
"805 339 LINE",
"805 388 LINE",
"655 388 LINE",
"655 339 LINE"
);
},
{
closed = 1;
nodes = (
"471 575 LINE",
"471 725 LINE",
"418 725 LINE",
"418 575 LINE"
);
}
);
width = 885;
}
);
unicode = 111CD;
category = Letter;
},
{
glyphname = Sh_Zero;
lastChange = "2019-02-27 14:35:13 +0000";
layers = (
{
layerId = UUID0;
paths = (
{
closed = 1;
nodes = (
"271 214 OFFCURVE",
"326 268 OFFCURVE",
"326 336 CURVE SMOOTH",
"326 404 OFFCURVE",
"271 459 OFFCURVE",
"203 459 CURVE SMOOTH",
"135 459 OFFCURVE",
"80 404 OFFCURVE",
"80 336 CURVE SMOOTH",
"80 268 OFFCURVE",
"135 214 OFFCURVE",
"203 214 CURVE SMOOTH"
);
}
);
width = 406;
}
);
unicode = 111D0;
category = Letter;
},
{
glyphname = Sh_One;
lastChange = "2019-02-27 14:35:13 +0000";
layers = (
{
layerId = UUID0;
paths = (
{
closed = 1;
nodes = (
"408 129 OFFCURVE",
"491 217 OFFCURVE",
"491 331 CURVE SMOOTH",
"491 441 OFFCURVE",
"407 535 OFFCURVE",
"285 535 CURVE SMOOTH",
"164 535 OFFCURVE",
"80 443 OFFCURVE",
"80 331 CURVE SMOOTH",
"80 221 OFFCURVE",
"170 129 OFFCURVE",
"285 129 CURVE SMOOTH"
);
},
{
closed = 1;
nodes = (
"214 202 OFFCURVE",
"164 259 OFFCURVE",
"164 331 CURVE SMOOTH",
"164 403 OFFCURVE",
"211 461 OFFCURVE",
"285 461 CURVE SMOOTH",
"355 461 OFFCURVE",
"406 398 OFFCURVE",
"406 331 CURVE SMOOTH",
"406 256 OFFCURVE",
"356 202 OFFCURVE",
"285 202 CURVE SMOOTH"
);
}
);
width = 571;
}
);
unicode = 111D1;
category = Letter;
},
{
glyphname = Sh_Two;
lastChange = "2019-02-27 14:35:13 +0000";
layers = (
{
layerId = UUID0;
paths = (
{
closed = 1;
nodes = (
"362 -12 OFFCURVE",
"433 80 OFFCURVE",
"433 181 CURVE SMOOTH",
"433 258 OFFCURVE",
"388 321 OFFCURVE",
"318 347 CURVE",
"357 375 OFFCURVE",
"384 417 OFFCURVE",
"384 477 CURVE SMOOTH",
"384 578 OFFCURVE",
"300 637 OFFCURVE",
"206 637 CURVE SMOOTH",
"103 637 OFFCURVE",
"29 572 OFFCURVE",
"29 482 CURVE SMOOTH",
"29 444 OFFCURVE",
"45 403 OFFCURVE",
"68 382 CURVE",
"131 414 LINE",
"119 436 OFFCURVE",
"112 461 OFFCURVE",
"112 480 CURVE SMOOTH",
"112 524 OFFCURVE",
"149 562 OFFCURVE",
"206 562 CURVE SMOOTH",
"252 562 OFFCURVE",
"296 529 OFFCURVE",
"296 475 CURVE SMOOTH",
"296 403 OFFCURVE",
"246 377 OFFCURVE",
"197 367 CURVE",
"186 367 OFFCURVE",
"175 366 OFFCURVE",
"166 365 CURVE",
"166 295 LINE",
"179 296 OFFCURVE",
"192 297 OFFCURVE",
"206 297 CURVE SMOOTH",
"299 297 OFFCURVE",
"345 246 OFFCURVE",
"345 185 CURVE SMOOTH",
"345 110 OFFCURVE",
"298 63 OFFCURVE",
"227 63 CURVE SMOOTH",
"167 63 OFFCURVE",
"119 85 OFFCURVE",
"63 138 CURVE",
"15 85 LINE",
"69 30 OFFCURVE",
"142 -12 OFFCURVE",
"233 -12 CURVE SMOOTH"
);
}
);
width = 483;
}
);
unicode = 111D2;
category = Letter;
},
{
glyphname = Sh_Three;
lastChange = "2019-02-27 14:35:13 +0000";
layers = (
{
layerId = UUID0;
paths = (
{
closed = 1;
nodes = (
"376 -12 OFFCURVE",
"447 80 OFFCURVE",
"447 181 CURVE SMOOTH",
"447 255 OFFCURVE",
"406 313 OFFCURVE",
"334 339 CURVE",
"365 363 OFFCURVE",
"378 396 OFFCURVE",
"378 434 CURVE SMOOTH",
"378 500 OFFCURVE",
"326 539 OFFCURVE",
"273 544 CURVE",
"288 566 OFFCURVE",
"298 588 OFFCURVE",
"298 618 CURVE SMOOTH",
"298 682 OFFCURVE",
"245 738 OFFCURVE",
"156 738 CURVE SMOOTH",
"69 738 OFFCURVE",
"20 676 OFFCURVE",
"20 616 CURVE SMOOTH",
"20 596 OFFCURVE",
"26 575 OFFCURVE",
"38 557 CURVE",
"103 593 LINE",
"97 603 OFFCURVE",
"95 614 OFFCURVE",
"95 624 CURVE SMOOTH",
"95 648 OFFCURVE",
"117 673 OFFCURVE",
"156 673 CURVE SMOOTH",
"201 673 OFFCURVE",
"220 643 OFFCURVE",
"220 610 CURVE SMOOTH",
"220 572 OFFCURVE",
"198 543 OFFCURVE",
"166 535 CURVE",
"183 479 LINE",
"188 481 OFFCURVE",
"219 486 OFFCURVE",
"225 486 CURVE SMOOTH",
"265 486 OFFCURVE",
"300 474 OFFCURVE",
"300 432 CURVE SMOOTH",
"300 380 OFFCURVE",
"266 366 OFFCURVE",
"220 358 CURVE",
"208 358 OFFCURVE",
"195 357 OFFCURVE",
"183 356 CURVE",
"183 285 LINE",
"203 287 OFFCURVE",
"210 287 OFFCURVE",
"220 287 CURVE SMOOTH",
"313 287 OFFCURVE",
"359 246 OFFCURVE",
"359 177 CURVE SMOOTH",
"359 110 OFFCURVE",
"312 63 OFFCURVE",
"241 63 CURVE SMOOTH",
"181 63 OFFCURVE",
"133 85 OFFCURVE",
"77 138 CURVE",
"29 85 LINE",
"83 30 OFFCURVE",
"156 -12 OFFCURVE",
"247 -12 CURVE SMOOTH"
);
}
);
width = 507;
}
);
unicode = 111D3;
category = Letter;
},
{
glyphname = Sh_Four;
lastChange = "2019-02-27 14:35:13 +0000";
layers = (
{
layerId = UUID0;
paths = (
{
closed = 1;
nodes = (
"210 202 OFFCURVE",
"220 243 OFFCURVE",
"220 278 CURVE SMOOTH",
"220 318 LINE",
"475 318 LINE",
"475 393 LINE",
"220 393 LINE",
"220 550 LINE",
"475 550 LINE",
"475 625 LINE",
"51 625 LINE",
"51 550 LINE",
"135 550 LINE",
"135 389 LINE",
"93 380 OFFCURVE",
"20 354 OFFCURVE",
"20 310 CURVE SMOOTH",
"20 262 OFFCURVE",
"111 202 OFFCURVE",
"165 202 CURVE SMOOTH"
);
}
);
width = 515;
}
);
unicode = 111D4;
category = Letter;
},
{
glyphname = Sh_Five;
lastChange = "2019-02-27 14:35:13 +0000";
layers = (
{
layerId = UUID0;
paths = (
{
closed = 1;
nodes = (
"428 0 LINE",
"428 625 LINE",
"343 625 LINE",
"343 435 LINE",
"338 364 OFFCURVE",
"311 284 OFFCURVE",
"224 284 CURVE SMOOTH",
"185 284 OFFCURVE",
"125 308 OFFCURVE",
"125 421 CURVE SMOOTH",
"125 625 LINE",
"40 625 LINE",
"40 418 LINE SMOOTH",
"40 283 OFFCURVE",
"101 211 OFFCURVE",
"219 211 CURVE SMOOTH",
"276 211 OFFCURVE",
"316 234 OFFCURVE",
"343 268 CURVE",
"343 0 LINE"
);
}
);
width = 488;
}
);
unicode = 111D5;
category = Letter;
},
{
glyphname = Sh_Six;
lastChange = "2019-02-27 14:35:13 +0000";
layers = (
{
layerId = UUID0;
paths = (
{
closed = 1;
nodes = (
"492 -15 OFFCURVE",
"567 84 OFFCURVE",
"567 178 CURVE SMOOTH",
"567 333 OFFCURVE",
"457 374 OFFCURVE",
"340 419 CURVE SMOOTH",
"204 471 OFFCURVE",
"127 521 OFFCURVE",
"88 647 CURVE",
"20 622 LINE",
"76 440 OFFCURVE",
"200 389 OFFCURVE",
"306 349 CURVE SMOOTH",
"402 313 OFFCURVE",
"482 283 OFFCURVE",
"482 186 CURVE SMOOTH",
"482 105 OFFCURVE",
"430 63 OFFCURVE",
"352 63 CURVE SMOOTH",
"267 63 OFFCURVE",
"213 97 OFFCURVE",
"213 176 CURVE SMOOTH",
"213 188 OFFCURVE",
"214 200 OFFCURVE",
"216 214 CURVE",
"145 228 LINE",
"141 208 OFFCURVE",
"139 189 OFFCURVE",
"139 172 CURVE SMOOTH",
"139 51 OFFCURVE",
"235 -15 OFFCURVE",
"350 -15 CURVE SMOOTH"
);
}
);
width = 627;
}
);
unicode = 111D6;
category = Letter;
},
{
glyphname = Sh_Seven;
lastChange = "2019-02-27 14:35:13 +0000";
layers = (
{
layerId = UUID0;
paths = (
{
closed = 1;
nodes = (
"396 0 LINE",
"396 382 LINE SMOOTH",
"396 557 OFFCURVE",
"327 637 OFFCURVE",
"201 637 CURVE SMOOTH",
"91 637 OFFCURVE",
"20 553 OFFCURVE",
"20 459 CURVE SMOOTH",
"20 389 OFFCURVE",
"54 329 OFFCURVE",
"108 297 CURVE",
"150 364 LINE",
"120 383 OFFCURVE",
"102 419 OFFCURVE",
"102 458 CURVE SMOOTH",
"102 523 OFFCURVE",
"146 560 OFFCURVE",
"202 560 CURVE SMOOTH",
"274 560 OFFCURVE",
"311 501 OFFCURVE",
"311 384 CURVE SMOOTH",
"311 0 LINE"
);
}
);
width = 456;
}
);
unicode = 111D7;
category = Letter;
},
{
glyphname = Sh_Eight;
lastChange = "2019-02-27 14:35:13 +0000";
layers = (
{
layerId = UUID0;
paths = (
{
closed = 1;
nodes = (
"362 -12 OFFCURVE",
"433 80 OFFCURVE",
"433 184 CURVE SMOOTH",
"433 269 OFFCURVE",
"386 333 OFFCURVE",
"304 355 CURVE",
"335 384 OFFCURVE",
"356 423 OFFCURVE",
"356 469 CURVE SMOOTH",
"356 502 OFFCURVE",
"344 529 OFFCURVE",
"326 550 CURVE",
"372 550 LINE",
"372 625 LINE",
"72 625 LINE",
"72 550 LINE",
"178 550 LINE SMOOTH",
"248 550 OFFCURVE",
"271 517 OFFCURVE",
"271 465 CURVE SMOOTH",
"271 403 OFFCURVE",
"228 368 OFFCURVE",
"156 362 CURVE",
"156 293 LINE",
"174 296 OFFCURVE",
"192 297 OFFCURVE",
"212 297 CURVE SMOOTH",
"305 297 OFFCURVE",
"345 246 OFFCURVE",
"345 184 CURVE SMOOTH",
"345 110 OFFCURVE",
"298 63 OFFCURVE",
"227 63 CURVE SMOOTH",
"167 63 OFFCURVE",
"119 85 OFFCURVE",
"63 138 CURVE",
"15 85 LINE",
"69 30 OFFCURVE",
"142 -12 OFFCURVE",
"233 -12 CURVE SMOOTH"
);
}
);
width = 491;
}
);
unicode = 111D8;
category = Letter;
},
{
glyphname = Sh_Nine;
lastChange = "2019-02-27 14:35:13 +0000";
layers = (
{
layerId = UUID0;
paths = (
{
closed = 1;
nodes = (
"677 -12 OFFCURVE",
"775 130 OFFCURVE",
"775 291 CURVE SMOOTH",
"775 448 OFFCURVE",
"649 577 OFFCURVE",
"509 577 CURVE SMOOTH",
"406 577 OFFCURVE",
"336 502 OFFCURVE",
"336 410 CURVE SMOOTH",
"336 303 OFFCURVE",
"414 248 OFFCURVE",
"507 248 CURVE SMOOTH",
"586 248 OFFCURVE",
"639 283 OFFCURVE",
"677 370 CURVE",
"685 347 OFFCURVE",
"690 323 OFFCURVE",
"690 293 CURVE SMOOTH",
"690 180 OFFCURVE",
"629 63 OFFCURVE",
"492 63 CURVE SMOOTH",
"259 63 OFFCURVE",
"154 337 OFFCURVE",
"85 518 CURVE",
"18 494 LINE",
"100 247 OFFCURVE",
"231 -12 OFFCURVE",
"488 -12 CURVE SMOOTH"
);
},
{
closed = 1;
nodes = (
"461 323 OFFCURVE",
"423 352 OFFCURVE",
"423 410 CURVE SMOOTH",
"423 464 OFFCURVE",
"458 501 OFFCURVE",
"510 501 CURVE SMOOTH",
"559 501 OFFCURVE",
"605 476 OFFCURVE",
"638 436 CURVE",
"614 370 OFFCURVE",
"578 323 OFFCURVE",
"518 323 CURVE SMOOTH"
);
}
);
width = 835;
}
);
unicode = 111D9;
category = Letter;
},
{
glyphname = Ekam;
lastChange = "2019-02-27 14:35:13 +0000";
layers = (
{
layerId = UUID0;
paths = (
{
closed = 1;
nodes = (
"503 260 LINE",
"503 550 LINE",
"583 550 LINE",
"583 260 LINE",
"668 260 LINE",
"668 550 LINE",
"788 550 LINE",
"751 526 OFFCURVE",
"729 485 OFFCURVE",
"729 436 CURVE SMOOTH",
"729 357 OFFCURVE",
"789 297 OFFCURVE",
"881 297 CURVE SMOOTH",
"950 297 OFFCURVE",
"1004 335 OFFCURVE",
"1047 419 CURVE",
"986 453 LINE",
"958 401 OFFCURVE",
"929 372 OFFCURVE",
"883 372 CURVE SMOOTH",
"839 372 OFFCURVE",
"814 402 OFFCURVE",
"814 442 CURVE SMOOTH",
"814 489 OFFCURVE",
"840 534 OFFCURVE",
"912 550 CURVE",
"942 550 LINE",
"942 625 LINE",
"214 625 LINE",
"214 550 LINE",
"271 550 LINE",
"270 491 OFFCURVE",
"253 468 OFFCURVE",
"219 468 CURVE SMOOTH",
"177 468 OFFCURVE",
"125 505 OFFCURVE",
"97 588 CURVE",
"20 588 LINE",
"69 445 OFFCURVE",
"139 394 OFFCURVE",
"221 394 CURVE SMOOTH",
"304 394 OFFCURVE",
"354 448 OFFCURVE",
"358 550 CURVE",
"418 550 LINE",
"418 260 LINE"
);
}
);
width = 1067;
}
);
unicode = 111DA;
category = Letter;
},
{
glyphname = SiddhamSign;
lastChange = "2019-02-27 14:35:13 +0000";
layers = (
{
layerId = UUID0;
paths = (
{
closed = 1;
nodes = (
"785 -12 OFFCURVE",
"894 125 OFFCURVE",
"894 299 CURVE SMOOTH",
"894 453 OFFCURVE",
"777 576 OFFCURVE",
"629 576 CURVE SMOOTH",
"520 576 OFFCURVE",
"431 504 OFFCURVE",
"431 398 CURVE SMOOTH",
"431 287 OFFCURVE",
"518 236 OFFCURVE",
"606 236 CURVE SMOOTH",
"662 236 OFFCURVE",
"702 257 OFFCURVE",
"739 294 CURVE",
"691 347 LINE",
"672 325 OFFCURVE",
"643 311 OFFCURVE",
"603 311 CURVE SMOOTH",
"568 311 OFFCURVE",
"516 333 OFFCURVE",
"516 402 CURVE SMOOTH",
"516 457 OFFCURVE",
"563 501 OFFCURVE",
"629 501 CURVE SMOOTH",
"738 501 OFFCURVE",
"809 404 OFFCURVE",
"809 293 CURVE SMOOTH",
"809 176 OFFCURVE",
"741 63 OFFCURVE",
"595 63 CURVE SMOOTH",
"382 63 OFFCURVE",
"210 278 OFFCURVE",
"90 515 CURVE",
"20 480 LINE",
"146 212 OFFCURVE",
"345 -12 OFFCURVE",
"597 -12 CURVE SMOOTH"
);
}
);
width = 954;
}
);
unicode = 111DB;
category = Letter;
},
{
glyphname = Headstroke;
lastChange = "2019-02-27 14:35:13 +0000";
layers = (
{
layerId = UUID0;
paths = (
{
closed = 1;
nodes = (
"395 550 LINE",
"395 625 LINE",
"-80 625 LINE",
"-80 550 LINE"
);
}
);
width = 315;
}
);
unicode = 111DC;
category = Letter;
},
{
glyphname = ContinuationSign;
lastChange = "2019-02-27 14:35:13 +0000";
layers = (
{
layerId = UUID0;
paths = (
{
closed = 1;
nodes = (
"380 36 LINE",
"257 121 OFFCURVE",
"145 211 OFFCURVE",
"145 280 CURVE SMOOTH",
"145 306 OFFCURVE",
"156 328 OFFCURVE",
"169 353 CURVE SMOOTH",
"184 383 OFFCURVE",
"200 417 OFFCURVE",
"200 470 CURVE SMOOTH",
"200 520 OFFCURVE",
"178 587 OFFCURVE",
"154 634 CURVE",
"88 609 LINE",
"106 568 OFFCURVE",
"120 512 OFFCURVE",
"120 470 CURVE SMOOTH",
"120 430 OFFCURVE",
"105 400 OFFCURVE",
"88 371 CURVE SMOOTH",
"73 346 OFFCURVE",
"60 319 OFFCURVE",
"60 283 CURVE SMOOTH",
"60 175 OFFCURVE",
"220 60 OFFCURVE",
"339 -20 CURVE"
);
}
);
width = 377;
}
);
unicode = 111DD;
category = Letter;
},
{
glyphname = SectionMark1;
lastChange = "2019-02-27 14:35:13 +0000";
layers = (
{
layerId = UUID0;
paths = (
{
closed = 1;
nodes = (
"466 363 OFFCURVE",
"523 393 OFFCURVE",
"558 491 CURVE",
"497 523 LINE",
"480 483 OFFCURVE",
"459 439 OFFCURVE",
"412 439 CURVE SMOOTH",
"378 439 OFFCURVE",
"352 463 OFFCURVE",
"327 486 CURVE SMOOTH",
"299 512 OFFCURVE",
"270 538 OFFCURVE",
"221 538 CURVE SMOOTH",
"157 538 OFFCURVE",
"107 494 OFFCURVE",
"77 409 CURVE",
"141 379 LINE",
"155 415 OFFCURVE",
"180 462 OFFCURVE",
"219 462 CURVE SMOOTH",
"250 462 OFFCURVE",
"276 438 OFFCURVE",
"301 415 CURVE SMOOTH",
"330 389 OFFCURVE",
"366 363 OFFCURVE",
"412 363 CURVE SMOOTH"
);
},
{
closed = 1;
nodes = (
"466 143 OFFCURVE",
"523 173 OFFCURVE",
"558 271 CURVE",
"497 303 LINE",
"480 263 OFFCURVE",
"459 219 OFFCURVE",
"412 219 CURVE SMOOTH",
"378 219 OFFCURVE",
"352 243 OFFCURVE",
"327 266 CURVE SMOOTH",
"299 292 OFFCURVE",
"270 318 OFFCURVE",
"221 318 CURVE SMOOTH",
"157 318 OFFCURVE",
"107 274 OFFCURVE",
"77 189 CURVE",
"141 159 LINE",
"155 195 OFFCURVE",
"180 242 OFFCURVE",
"219 242 CURVE SMOOTH",
"250 242 OFFCURVE",
"276 218 OFFCURVE",
"301 195 CURVE SMOOTH",
"330 169 OFFCURVE",
"366 143 OFFCURVE",
"412 143 CURVE SMOOTH"
);
}
);
width = 636;
}
);
unicode = 111DE;
category = Letter;
},
{
glyphname = SectionMark2;
lastChange = "2019-02-27 14:35:13 +0000";
layers = (
{
layerId = UUID0;
paths = (
{
closed = 1;
nodes = (
"250 412 LINE SMOOTH",
"272 432 OFFCURVE",
"282 441 OFFCURVE",
"291 441 CURVE SMOOTH",
"297 441 OFFCURVE",
"303 436 OFFCURVE",
"312 428 CURVE SMOOTH",
"433 318 LINE",
"485 367 LINE",
"319 519 LINE SMOOTH",
"306 531 OFFCURVE",
"294 538 OFFCURVE",
"282 538 CURVE SMOOTH",
"268 538 OFFCURVE",
"253 529 OFFCURVE",
"233 511 CURVE SMOOTH",
"80 375 LINE",
"141 316 LINE"
);
},
{
closed = 1;
nodes = (
"248 211 LINE SMOOTH",
"270 231 OFFCURVE",
"280 240 OFFCURVE",
"289 240 CURVE SMOOTH",
"295 240 OFFCURVE",
"301 235 OFFCURVE",
"310 227 CURVE SMOOTH",
"431 117 LINE",
"485 167 LINE",
"319 319 LINE SMOOTH",
"306 331 OFFCURVE",
"294 338 OFFCURVE",
"282 338 CURVE SMOOTH",
"268 338 OFFCURVE",
"253 329 OFFCURVE",
"233 311 CURVE SMOOTH",
"80 175 LINE",
"141 116 LINE"
);
}
);
width = 565;
}
);
unicode = 111DF;
category = Letter;
},
{
glyphname = Gu;
lastChange = "2019-02-27 14:35:13 +0000";
layers = (
{
layerId = UUID0;
paths = (
{
closed = 1;
nodes = (
"519 -66 OFFCURVE",
"584 -10 OFFCURVE",
"584 68 CURVE SMOOTH",
"584 119 OFFCURVE",
"557 164 OFFCURVE",
"498 179 CURVE",
"498 550 LINE",
"561 550 LINE",
"561 625 LINE",
"24 625 LINE",
"24 550 LINE",
"148 550 LINE",
"148 333 LINE",
"106 324 OFFCURVE",
"31 307 OFFCURVE",
"31 263 CURVE SMOOTH",
"31 215 OFFCURVE",
"155 128 OFFCURVE",
"189 128 CURVE SMOOTH",
"223 128 OFFCURVE",
"233 169 OFFCURVE",
"233 204 CURVE SMOOTH",
"233 550 LINE",
"413 550 LINE",
"413 179 LINE",
"380 171 OFFCURVE",
"353 154 OFFCURVE",
"334 133 CURVE",
"384 87 LINE",
"397 100 OFFCURVE",
"419 113 OFFCURVE",
"451 113 CURVE SMOOTH",
"484 113 OFFCURVE",
"506 95 OFFCURVE",
"506 67 CURVE SMOOTH",
"506 26 OFFCURVE",
"464 6 OFFCURVE",
"411 6 CURVE SMOOTH",
"361 6 OFFCURVE",
"307 17 OFFCURVE",
"247 51 CURVE",
"208 -5 LINE",
"271 -44 OFFCURVE",
"337 -66 OFFCURVE",
"419 -66 CURVE SMOOTH"
);
}
);
width = 609;
}
);
category = Letter;
},
{
glyphname = Jhu;
lastChange = "2019-02-27 14:35:13 +0000";
layers = (
{
layerId = UUID0;
paths = (
{
closed = 1;
nodes = (
"572 -63 OFFCURVE",
"634 -4 OFFCURVE",
"634 71 CURVE SMOOTH",
"634 101 OFFCURVE",
"626 127 OFFCURVE",
"606 148 CURVE",
"642 174 OFFCURVE",
"668 217 OFFCURVE",
"668 284 CURVE SMOOTH",
"668 550 LINE",
"731 550 LINE",
"731 625 LINE",
"24 625 LINE",
"24 550 LINE",
"148 550 LINE",
"148 333 LINE",
"106 324 OFFCURVE",
"31 307 OFFCURVE",
"31 263 CURVE SMOOTH",
"31 215 OFFCURVE",
"155 128 OFFCURVE",
"189 128 CURVE SMOOTH",
"223 128 OFFCURVE",
"233 169 OFFCURVE",
"233 204 CURVE SMOOTH",
"233 550 LINE",
"338 550 LINE",
"338 284 LINE SMOOTH",
"338 185 OFFCURVE",
"413 118 OFFCURVE",
"500 118 CURVE SMOOTH",
"535 118 OFFCURVE",
"556 98 OFFCURVE",
"556 70 CURVE SMOOTH",
"556 34 OFFCURVE",
"521 9 OFFCURVE",
"467 9 CURVE SMOOTH",
"411 9 OFFCURVE",
"357 20 OFFCURVE",
"297 54 CURVE",
"258 -2 LINE",
"321 -41 OFFCURVE",
"387 -63 OFFCURVE",
"469 -63 CURVE SMOOTH"
);
},
{
closed = 1;
nodes = (
"479 193 OFFCURVE",
"423 203 OFFCURVE",
"423 286 CURVE SMOOTH",
"423 550 LINE",
"583 550 LINE",
"583 286 LINE SMOOTH",
"583 204 OFFCURVE",
"523 193 OFFCURVE",
"502 193 CURVE SMOOTH"
);
}
);
width = 755;
}
);
category = Letter;
},
{
glyphname = Nyu;
lastChange = "2019-02-27 14:35:13 +0000";
layers = (
{
layerId = UUID0;
paths = (
{
closed = 1;
nodes = (
"559 -64 OFFCURVE",
"624 -11 OFFCURVE",
"624 70 CURVE SMOOTH",
"624 110 OFFCURVE",
"610 145 OFFCURVE",
"574 166 CURVE",
"598 194 OFFCURVE",
"615 227 OFFCURVE",
"615 268 CURVE SMOOTH",
"615 347 OFFCURVE",
"549 399 OFFCURVE",
"456 413 CURVE",
"456 550 LINE",
"629 550 LINE",
"629 625 LINE",
"24 625 LINE",
"24 550 LINE",
"84 550 LINE",
"84 0 LINE",
"169 0 LINE",
"169 550 LINE",
"371 550 LINE",
"371 412 LINE",
"337 407 OFFCURVE",
"274 386 OFFCURVE",
"274 342 CURVE SMOOTH",
"274 294 OFFCURVE",
"378 222 OFFCURVE",
"412 222 CURVE SMOOTH",
"446 222 OFFCURVE",
"456 263 OFFCURVE",
"456 298 CURVE SMOOTH",
"456 340 LINE",
"499 331 OFFCURVE",
"530 307 OFFCURVE",
"530 266 CURVE SMOOTH",
"530 229 OFFCURVE",
"513 206 OFFCURVE",
"490 190 CURVE",
"442 184 OFFCURVE",
"402 166 OFFCURVE",
"374 135 CURVE",
"424 89 LINE",
"441 105 OFFCURVE",
"464 115 OFFCURVE",
"491 115 CURVE SMOOTH",
"526 115 OFFCURVE",
"546 97 OFFCURVE",
"546 69 CURVE SMOOTH",
"546 28 OFFCURVE",
"504 8 OFFCURVE",
"450 8 CURVE SMOOTH",
"401 8 OFFCURVE",
"347 19 OFFCURVE",
"287 53 CURVE",
"248 -3 LINE",
"311 -42 OFFCURVE",
"376 -64 OFFCURVE",
"458 -64 CURVE SMOOTH"
);
}
);
width = 664;
}
);
category = Letter;
},
{
glyphname = Ku;
lastChange = "2019-02-27 14:35:13 +0000";
layers = (
{
layerId = UUID0;
paths = (
{
closed = 1;
nodes = (
"322 -66 OFFCURVE",
"387 -10 OFFCURVE",
"387 68 CURVE SMOOTH",
"387 119 OFFCURVE",
"360 167 OFFCURVE",
"292 181 CURVE",
"292 340 LINE",
"386 338 OFFCURVE",
"461 321 OFFCURVE",
"461 202 CURVE SMOOTH",
"461 166 OFFCURVE",
"455 128 OFFCURVE",
"449 91 CURVE SMOOTH",
"443 56 OFFCURVE",
"438 21 OFFCURVE",
"438 -11 CURVE SMOOTH",
"438 -28 OFFCURVE",
"439 -45 OFFCURVE",
"441 -62 CURVE",
"521 -53 LINE",
"519 -38 OFFCURVE",
"518 -24 OFFCURVE",
"518 -10 CURVE SMOOTH",
"518 24 OFFCURVE",
"522 57 OFFCURVE",
"528 91 CURVE SMOOTH",
"535 130 OFFCURVE",
"541 170 OFFCURVE",
"541 216 CURVE SMOOTH",
"541 380 OFFCURVE",
"423 405 OFFCURVE",
"292 409 CURVE",
"292 550 LINE",
"466 550 LINE",
"466 625 LINE",
"24 625 LINE",
"24 550 LINE",
"207 550 LINE",
"207 410 LINE",
"64 410 LINE",
"64 340 LINE",
"207 340 LINE",
"207 177 LINE",
"181 170 OFFCURVE",
"154 153 OFFCURVE",
"137 133 CURVE",
"187 87 LINE",
"200 100 OFFCURVE",
"222 113 OFFCURVE",
"254 113 CURVE SMOOTH",
"287 113 OFFCURVE",
"309 95 OFFCURVE",
"309 67 CURVE SMOOTH",
"309 26 OFFCURVE",
"267 6 OFFCURVE",
"214 6 CURVE SMOOTH",
"164 6 OFFCURVE",
"110 17 OFFCURVE",
"50 51 CURVE",
"11 -5 LINE",
"74 -44 OFFCURVE",
"140 -66 OFFCURVE",
"222 -66 CURVE SMOOTH"
);
}
);
width = 571;
}
);
category = Letter;
},
{
glyphname = Ru;
lastChange = "2019-02-27 14:35:13 +0000";
layers = (
{
layerId = UUID0;
paths = (
{
closed = 1;
nodes = (
"413 -58 LINE",
"413 -8 LINE SMOOTH",
"413 158 OFFCURVE",
"408 315 OFFCURVE",
"233 321 CURVE",
"233 550 LINE",
"386 550 LINE",
"386 625 LINE",
"24 625 LINE",
"24 550 LINE",
"148 550 LINE",
"148 313 LINE",
"106 304 OFFCURVE",
"31 287 OFFCURVE",
"31 243 CURVE SMOOTH",
"31 195 OFFCURVE",
"155 108 OFFCURVE",
"189 108 CURVE SMOOTH",
"223 108 OFFCURVE",
"233 149 OFFCURVE",
"233 184 CURVE SMOOTH",
"233 254 LINE",
"331 245 OFFCURVE",
"341 164 OFFCURVE",
"341 -27 CURVE SMOOTH",
"341 -72 LINE"
);
}
);
width = 433;
}
);
category = Letter;
},
{
glyphname = Shu;
lastChange = "2019-02-27 14:35:13 +0000";
layers = (
{
layerId = UUID0;
paths = (
{
closed = 1;
nodes = (
"618 -66 OFFCURVE",
"683 -10 OFFCURVE",
"683 68 CURVE SMOOTH",
"683 119 OFFCURVE",
"656 164 OFFCURVE",
"597 179 CURVE",
"597 550 LINE",
"676 550 LINE",
"676 625 LINE",
"24 625 LINE",
"24 550 LINE",
"168 550 LINE",
"168 321 LINE",
"126 312 OFFCURVE",
"51 295 OFFCURVE",
"51 251 CURVE SMOOTH",
"51 203 OFFCURVE",
"175 116 OFFCURVE",
"209 116 CURVE SMOOTH",
"243 116 OFFCURVE",
"253 157 OFFCURVE",
"253 192 CURVE SMOOTH",
"253 242 LINE",
"512 242 LINE",
"512 179 LINE",
"479 171 OFFCURVE",
"452 154 OFFCURVE",
"433 133 CURVE",
"483 87 LINE",
"496 100 OFFCURVE",
"518 113 OFFCURVE",
"550 113 CURVE SMOOTH",
"583 113 OFFCURVE",
"605 95 OFFCURVE",
"605 67 CURVE SMOOTH",
"605 26 OFFCURVE",
"563 6 OFFCURVE",
"510 6 CURVE SMOOTH",
"460 6 OFFCURVE",
"406 17 OFFCURVE",
"346 51 CURVE",
"307 -5 LINE",
"370 -44 OFFCURVE",
"436 -66 OFFCURVE",
"518 -66 CURVE SMOOTH"
);
},
{
closed = 1;
nodes = (
"253 550 LINE",
"512 550 LINE",
"512 317 LINE",
"253 317 LINE"
);
}
);
width = 700;
}
);
category = Letter;
},
{
glyphname = Kuu;
lastChange = "2019-02-27 14:35:13 +0000";
layers = (
{
layerId = UUID0;
paths = (
{
closed = 1;
nodes = (
"323 -207 OFFCURVE",
"387 -151 OFFCURVE",
"387 -75 CURVE SMOOTH",
"387 -38 OFFCURVE",
"374 -7 OFFCURVE",
"351 10 CURVE",
"374 32 OFFCURVE",
"387 62 OFFCURVE",
"387 98 CURVE SMOOTH",
"387 151 OFFCURVE",
"357 200 OFFCURVE",
"292 211 CURVE",
"292 340 LINE",
"386 338 OFFCURVE",
"461 321 OFFCURVE",
"461 202 CURVE SMOOTH",
"461 166 OFFCURVE",
"455 128 OFFCURVE",
"449 91 CURVE SMOOTH",
"443 56 OFFCURVE",
"438 21 OFFCURVE",
"438 -11 CURVE SMOOTH",
"438 -28 OFFCURVE",
"439 -45 OFFCURVE",
"441 -62 CURVE",
"521 -53 LINE",
"519 -38 OFFCURVE",
"518 -24 OFFCURVE",
"518 -10 CURVE SMOOTH",
"518 24 OFFCURVE",
"522 57 OFFCURVE",
"528 91 CURVE SMOOTH",
"535 130 OFFCURVE",
"541 170 OFFCURVE",
"541 216 CURVE SMOOTH",
"541 380 OFFCURVE",
"423 405 OFFCURVE",
"292 409 CURVE",
"292 550 LINE",
"466 550 LINE",
"466 625 LINE",
"24 625 LINE",
"24 550 LINE",
"207 550 LINE",
"207 410 LINE",
"64 410 LINE",
"64 340 LINE",
"207 340 LINE",
"207 207 LINE",
"180 199 OFFCURVE",
"156 185 OFFCURVE",
"137 164 CURVE",
"187 118 LINE",
"200 131 OFFCURVE",
"221 144 OFFCURVE",
"254 144 CURVE SMOOTH",
"290 144 OFFCURVE",
"309 123 OFFCURVE",
"309 95 CURVE SMOOTH",
"309 58 OFFCURVE",
"268 37 OFFCURVE",
"216 37 CURVE SMOOTH",
"165 37 OFFCURVE",
"110 48 OFFCURVE",
"50 82 CURVE",
"11 26 LINE",
"74 -13 OFFCURVE",
"142 -35 OFFCURVE",
"222 -35 CURVE SMOOTH",
"238 -35 OFFCURVE",
"257 -33 OFFCURVE",
"271 -31 CURVE",
"295 -35 OFFCURVE",
"309 -53 OFFCURVE",
"309 -76 CURVE SMOOTH",
"309 -114 OFFCURVE",
"265 -135 OFFCURVE",
"214 -135 CURVE SMOOTH",
"161 -135 OFFCURVE",
"110 -124 OFFCURVE",
"36 -81 CURVE",
"0 -139 LINE",
"61 -182 OFFCURVE",
"145 -207 OFFCURVE",
"222 -207 CURVE SMOOTH"
);
}
);
width = 571;
}
);
category = Letter;
},
{
glyphname = Guu;
lastChange = "2019-02-27 14:35:13 +0000";
layers = (
{
layerId = UUID0;
paths = (
{
closed = 1;
nodes = (
"520 -207 OFFCURVE",
"584 -151 OFFCURVE",
"584 -75 CURVE SMOOTH",
"584 -38 OFFCURVE",
"571 -7 OFFCURVE",
"548 10 CURVE",
"571 32 OFFCURVE",
"584 62 OFFCURVE",
"584 98 CURVE SMOOTH",
"584 151 OFFCURVE",
"554 200 OFFCURVE",
"498 209 CURVE",
"498 550 LINE",
"561 550 LINE",
"561 625 LINE",
"24 625 LINE",
"24 550 LINE",
"148 550 LINE",
"148 333 LINE",
"106 324 OFFCURVE",
"31 307 OFFCURVE",
"31 263 CURVE SMOOTH",
"31 215 OFFCURVE",
"155 128 OFFCURVE",
"189 128 CURVE SMOOTH",
"223 128 OFFCURVE",
"233 169 OFFCURVE",
"233 204 CURVE SMOOTH",
"233 550 LINE",
"413 550 LINE",
"413 209 LINE",
"377 199 OFFCURVE",
"353 185 OFFCURVE",
"334 164 CURVE",
"384 118 LINE",
"397 131 OFFCURVE",
"418 144 OFFCURVE",
"451 144 CURVE SMOOTH",
"487 144 OFFCURVE",
"506 123 OFFCURVE",
"506 95 CURVE SMOOTH",
"506 58 OFFCURVE",
"465 37 OFFCURVE",
"413 37 CURVE SMOOTH",
"362 37 OFFCURVE",
"307 48 OFFCURVE",
"247 82 CURVE",
"208 26 LINE",
"271 -13 OFFCURVE",
"339 -35 OFFCURVE",
"419 -35 CURVE SMOOTH",
"435 -35 OFFCURVE",
"454 -33 OFFCURVE",
"468 -31 CURVE",
"492 -35 OFFCURVE",
"506 -53 OFFCURVE",
"506 -76 CURVE SMOOTH",
"506 -114 OFFCURVE",
"462 -135 OFFCURVE",
"411 -135 CURVE SMOOTH",
"358 -135 OFFCURVE",
"307 -124 OFFCURVE",
"233 -81 CURVE",
"197 -139 LINE",
"258 -182 OFFCURVE",
"342 -207 OFFCURVE",
"419 -207 CURVE SMOOTH"
);
}
);
width = 609;
}
);
category = Letter;
},
{
glyphname = Jhuu;
lastChange = "2019-02-27 14:35:13 +0000";
layers = (
{
layerId = UUID0;
paths = (
{
closed = 1;
nodes = (
"560 -207 OFFCURVE",
"624 -151 OFFCURVE",
"624 -75 CURVE SMOOTH",
"624 -41 OFFCURVE",
"613 -11 OFFCURVE",
"594 5 CURVE",
"621 28 OFFCURVE",
"636 57 OFFCURVE",
"636 98 CURVE SMOOTH",
"636 128 OFFCURVE",
"626 157 OFFCURVE",
"606 178 CURVE",
"642 204 OFFCURVE",
"668 247 OFFCURVE",
"668 314 CURVE SMOOTH",
"668 550 LINE",
"731 550 LINE",
"731 625 LINE",
"24 625 LINE",
"24 550 LINE",
"148 550 LINE",
"148 333 LINE",
"106 324 OFFCURVE",
"31 307 OFFCURVE",
"31 263 CURVE SMOOTH",
"31 215 OFFCURVE",
"155 128 OFFCURVE",
"189 128 CURVE SMOOTH",
"223 128 OFFCURVE",
"233 169 OFFCURVE",
"233 204 CURVE SMOOTH",
"233 550 LINE",
"338 550 LINE",
"338 314 LINE SMOOTH",
"338 215 OFFCURVE",
"413 148 OFFCURVE",
"500 148 CURVE SMOOTH",
"538 148 OFFCURVE",
"558 125 OFFCURVE",
"558 100 CURVE SMOOTH",
"558 57 OFFCURVE",
"516 37 OFFCURVE",
"465 37 CURVE SMOOTH",
"414 37 OFFCURVE",
"359 48 OFFCURVE",
"299 82 CURVE",
"260 26 LINE",
"323 -13 OFFCURVE",
"391 -35 OFFCURVE",
"471 -35 CURVE SMOOTH",
"485 -35 OFFCURVE",
"499 -34 OFFCURVE",
"513 -32 CURVE",
"533 -37 OFFCURVE",
"546 -54 OFFCURVE",
"546 -76 CURVE SMOOTH",
"546 -114 OFFCURVE",
"502 -135 OFFCURVE",
"451 -135 CURVE SMOOTH",
"398 -135 OFFCURVE",
"347 -124 OFFCURVE",
"273 -81 CURVE",
"237 -139 LINE",
"298 -182 OFFCURVE",
"382 -207 OFFCURVE",
"459 -207 CURVE SMOOTH"
);
},
{
closed = 1;
nodes = (
"479 223 OFFCURVE",
"423 233 OFFCURVE",
"423 316 CURVE SMOOTH",
"423 550 LINE",
"583 550 LINE",
"583 316 LINE SMOOTH",
"583 234 OFFCURVE",
"523 223 OFFCURVE",
"502 223 CURVE SMOOTH"
);
}
);
width = 755;
}
);
category = Letter;
},
{
glyphname = Nyuu;
lastChange = "2019-02-27 14:35:13 +0000";
layers = (
{
layerId = UUID0;
paths = (
{
closed = 1;
nodes = (
"560 -207 OFFCURVE",
"624 -151 OFFCURVE",
"624 -75 CURVE SMOOTH",
"624 -38 OFFCURVE",
"611 -7 OFFCURVE",
"588 10 CURVE",
"611 32 OFFCURVE",
"624 62 OFFCURVE",
"624 98 CURVE SMOOTH",
"624 136 OFFCURVE",
"609 172 OFFCURVE",
"576 193 CURVE",
"597 213 OFFCURVE",
"615 241 OFFCURVE",
"615 278 CURVE SMOOTH",
"615 357 OFFCURVE",
"549 409 OFFCURVE",
"456 423 CURVE",
"456 550 LINE",
"629 550 LINE",
"629 625 LINE",
"24 625 LINE",
"24 550 LINE",
"84 550 LINE",
"84 0 LINE",
"169 0 LINE",
"169 550 LINE",
"371 550 LINE",
"371 422 LINE",
"337 417 OFFCURVE",
"274 396 OFFCURVE",
"274 352 CURVE SMOOTH",
"274 304 OFFCURVE",
"378 232 OFFCURVE",
"412 232 CURVE SMOOTH",
"446 232 OFFCURVE",
"456 273 OFFCURVE",
"456 308 CURVE SMOOTH",
"456 350 LINE",
"499 341 OFFCURVE",
"530 317 OFFCURVE",
"530 276 CURVE SMOOTH",
"530 248 OFFCURVE",
"520 229 OFFCURVE",
"504 214 CURVE",
"499 215 OFFCURVE",
"493 215 OFFCURVE",
"486 215 CURVE SMOOTH",
"448 215 OFFCURVE",
"401 194 OFFCURVE",
"374 164 CURVE",
"424 118 LINE",
"437 131 OFFCURVE",
"458 144 OFFCURVE",
"491 144 CURVE SMOOTH",
"527 144 OFFCURVE",
"546 123 OFFCURVE",
"546 95 CURVE SMOOTH",
"546 58 OFFCURVE",
"505 37 OFFCURVE",
"453 37 CURVE SMOOTH",
"402 37 OFFCURVE",
"347 48 OFFCURVE",
"287 82 CURVE",
"248 26 LINE",
"311 -13 OFFCURVE",
"379 -35 OFFCURVE",
"459 -35 CURVE SMOOTH",
"475 -35 OFFCURVE",
"494 -33 OFFCURVE",
"508 -31 CURVE",
"532 -35 OFFCURVE",
"546 -53 OFFCURVE",
"546 -76 CURVE SMOOTH",
"546 -114 OFFCURVE",
"502 -135 OFFCURVE",
"451 -135 CURVE SMOOTH",
"398 -135 OFFCURVE",
"347 -124 OFFCURVE",
"273 -81 CURVE",
"237 -139 LINE",
"298 -182 OFFCURVE",
"382 -207 OFFCURVE",
"459 -207 CURVE SMOOTH"
);
}
);
width = 664;
}
);
category = Letter;
},
{
glyphname = Dduu;
lastChange = "2019-02-27 14:35:13 +0000";
layers = (
{
layerId = UUID0;
paths = (
{
closed = 1;
nodes = (
"420 -207 OFFCURVE",
"484 -151 OFFCURVE",
"484 -75 CURVE SMOOTH",
"484 -38 OFFCURVE",
"471 -7 OFFCURVE",
"448 10 CURVE",
"471 32 OFFCURVE",
"484 62 OFFCURVE",
"484 98 CURVE SMOOTH",
"484 126 OFFCURVE",
"475 151 OFFCURVE",
"460 170 CURVE",
"482 202 OFFCURVE",
"498 234 OFFCURVE",
"498 281 CURVE SMOOTH",
"498 381 OFFCURVE",
"426 444 OFFCURVE",
"333 444 CURVE SMOOTH",
"305 444 OFFCURVE",
"286 442 OFFCURVE",
"268 434 CURVE",
"281 472 OFFCURVE",
"293 522 OFFCURVE",
"295 550 CURVE",
"509 550 LINE",
"509 625 LINE",
"24 625 LINE",
"24 550 LINE",
"209 550 LINE",
"199 491 OFFCURVE",
"174 397 OFFCURVE",
"129 339 CURVE",
"180 293 LINE",
"212 331 OFFCURVE",
"254 369 OFFCURVE",
"315 369 CURVE SMOOTH",
"374 369 OFFCURVE",
"413 335 OFFCURVE",
"413 279 CURVE SMOOTH",
"413 250 OFFCURVE",
"408 228 OFFCURVE",
"398 209 CURVE",
"385 213 OFFCURVE",
"369 215 OFFCURVE",
"352 215 CURVE SMOOTH",
"304 215 OFFCURVE",
"263 191 OFFCURVE",
"234 164 CURVE",
"284 118 LINE",
"297 131 OFFCURVE",
"318 144 OFFCURVE",
"351 144 CURVE SMOOTH",
"387 144 OFFCURVE",
"406 123 OFFCURVE",
"406 95 CURVE SMOOTH",
"406 58 OFFCURVE",
"365 37 OFFCURVE",
"313 37 CURVE SMOOTH",
"262 37 OFFCURVE",
"207 48 OFFCURVE",
"147 82 CURVE",
"108 26 LINE",
"171 -13 OFFCURVE",
"239 -35 OFFCURVE",
"319 -35 CURVE SMOOTH",
"335 -35 OFFCURVE",
"354 -33 OFFCURVE",
"368 -31 CURVE",
"392 -35 OFFCURVE",
"406 -53 OFFCURVE",
"406 -76 CURVE SMOOTH",
"406 -114 OFFCURVE",
"362 -135 OFFCURVE",
"311 -135 CURVE SMOOTH",
"258 -135 OFFCURVE",
"207 -124 OFFCURVE",
"133 -81 CURVE",
"97 -139 LINE",
"158 -182 OFFCURVE",
"242 -207 OFFCURVE",
"319 -207 CURVE SMOOTH"
);
}
);
width = 533;
}
);
category = Letter;
},
{
glyphname = Tuu;
lastChange = "2019-02-27 14:35:13 +0000";
layers = (
{
layerId = UUID0;
paths = (
{
closed = 1;
nodes = (
"400 -207 OFFCURVE",
"464 -151 OFFCURVE",
"464 -75 CURVE SMOOTH",
"464 -38 OFFCURVE",
"451 -7 OFFCURVE",
"428 10 CURVE",
"457 32 OFFCURVE",
"474 62 OFFCURVE",
"474 98 CURVE SMOOTH",
"474 127 OFFCURVE",
"465 154 OFFCURVE",
"448 172 CURVE",
"499 202 OFFCURVE",
"519 249 OFFCURVE",
"519 297 CURVE SMOOTH",
"519 368 OFFCURVE",
"473 417 OFFCURVE",
"387 435 CURVE",
"398 451 OFFCURVE",
"409 467 OFFCURVE",
"409 498 CURVE SMOOTH",
"409 519 OFFCURVE",
"404 536 OFFCURVE",
"396 550 CURVE",
"539 550 LINE",
"539 625 LINE",
"106 625 LINE",
"106 550 LINE",
"303 550 LINE",
"315 540 OFFCURVE",
"324 524 OFFCURVE",
"324 497 CURVE SMOOTH",
"324 456 OFFCURVE",
"291 448 OFFCURVE",
"256 442 CURVE SMOOTH",
"252 442 LINE",
"252 368 LINE",
"271 371 OFFCURVE",
"294 373 OFFCURVE",
"315 373 CURVE SMOOTH",
"408 373 OFFCURVE",
"434 336 OFFCURVE",
"434 295 CURVE SMOOTH",
"434 239 OFFCURVE",
"383 213 OFFCURVE",
"326 213 CURVE SMOOTH",
"215 213 OFFCURVE",
"142 259 OFFCURVE",
"59 409 CURVE",
"0 372 LINE",
"94 205 OFFCURVE",
"187 143 OFFCURVE",
"327 143 CURVE SMOOTH",
"336 143 OFFCURVE",
"349 144 OFFCURVE",
"359 145 CURVE",
"384 138 OFFCURVE",
"396 120 OFFCURVE",
"396 95 CURVE SMOOTH",
"396 58 OFFCURVE",
"351 37 OFFCURVE",
"293 37 CURVE SMOOTH",
"252 37 OFFCURVE",
"197 48 OFFCURVE",
"137 82 CURVE",
"98 26 LINE",
"161 -13 OFFCURVE",
"229 -35 OFFCURVE",
"299 -35 CURVE SMOOTH",
"315 -35 OFFCURVE",
"334 -33 OFFCURVE",
"348 -31 CURVE",
"372 -35 OFFCURVE",
"386 -53 OFFCURVE",
"386 -76 CURVE SMOOTH",
"386 -114 OFFCURVE",
"342 -135 OFFCURVE",
"291 -135 CURVE SMOOTH",
"238 -135 OFFCURVE",
"187 -124 OFFCURVE",
"113 -81 CURVE",
"77 -139 LINE",
"138 -182 OFFCURVE",
"222 -207 OFFCURVE",
"299 -207 CURVE SMOOTH"
);
}
);
width = 563;
}
);
category = Letter;
},
{
glyphname = Bhuu;
lastChange = "2019-02-27 14:35:13 +0000";
layers = (
{
layerId = UUID0;
paths = (
{
closed = 1;
nodes = (
"475 -203 OFFCURVE",
"539 -147 OFFCURVE",
"539 -71 CURVE SMOOTH",
"539 -34 OFFCURVE",
"526 -3 OFFCURVE",
"503 14 CURVE",
"532 36 OFFCURVE",
"549 66 OFFCURVE",
"549 102 CURVE SMOOTH",
"549 131 OFFCURVE",
"540 158 OFFCURVE",
"515 177 CURVE",
"560 209 OFFCURVE",
"585 254 OFFCURVE",
"585 306 CURVE SMOOTH",
"585 438 OFFCURVE",
"464 474 OFFCURVE",
"370 474 CURVE SMOOTH",
"338 474 OFFCURVE",
"310 472 OFFCURVE",
"286 469 CURVE",
"286 550 LINE",
"586 550 LINE",
"586 625 LINE",
"24 625 LINE",
"24 550 LINE",
"201 550 LINE",
"201 450 LINE",
"168 441 OFFCURVE",
"86 400 OFFCURVE",
"86 364 CURVE SMOOTH",
"86 321 OFFCURVE",
"177 268 OFFCURVE",
"231 268 CURVE SMOOTH",
"276 268 OFFCURVE",
"286 309 OFFCURVE",
"286 344 CURVE SMOOTH",
"286 393 LINE",
"308 397 OFFCURVE",
"334 399 OFFCURVE",
"359 399 CURVE SMOOTH",
"441 399 OFFCURVE",
"500 369 OFFCURVE",
"500 307 CURVE SMOOTH",
"500 257 OFFCURVE",
"461 220 OFFCURVE",
"390 220 CURVE SMOOTH",
"355 220 OFFCURVE",
"306 227 OFFCURVE",
"256 251 CURVE",
"218 197 LINE",
"273 166 OFFCURVE",
"333 147 OFFCURVE",
"395 147 CURVE SMOOTH",
"411 147 OFFCURVE",
"424 148 OFFCURVE",
"434 149 CURVE",
"459 142 OFFCURVE",
"471 124 OFFCURVE",
"471 99 CURVE SMOOTH",
"471 62 OFFCURVE",
"426 41 OFFCURVE",
"368 41 CURVE SMOOTH",
"327 41 OFFCURVE",
"272 52 OFFCURVE",
"212 86 CURVE",
"173 30 LINE",
"236 -9 OFFCURVE",
"304 -31 OFFCURVE",
"374 -31 CURVE SMOOTH",
"390 -31 OFFCURVE",
"409 -29 OFFCURVE",
"423 -27 CURVE",
"447 -31 OFFCURVE",
"461 -49 OFFCURVE",
"461 -72 CURVE SMOOTH",
"461 -110 OFFCURVE",
"417 -131 OFFCURVE",
"366 -131 CURVE SMOOTH",
"313 -131 OFFCURVE",
"262 -120 OFFCURVE",
"188 -77 CURVE",
"152 -135 LINE",
"213 -178 OFFCURVE",
"297 -203 OFFCURVE",
"374 -203 CURVE SMOOTH"
);
}
);
width = 616;
}
);
category = Letter;
},
{
glyphname = Ruu;
lastChange = "2019-02-27 14:35:13 +0000";
layers = (
{
layerId = UUID0;
paths = (
{
closed = 1;
nodes = (
"286 47 OFFCURVE",
"254 23 OFFCURVE",
"234 0 CURVE",
"284 -46 LINE",
"297 -33 OFFCURVE",
"319 -20 OFFCURVE",
"351 -20 CURVE SMOOTH",
"384 -20 OFFCURVE",
"406 -38 OFFCURVE",
"406 -66 CURVE SMOOTH",
"406 -107 OFFCURVE",
"364 -127 OFFCURVE",
"311 -127 CURVE SMOOTH",
"249 -127 OFFCURVE",
"181 -109 OFFCURVE",
"106 -55 CURVE",
"67 -111 LINE",
"142 -167 OFFCURVE",
"221 -199 OFFCURVE",
"319 -199 CURVE SMOOTH",
"419 -199 OFFCURVE",
"484 -143 OFFCURVE",
"484 -65 CURVE SMOOTH",
"484 -14 OFFCURVE",
"459 23 OFFCURVE",
"413 41 CURVE",
"411 185 OFFCURVE",
"392 316 OFFCURVE",
"233 321 CURVE",
"233 550 LINE",
"386 550 LINE",
"386 625 LINE",
"24 625 LINE",
"24 550 LINE",
"148 550 LINE",
"148 313 LINE",
"106 304 OFFCURVE",
"31 287 OFFCURVE",
"31 243 CURVE SMOOTH",
"31 195 OFFCURVE",
"155 108 OFFCURVE",
"189 108 CURVE SMOOTH",
"223 108 OFFCURVE",
"233 149 OFFCURVE",
"233 184 CURVE SMOOTH",
"233 254 LINE",
"320 246 OFFCURVE",
"336 180 OFFCURVE",
"340 50 CURVE"
);
}
);
width = 433;
}
);
category = Letter;
},
{
glyphname = Shuu;
lastChange = "2019-02-27 14:35:13 +0000";
layers = (
{
layerId = UUID0;
paths = (
{
closed = 1;
nodes = (
"620 -207 OFFCURVE",
"684 -151 OFFCURVE",
"684 -75 CURVE SMOOTH",
"684 -38 OFFCURVE",
"671 -7 OFFCURVE",
"648 10 CURVE",
"671 32 OFFCURVE",
"684 62 OFFCURVE",
"684 98 CURVE SMOOTH",
"684 151 OFFCURVE",
"654 197 OFFCURVE",
"597 209 CURVE",
"597 550 LINE",
"676 550 LINE",
"676 625 LINE",
"24 625 LINE",
"24 550 LINE",
"168 550 LINE",
"168 331 LINE",
"126 322 OFFCURVE",
"51 305 OFFCURVE",
"51 261 CURVE SMOOTH",
"51 213 OFFCURVE",
"175 126 OFFCURVE",
"209 126 CURVE SMOOTH",
"243 126 OFFCURVE",
"253 167 OFFCURVE",
"253 202 CURVE SMOOTH",
"253 252 LINE",
"512 252 LINE",
"512 209 LINE",
"482 201 OFFCURVE",
"455 186 OFFCURVE",
"434 164 CURVE",
"484 118 LINE",
"497 131 OFFCURVE",
"518 144 OFFCURVE",
"551 144 CURVE SMOOTH",
"587 144 OFFCURVE",
"606 123 OFFCURVE",
"606 95 CURVE SMOOTH",
"606 58 OFFCURVE",
"565 37 OFFCURVE",
"513 37 CURVE SMOOTH",
"462 37 OFFCURVE",
"407 48 OFFCURVE",
"347 82 CURVE",
"308 26 LINE",
"371 -13 OFFCURVE",
"439 -35 OFFCURVE",
"519 -35 CURVE SMOOTH",
"535 -35 OFFCURVE",
"554 -33 OFFCURVE",
"568 -31 CURVE",
"592 -35 OFFCURVE",
"606 -53 OFFCURVE",
"606 -76 CURVE SMOOTH",
"606 -114 OFFCURVE",
"562 -135 OFFCURVE",
"511 -135 CURVE SMOOTH",
"458 -135 OFFCURVE",
"407 -124 OFFCURVE",
"333 -81 CURVE",
"297 -139 LINE",
"358 -182 OFFCURVE",
"442 -207 OFFCURVE",
"519 -207 CURVE SMOOTH"
);
},
{
closed = 1;
nodes = (
"253 550 LINE",
"512 550 LINE",
"512 327 LINE",
"253 327 LINE"
);
}
);
width = 700;
}
);
category = Letter;
},
{
glyphname = Ngaa;
lastChange = "2019-02-27 14:35:13 +0000";
layers = (
{
layerId = UUID0;
paths = (
{
closed = 1;
nodes = (
"446 47 LINE",
"377 87 LINE SMOOTH",
"238 167 OFFCURVE",
"152 219 OFFCURVE",
"152 315 CURVE SMOOTH",
"152 550 LINE",
"243 550 LINE",
"243 544 LINE SMOOTH",
"243 465 OFFCURVE",
"303 416 OFFCURVE",
"378 416 CURVE SMOOTH",
"449 416 OFFCURVE",
"511 465 OFFCURVE",
"511 553 CURVE SMOOTH",
"511 625 LINE",
"24 625 LINE",
"24 550 LINE",
"67 550 LINE",
"67 307 LINE SMOOTH",
"67 187 OFFCURVE",
"169 117 OFFCURVE",
"339 19 CURVE SMOOTH",
"404 -19 LINE"
);
},
{
closed = 1;
nodes = (
"344 481 OFFCURVE",
"315 504 OFFCURVE",
"315 544 CURVE SMOOTH",
"315 550 LINE",
"439 550 LINE",
"439 544 LINE SMOOTH",
"439 504 OFFCURVE",
"413 481 OFFCURVE",
"380 481 CURVE SMOOTH"
);
}
);
width = 541;
}
);
category = Letter;
},
{
glyphname = Jaa;
lastChange = "2019-02-27 14:35:13 +0000";
layers = (
{
layerId = UUID0;
paths = (
{
closed = 1;
nodes = (
"320 2 OFFCURVE",
"331 38 OFFCURVE",
"331 72 CURVE SMOOTH",
"331 150 OFFCURVE",
"296 193 OFFCURVE",
"235 240 CURVE SMOOTH",
"185 278 OFFCURVE",
"159 298 OFFCURVE",
"159 362 CURVE SMOOTH",
"159 550 LINE",
"293 550 LINE",
"293 544 LINE SMOOTH",
"293 465 OFFCURVE",
"353 416 OFFCURVE",
"428 416 CURVE SMOOTH",
"499 416 OFFCURVE",
"561 465 OFFCURVE",
"561 553 CURVE SMOOTH",
"561 625 LINE",
"24 625 LINE",
"24 550 LINE",
"74 550 LINE",
"74 362 LINE SMOOTH",
"74 260 OFFCURVE",
"120 223 OFFCURVE",
"170 184 CURVE SMOOTH",
"216 148 OFFCURVE",
"246 123 OFFCURVE",
"246 73 CURVE SMOOTH",
"246 52 OFFCURVE",
"241 37 OFFCURVE",
"233 26 CURVE",
"301 -20 LINE"
);
},
{
closed = 1;
nodes = (
"394 481 OFFCURVE",
"365 504 OFFCURVE",
"365 544 CURVE SMOOTH",
"365 550 LINE",
"489 550 LINE",
"489 544 LINE SMOOTH",
"489 504 OFFCURVE",
"463 481 OFFCURVE",
"430 481 CURVE SMOOTH"
);
}
);
width = 591;
}
);
category = Letter;
},
{
glyphname = Ttaa;
lastChange = "2019-02-27 14:35:13 +0000";
layers = (
{
layerId = UUID0;
paths = (
{
closed = 1;
nodes = (
"371 -12 OFFCURVE",
"458 56 OFFCURVE",
"499 125 CURVE",
"451 176 LINE",
"411 118 OFFCURVE",
"353 61 OFFCURVE",
"270 61 CURVE SMOOTH",
"212 61 OFFCURVE",
"151 91 OFFCURVE",
"151 171 CURVE SMOOTH",
"151 550 LINE",
"250 550 LINE",
"250 544 LINE SMOOTH",
"250 465 OFFCURVE",
"310 416 OFFCURVE",
"385 416 CURVE SMOOTH",
"456 416 OFFCURVE",
"518 465 OFFCURVE",
"518 553 CURVE SMOOTH",
"518 625 LINE",
"24 625 LINE",
"24 550 LINE",
"66 550 LINE",
"66 171 LINE SMOOTH",
"66 57 OFFCURVE",
"149 -12 OFFCURVE",
"265 -12 CURVE SMOOTH"
);
},
{
closed = 1;
nodes = (
"351 481 OFFCURVE",
"322 504 OFFCURVE",
"322 544 CURVE SMOOTH",
"322 550 LINE",
"446 550 LINE",
"446 544 LINE SMOOTH",
"446 504 OFFCURVE",
"420 481 OFFCURVE",
"387 481 CURVE SMOOTH"
);
}
);
width = 548;
}
);
category = Letter;
},
{
glyphname = Nnaa;
lastChange = "2019-02-27 14:35:13 +0000";
layers = (
{
layerId = UUID0;
paths = (
{
closed = 1;
nodes = (
"746 -167 OFFCURVE",
"856 -54 OFFCURVE",
"856 108 CURVE SMOOTH",
"856 193 OFFCURVE",
"801 272 OFFCURVE",
"710 272 CURVE SMOOTH",
"684 272 OFFCURVE",
"660 265 OFFCURVE",
"639 253 CURVE",
"639 625 LINE",
"554 625 LINE",
"554 223 LINE",
"530 239 OFFCURVE",
"500 249 OFFCURVE",
"463 249 CURVE SMOOTH",
"400 249 OFFCURVE",
"355 228 OFFCURVE",
"328 197 CURVE",
"301 228 OFFCURVE",
"262 249 OFFCURVE",
"209 249 CURVE SMOOTH",
"91 249 OFFCURVE",
"40 177 OFFCURVE",
"40 100 CURVE SMOOTH",
"40 0 LINE",
"125 0 LINE",
"125 97 LINE SMOOTH",
"125 157 OFFCURVE",
"175 176 OFFCURVE",
"214 176 CURVE SMOOTH",
"260 176 OFFCURVE",
"283 154 OFFCURVE",
"295 124 CURVE",
"294 116 OFFCURVE",
"294 108 OFFCURVE",
"294 100 CURVE SMOOTH",
"294 0 LINE",
"379 0 LINE",
"379 97 LINE SMOOTH",
"379 157 OFFCURVE",
"429 176 OFFCURVE",
"468 176 CURVE SMOOTH",
"509 176 OFFCURVE",
"536 159 OFFCURVE",
"554 134 CURVE",
"554 0 LINE",
"639 0 LINE",
"639 183 LINE",
"654 192 OFFCURVE",
"679 199 OFFCURVE",
"706 199 CURVE SMOOTH",
"754 199 OFFCURVE",
"775 161 OFFCURVE",
"775 103 CURVE SMOOTH",
"775 37 OFFCURVE",
"749 -95 OFFCURVE",
"527 -95 CURVE SMOOTH",
"414 -95 OFFCURVE",
"289 -72 OFFCURVE",
"222 -36 CURVE",
"189 -96 LINE",
"261 -137 OFFCURVE",
"371 -167 OFFCURVE",
"531 -167 CURVE SMOOTH"
);
}
);
width = 886;
}
);
category = Letter;
},
{
glyphname = Kr;
lastChange = "2019-02-27 14:35:13 +0000";
layers = (
{
layerId = UUID0;
paths = (
{
closed = 1;
nodes = (
"431 -53 LINE",
"428 -35 OFFCURVE",
"425 -12 OFFCURVE",
"425 6 CURVE SMOOTH",
"425 47 OFFCURVE",
"439 81 OFFCURVE",
"454 117 CURVE SMOOTH",
"473 162 OFFCURVE",
"490 205 OFFCURVE",
"490 257 CURVE SMOOTH",
"490 349 OFFCURVE",
"448 440 OFFCURVE",
"310 459 CURVE",
"310 550 LINE",
"484 550 LINE",
"484 625 LINE",
"42 625 LINE",
"42 550 LINE",
"225 550 LINE",
"225 462 LINE",
"114 457 OFFCURVE",
"30 390 OFFCURVE",
"30 285 CURVE SMOOTH",
"30 194 OFFCURVE",
"110 143 OFFCURVE",
"187 143 CURVE SMOOTH",
"277 143 OFFCURVE",
"329 186 OFFCURVE",
"357 224 CURVE",
"307 273 LINE",
"281 241 OFFCURVE",
"240 217 OFFCURVE",
"196 217 CURVE SMOOTH",
"159 217 OFFCURVE",
"115 234 OFFCURVE",
"115 287 CURVE SMOOTH",
"115 339 OFFCURVE",
"145 389 OFFCURVE",
"265 389 CURVE SMOOTH",
"381 389 OFFCURVE",
"410 331 OFFCURVE",
"410 258 CURVE SMOOTH",
"410 213 OFFCURVE",
"394 167 OFFCURVE",
"375 123 CURVE SMOOTH",
"359 86 OFFCURVE",
"345 51 OFFCURVE",
"345 0 CURVE SMOOTH",
"345 -21 OFFCURVE",
"348 -45 OFFCURVE",
"351 -62 CURVE"
);
}
);
width = 520;
}
);
category = Letter;
},
{
glyphname = Krr;
lastChange = "2019-02-27 14:35:13 +0000";
layers = (
{
layerId = UUID0;
paths = (
{
closed = 1;
nodes = (
"345 -59 OFFCURVE",
"390 -100 OFFCURVE",
"460 -100 CURVE SMOOTH",
"507 -100 OFFCURVE",
"538 -73 OFFCURVE",
"553 -44 CURVE",
"569 -75 OFFCURVE",
"599 -100 OFFCURVE",
"643 -100 CURVE SMOOTH",
"720 -100 OFFCURVE",
"756 -32 OFFCURVE",
"756 57 CURVE SMOOTH",
"756 70 LINE",
"681 70 LINE",
"681 47 LINE SMOOTH",
"681 -17 OFFCURVE",
"660 -35 OFFCURVE",
"636 -35 CURVE SMOOTH",
"608 -35 OFFCURVE",
"591 -19 OFFCURVE",
"591 41 CURVE SMOOTH",
"591 70 LINE",
"516 70 LINE",
"516 41 LINE SMOOTH",
"516 -17 OFFCURVE",
"495 -35 OFFCURVE",
"469 -35 CURVE SMOOTH",
"445 -35 OFFCURVE",
"425 -20 OFFCURVE",
"425 11 CURVE SMOOTH",
"425 47 OFFCURVE",
"439 81 OFFCURVE",
"454 117 CURVE SMOOTH",
"473 162 OFFCURVE",
"490 205 OFFCURVE",
"490 257 CURVE SMOOTH",
"490 349 OFFCURVE",
"448 440 OFFCURVE",
"310 459 CURVE",
"310 550 LINE",
"484 550 LINE",
"484 625 LINE",
"42 625 LINE",
"42 550 LINE",
"225 550 LINE",
"225 462 LINE",
"114 457 OFFCURVE",
"30 390 OFFCURVE",
"30 285 CURVE SMOOTH",
"30 194 OFFCURVE",
"110 143 OFFCURVE",
"187 143 CURVE SMOOTH",
"277 143 OFFCURVE",
"329 186 OFFCURVE",
"357 224 CURVE",
"307 273 LINE",
"281 241 OFFCURVE",
"240 217 OFFCURVE",
"196 217 CURVE SMOOTH",
"159 217 OFFCURVE",
"115 234 OFFCURVE",
"115 287 CURVE SMOOTH",
"115 339 OFFCURVE",
"145 389 OFFCURVE",
"265 389 CURVE SMOOTH",
"381 389 OFFCURVE",
"410 331 OFFCURVE",
"410 258 CURVE SMOOTH",
"410 213 OFFCURVE",
"394 167 OFFCURVE",
"375 123 CURVE SMOOTH",
"359 86 OFFCURVE",
"345 51 OFFCURVE",
"345 10 CURVE SMOOTH"
);
}
);
width = 776;
}
);
category = Letter;
},
{
glyphname = Kl;
lastChange = "2019-02-27 14:35:13 +0000";
layers = (
{
layerId = UUID0;
paths = (
{
closed = 1;
nodes = (
"308 293 LINE",
"308 390 LINE",
"402 388 OFFCURVE",
"477 348 OFFCURVE",
"477 249 CURVE SMOOTH",
"477 194 OFFCURVE",
"454 143 OFFCURVE",
"454 71 CURVE SMOOTH",
"454 53 OFFCURVE",
"455 35 OFFCURVE",
"457 17 CURVE",
"537 27 LINE",
"535 43 OFFCURVE",
"534 58 OFFCURVE",
"534 72 CURVE SMOOTH",
"534 156 OFFCURVE",
"557 203 OFFCURVE",
"557 265 CURVE SMOOTH",
"557 404 OFFCURVE",
"439 455 OFFCURVE",
"308 459 CURVE",
"308 550 LINE",
"482 550 LINE",
"482 625 LINE",
"24 625 LINE",
"24 550 LINE",
"223 550 LINE",
"223 460 LINE",
"24 460 LINE",
"24 390 LINE",
"223 390 LINE",
"223 293 LINE"
);
},
{
closed = 1;
nodes = (
"342 -81 OFFCURVE",
"383 -64 OFFCURVE",
"408 -43 CURVE",
"375 1 LINE",
"352 -16 OFFCURVE",
"329 -26 OFFCURVE",
"302 -26 CURVE SMOOTH",
"279 -26 OFFCURVE",
"264 -18 OFFCURVE",
"264 2 CURVE SMOOTH",
"264 20 OFFCURVE",
"283 32 OFFCURVE",
"310 49 CURVE SMOOTH",
"344 70 OFFCURVE",
"376 95 OFFCURVE",
"376 134 CURVE SMOOTH",
"376 167 OFFCURVE",
"354 192 OFFCURVE",
"325 204 CURVE",
"325 230 LINE",
"405 230 LINE",
"405 296 LINE",
"24 296 LINE",
"24 230 LINE",
"75 230 LINE",
"75 -53 LINE",
"149 -53 LINE",
"149 230 LINE",
"260 230 LINE",
"260 206 LINE",
"230 200 OFFCURVE",
"207 187 OFFCURVE",
"192 175 CURVE",
"226 133 LINE",
"239 144 OFFCURVE",
"261 156 OFFCURVE",
"280 156 CURVE SMOOTH",
"302 156 OFFCURVE",
"310 142 OFFCURVE",
"310 131 CURVE SMOOTH",
"310 113 OFFCURVE",
"290 100 OFFCURVE",
"258 82 CURVE SMOOTH",
"219 60 OFFCURVE",
"197 32 OFFCURVE",
"197 0 CURVE SMOOTH",
"197 -55 OFFCURVE",
"242 -81 OFFCURVE",
"299 -81 CURVE SMOOTH"
);
}
);
width = 607;
}
);
category = Letter;
},
{
glyphname = Kll;
lastChange = "2019-02-27 14:35:13 +0000";
layers = (
{
layerId = UUID0;
paths = (
{
closed = 1;
nodes = (
"322 -81 OFFCURVE",
"363 -64 OFFCURVE",
"387 -43 CURVE",
"353 1 LINE",
"332 -16 OFFCURVE",
"309 -26 OFFCURVE",
"283 -26 CURVE SMOOTH",
"260 -26 OFFCURVE",
"245 -19 OFFCURVE",
"245 -4 CURVE SMOOTH",
"245 15 OFFCURVE",
"264 28 OFFCURVE",
"293 46 CURVE SMOOTH",
"325 66 OFFCURVE",
"357 91 OFFCURVE",
"357 128 CURVE SMOOTH",
"357 157 OFFCURVE",
"332 181 OFFCURVE",
"299 191 CURVE",
"299 230 LINE",
"347 230 LINE",
"347 180 OFFCURVE",
"376 147 OFFCURVE",
"426 147 CURVE SMOOTH",
"476 147 OFFCURVE",
"509 180 OFFCURVE",
"509 230 CURVE SMOOTH",
"509 296 LINE",
"24 296 LINE",
"24 230 LINE",
"75 230 LINE",
"75 -53 LINE",
"149 -53 LINE",
"149 230 LINE",
"234 230 LINE",
"234 193 LINE",
"205 187 OFFCURVE",
"185 173 OFFCURVE",
"171 160 CURVE",
"205 118 LINE",
"217 130 OFFCURVE",
"237 143 OFFCURVE",
"260 143 CURVE SMOOTH",
"280 143 OFFCURVE",
"291 138 OFFCURVE",
"291 127 CURVE SMOOTH",
"291 112 OFFCURVE",
"271 99 OFFCURVE",
"240 80 CURVE SMOOTH",
"200 55 OFFCURVE",
"178 27 OFFCURVE",
"178 -6 CURVE SMOOTH",
"178 -57 OFFCURVE",
"223 -81 OFFCURVE",
"280 -81 CURVE SMOOTH"
);
},
{
closed = 1;
nodes = (
"409 192 OFFCURVE",
"393 209 OFFCURVE",
"393 230 CURVE",
"463 230 LINE",
"463 208 OFFCURVE",
"449 192 OFFCURVE",
"429 192 CURVE SMOOTH"
);
},
{
closed = 1;
nodes = (
"308 293 LINE",
"308 390 LINE",
"393 390 LINE SMOOTH",
"497 390 OFFCURVE",
"562 348 OFFCURVE",
"562 258 CURVE SMOOTH",
"562 204 OFFCURVE",
"539 143 OFFCURVE",
"539 69 CURVE SMOOTH",
"539 53 OFFCURVE",
"540 35 OFFCURVE",
"542 17 CURVE",
"622 27 LINE",
"620 43 OFFCURVE",
"619 58 OFFCURVE",
"619 75 CURVE SMOOTH",
"619 156 OFFCURVE",
"642 213 OFFCURVE",
"642 272 CURVE SMOOTH",
"642 398 OFFCURVE",
"532 459 OFFCURVE",
"393 459 CURVE SMOOTH",
"308 459 LINE",
"308 550 LINE",
"482 550 LINE",
"482 625 LINE",
"24 625 LINE",
"24 550 LINE",
"223 550 LINE",
"223 460 LINE",
"24 460 LINE",
"24 390 LINE",
"223 390 LINE",
"223 293 LINE"
);
}
);
width = 681;
}
);
category = Letter;
},
{
glyphname = Tl;
lastChange = "2019-02-27 14:35:13 +0000";
layers = (
{
layerId = UUID0;
paths = (
{
closed = 1;
nodes = (
"425 -250 OFFCURVE",
"475 -230 OFFCURVE",
"505 -205 CURVE",
"466 -155 LINE",
"439 -175 OFFCURVE",
"410 -187 OFFCURVE",
"377 -187 CURVE SMOOTH",
"348 -187 OFFCURVE",
"329 -176 OFFCURVE",
"329 -152 CURVE SMOOTH",
"329 -128 OFFCURVE",
"353 -112 OFFCURVE",
"390 -88 CURVE SMOOTH",
"427 -64 OFFCURVE",
"464 -32 OFFCURVE",
"464 15 CURVE SMOOTH",
"464 55 OFFCURVE",
"436 86 OFFCURVE",
"399 99 CURVE",
"399 155 LINE",
"534 155 LINE",
"534 230 LINE",
"24 230 LINE",
"24 155 LINE",
"83 155 LINE",
"83 -240 LINE",
"168 -240 LINE",
"168 155 LINE",
"324 155 LINE",
"324 102 LINE",
"289 95 OFFCURVE",
"263 80 OFFCURVE",
"246 66 CURVE",
"285 18 LINE",
"300 30 OFFCURVE",
"325 44 OFFCURVE",
"347 44 CURVE SMOOTH",
"377 44 OFFCURVE",
"388 26 OFFCURVE",
"388 12 CURVE SMOOTH",
"388 -11 OFFCURVE",
"364 -27 OFFCURVE",
"329 -49 CURVE SMOOTH",
"280 -80 OFFCURVE",
"252 -114 OFFCURVE",
"252 -155 CURVE SMOOTH",
"252 -219 OFFCURVE",
"306 -250 OFFCURVE",
"373 -250 CURVE SMOOTH"
);
},
{
closed = 1;
nodes = (
"418 257 OFFCURVE",
"458 309 OFFCURVE",
"458 372 CURVE SMOOTH",
"458 410 OFFCURVE",
"438 441 OFFCURVE",
"396 458 CURVE",
"415 479 OFFCURVE",
"425 505 OFFCURVE",
"425 533 CURVE SMOOTH",
"425 539 OFFCURVE",
"425 544 OFFCURVE",
"424 550 CURVE",
"498 550 LINE",
"498 625 LINE",
"226 625 LINE",
"226 550 LINE",
"350 550 LINE",
"352 543 OFFCURVE",
"353 536 OFFCURVE",
"353 529 CURVE SMOOTH",
"353 504 OFFCURVE",
"340 481 OFFCURVE",
"309 473 CURVE",
"297 473 LINE",
"297 409 LINE",
"313 409 LINE SMOOTH",
"369 409 OFFCURVE",
"384 391 OFFCURVE",
"384 367 CURVE SMOOTH",
"384 334 OFFCURVE",
"350 321 OFFCURVE",
"310 321 CURVE SMOOTH",
"244 321 OFFCURVE",
"184 345 OFFCURVE",
"142 370 CURVE",
"106 318 LINE",
"163 285 OFFCURVE",
"228 257 OFFCURVE",
"314 257 CURVE SMOOTH"
);
}
);
width = 564;
}
);
category = Letter;
},
{
glyphname = Tll;
lastChange = "2019-02-27 14:35:13 +0000";
layers = (
{
layerId = UUID0;
paths = (
{
closed = 1;
nodes = (
"395 -250 OFFCURVE",
"445 -230 OFFCURVE",
"475 -205 CURVE",
"436 -155 LINE",
"409 -175 OFFCURVE",
"380 -187 OFFCURVE",
"347 -187 CURVE SMOOTH",
"318 -187 OFFCURVE",
"299 -176 OFFCURVE",
"299 -152 CURVE SMOOTH",
"299 -128 OFFCURVE",
"323 -112 OFFCURVE",
"360 -88 CURVE SMOOTH",
"397 -64 OFFCURVE",
"434 -32 OFFCURVE",
"434 15 CURVE SMOOTH",
"434 55 OFFCURVE",
"406 86 OFFCURVE",
"369 99 CURVE",
"369 155 LINE",
"422 155 LINE",
"424 85 OFFCURVE",
"477 41 OFFCURVE",
"539 41 CURVE SMOOTH",
"605 41 OFFCURVE",
"658 87 OFFCURVE",
"658 167 CURVE SMOOTH",
"658 230 LINE",
"24 230 LINE",
"24 155 LINE",
"83 155 LINE",
"83 -240 LINE",
"168 -240 LINE",
"168 155 LINE",
"294 155 LINE",
"294 102 LINE",
"259 95 OFFCURVE",
"233 80 OFFCURVE",
"216 66 CURVE",
"255 18 LINE",
"270 30 OFFCURVE",
"295 44 OFFCURVE",
"317 44 CURVE SMOOTH",
"347 44 OFFCURVE",
"358 26 OFFCURVE",
"358 12 CURVE SMOOTH",
"358 -11 OFFCURVE",
"334 -27 OFFCURVE",
"299 -49 CURVE SMOOTH",
"250 -80 OFFCURVE",
"222 -114 OFFCURVE",
"222 -155 CURVE SMOOTH",
"222 -219 OFFCURVE",
"276 -250 OFFCURVE",
"343 -250 CURVE SMOOTH"
);
},
{
closed = 1;
nodes = (
"516 106 OFFCURVE",
"495 124 OFFCURVE",
"493 155 CURVE",
"587 155 LINE",
"585 124 OFFCURVE",
"567 106 OFFCURVE",
"541 106 CURVE SMOOTH"
);
},
{
closed = 1;
nodes = (
"418 257 OFFCURVE",
"458 309 OFFCURVE",
"458 372 CURVE SMOOTH",
"458 410 OFFCURVE",
"438 441 OFFCURVE",
"396 458 CURVE",
"415 479 OFFCURVE",
"425 505 OFFCURVE",
"425 533 CURVE SMOOTH",
"425 539 OFFCURVE",
"425 544 OFFCURVE",
"424 550 CURVE",
"498 550 LINE",
"498 625 LINE",
"226 625 LINE",
"226 550 LINE",
"350 550 LINE",
"352 543 OFFCURVE",
"353 536 OFFCURVE",
"353 529 CURVE SMOOTH",
"353 504 OFFCURVE",
"340 481 OFFCURVE",
"309 473 CURVE",
"297 473 LINE",
"297 409 LINE",
"313 409 LINE SMOOTH",
"369 409 OFFCURVE",
"384 391 OFFCURVE",
"384 367 CURVE SMOOTH",
"384 334 OFFCURVE",
"350 321 OFFCURVE",
"310 321 CURVE SMOOTH",
"244 321 OFFCURVE",
"184 345 OFFCURVE",
"142 370 CURVE",
"106 318 LINE",
"163 285 OFFCURVE",
"228 257 OFFCURVE",
"314 257 CURVE SMOOTH"
);
}
);
width = 698;
}
);
category = Letter;
},
{
glyphname = JYa;
lastChange = "2019-02-27 14:35:13 +0000";
layers = (
{
layerId = UUID0;
paths = (
{
closed = 1;
nodes = (
"400 -65 OFFCURVE",
"510 -32 OFFCURVE",
"613 45 CURVE",
"574 101 LINE",
"483 37 OFFCURVE",
"408 6 OFFCURVE",
"311 6 CURVE SMOOTH",
"233 6 OFFCURVE",
"160 24 OFFCURVE",
"160 75 CURVE SMOOTH",
"160 103 OFFCURVE",
"180 128 OFFCURVE",
"220 128 CURVE SMOOTH",
"249 128 OFFCURVE",
"276 118 OFFCURVE",
"294 104 CURVE",
"324 165 LINE",
"308 178 OFFCURVE",
"280 196 OFFCURVE",
"253 212 CURVE SMOOTH",
"191 249 OFFCURVE",
"159 309 OFFCURVE",
"159 414 CURVE SMOOTH",
"159 550 LINE",
"289 550 LINE",
"289 290 LINE",
"374 290 LINE",
"374 550 LINE",
"494 550 LINE",
"494 230 LINE",
"579 230 LINE",
"579 550 LINE",
"629 550 LINE",
"629 625 LINE",
"24 625 LINE",
"24 550 LINE",
"74 550 LINE",
"74 411 LINE SMOOTH",
"74 282 OFFCURVE",
"120 228 OFFCURVE",
"172 190 CURVE",
"109 177 OFFCURVE",
"77 130 OFFCURVE",
"77 74 CURVE SMOOTH",
"77 -18 OFFCURVE",
"168 -65 OFFCURVE",
"302 -65 CURVE SMOOTH"
);
}
);
width = 659;
}
);
category = Letter;
},
{
glyphname = TYa;
lastChange = "2019-02-27 14:35:13 +0000";
layers = (
{
layerId = UUID0;
paths = (
{
closed = 1;
nodes = (
"353 -65 OFFCURVE",
"463 -32 OFFCURVE",
"566 45 CURVE",
"527 101 LINE",
"436 37 OFFCURVE",
"361 6 OFFCURVE",
"264 6 CURVE SMOOTH",
"186 6 OFFCURVE",
"113 24 OFFCURVE",
"113 75 CURVE SMOOTH",
"113 103 OFFCURVE",
"133 127 OFFCURVE",
"174 127 CURVE SMOOTH",
"191 127 OFFCURVE",
"210 123 OFFCURVE",
"227 118 CURVE SMOOTH",
"248 112 OFFCURVE",
"277 105 OFFCURVE",
"315 105 CURVE SMOOTH",
"433 105 OFFCURVE",
"492 178 OFFCURVE",
"492 265 CURVE SMOOTH",
"492 347 OFFCURVE",
"433 394 OFFCURVE",
"355 408 CURVE",
"367 429 OFFCURVE",
"376 457 OFFCURVE",
"376 488 CURVE SMOOTH",
"376 513 OFFCURVE",
"370 533 OFFCURVE",
"362 550 CURVE",
"512 550 LINE",
"512 625 LINE",
"79 625 LINE",
"79 550 LINE",
"268 550 LINE",
"283 538 OFFCURVE",
"291 512 OFFCURVE",
"291 484 CURVE SMOOTH",
"291 435 OFFCURVE",
"280 421 OFFCURVE",
"220 412 CURVE",
"220 338 LINE",
"234 340 OFFCURVE",
"248 342 OFFCURVE",
"273 342 CURVE SMOOTH",
"358 342 OFFCURVE",
"407 316 OFFCURVE",
"407 259 CURVE SMOOTH",
"407 214 OFFCURVE",
"373 173 OFFCURVE",
"313 173 CURVE SMOOTH",
"288 173 OFFCURVE",
"258 179 OFFCURVE",
"234 185 CURVE SMOOTH",
"211 191 OFFCURVE",
"184 195 OFFCURVE",
"165 195 CURVE SMOOTH",
"74 195 OFFCURVE",
"30 141 OFFCURVE",
"30 76 CURVE SMOOTH",
"30 -18 OFFCURVE",
"121 -65 OFFCURVE",
"255 -65 CURVE SMOOTH"
);
}
);
width = 592;
}
);
category = Letter;
},
{
glyphname = DYa;
lastChange = "2019-02-27 14:35:13 +0000";
layers = (
{
layerId = UUID0;
paths = (
{
closed = 1;
nodes = (
"231 343 LINE",
"283 292 OFFCURVE",
"348 242 OFFCURVE",
"418 242 CURVE SMOOTH",
"507 242 OFFCURVE",
"546 313 OFFCURVE",
"574 420 CURVE",
"518 434 LINE",
"498 358 OFFCURVE",
"473 317 OFFCURVE",
"415 317 CURVE SMOOTH",
"365 317 OFFCURVE",
"301 372 OFFCURVE",
"241 422 CURVE"
);
},
{
closed = 1;
nodes = (
"250 218 OFFCURVE",
"293 315 OFFCURVE",
"293 399 CURVE SMOOTH",
"293 550 LINE",
"570 550 LINE",
"570 625 LINE",
"64 625 LINE",
"64 550 LINE",
"208 550 LINE",
"208 395 LINE SMOOTH",
"207 315 OFFCURVE",
"182 288 OFFCURVE",
"154 288 CURVE SMOOTH",
"124 288 OFFCURVE",
"109 305 OFFCURVE",
"109 330 CURVE SMOOTH",
"109 358 OFFCURVE",
"130 375 OFFCURVE",
"153 375 CURVE SMOOTH",
"173 375 OFFCURVE",
"197 366 OFFCURVE",
"221 353 CURVE",
"223 429 LINE",
"198 439 OFFCURVE",
"172 445 OFFCURVE",
"145 445 CURVE SMOOTH",
"90 445 OFFCURVE",
"30 405 OFFCURVE",
"30 335 CURVE SMOOTH",
"30 261 OFFCURVE",
"78 218 OFFCURVE",
"153 218 CURVE SMOOTH"
);
},
{
closed = 1;
nodes = (
"498 194 OFFCURVE",
"464 161 OFFCURVE",
"403 161 CURVE SMOOTH",
"376 161 OFFCURVE",
"344 170 OFFCURVE",
"318 179 CURVE SMOOTH",
"291 188 OFFCURVE",
"268 195 OFFCURVE",
"238 195 CURVE SMOOTH",
"147 195 OFFCURVE",
"103 141 OFFCURVE",
"103 76 CURVE SMOOTH",
"103 -18 OFFCURVE",
"194 -65 OFFCURVE",
"328 -65 CURVE SMOOTH",
"426 -65 OFFCURVE",
"536 -32 OFFCURVE",
"639 45 CURVE",
"600 101 LINE",
"509 37 OFFCURVE",
"434 6 OFFCURVE",
"337 6 CURVE SMOOTH",
"259 6 OFFCURVE",
"186 24 OFFCURVE",
"186 75 CURVE SMOOTH",
"186 103 OFFCURVE",
"206 127 OFFCURVE",
"247 127 CURVE SMOOTH",
"266 127 OFFCURVE",
"289 120 OFFCURVE",
"309 112 CURVE SMOOTH",
"332 103 OFFCURVE",
"365 93 OFFCURVE",
"405 93 CURVE SMOOTH",
"516 93 OFFCURVE",
"574 167 OFFCURVE",
"574 249 CURVE SMOOTH",
"574 420 LINE",
"498 276 LINE",
"498 247 LINE SMOOTH"
);
}
);
width = 636;
}
);
category = Letter;
},
{
glyphname = GRa;
lastChange = "2019-02-27 14:35:13 +0000";
layers = (
{
layerId = UUID0;
paths = (
{
closed = 1;
nodes = (
"488 -12 OFFCURVE",
"498 29 OFFCURVE",
"498 64 CURVE SMOOTH",
"498 550 LINE",
"561 550 LINE",
"561 625 LINE",
"24 625 LINE",
"24 550 LINE",
"148 550 LINE",
"148 333 LINE",
"106 324 OFFCURVE",
"31 307 OFFCURVE",
"31 263 CURVE SMOOTH",
"31 215 OFFCURVE",
"155 128 OFFCURVE",
"189 128 CURVE SMOOTH",
"223 128 OFFCURVE",
"233 169 OFFCURVE",
"233 204 CURVE SMOOTH",
"233 550 LINE",
"413 550 LINE",
"413 193 LINE",
"371 184 OFFCURVE",
"296 167 OFFCURVE",
"296 123 CURVE SMOOTH",
"296 75 OFFCURVE",
"420 -12 OFFCURVE",
"454 -12 CURVE SMOOTH"
);
},
{
closed = 1;
nodes = (
"770 -94 LINE",
"737 -49 LINE SMOOTH",
"617 115 OFFCURVE",
"551 192 OFFCURVE",
"443 192 CURVE",
"434 112 LINE",
"527 112 OFFCURVE",
"604 16 OFFCURVE",
"680 -89 CURVE SMOOTH",
"714 -136 LINE"
);
}
);
width = 746;
}
);
category = Letter;
},
{
glyphname = TRa;
lastChange = "2019-02-27 14:35:13 +0000";
layers = (
{
layerId = UUID0;
paths = (
{
closed = 1;
nodes = (
"517 -12 OFFCURVE",
"572 84 OFFCURVE",
"572 185 CURVE SMOOTH",
"572 279 OFFCURVE",
"505 336 OFFCURVE",
"416 355 CURVE",
"442 381 OFFCURVE",
"456 419 OFFCURVE",
"456 458 CURVE SMOOTH",
"456 496 OFFCURVE",
"446 526 OFFCURVE",
"429 550 CURVE",
"592 550 LINE",
"592 625 LINE",
"159 625 LINE",
"159 550 LINE",
"321 550 LINE",
"348 537 OFFCURVE",
"371 500 OFFCURVE",
"371 454 CURVE SMOOTH",
"371 390 OFFCURVE",
"342 363 OFFCURVE",
"306 358 CURVE",
"306 283 LINE",
"325 286 OFFCURVE",
"335 287 OFFCURVE",
"353 287 CURVE SMOOTH",
"446 287 OFFCURVE",
"487 246 OFFCURVE",
"487 177 CURVE SMOOTH",
"487 108 OFFCURVE",
"448 63 OFFCURVE",
"376 63 CURVE SMOOTH",
"272 63 OFFCURVE",
"154 156 OFFCURVE",
"64 355 CURVE",
"0 324 LINE",
"99 90 OFFCURVE",
"232 -12 OFFCURVE",
"378 -12 CURVE SMOOTH"
);
},
{
closed = 1;
nodes = (
"752 -205 LINE",
"719 -160 LINE SMOOTH",
"594 11 OFFCURVE",
"537 62 OFFCURVE",
"392 60 CURVE",
"383 -12 LINE",
"514 -12 OFFCURVE",
"583 -91 OFFCURVE",
"662 -200 CURVE SMOOTH",
"696 -247 LINE"
);
}
);
width = 723;
}
);
category = Letter;
},
{
glyphname = BhRa;
lastChange = "2019-02-27 14:35:13 +0000";
layers = (
{
layerId = UUID0;
paths = (
{
closed = 1;
nodes = (
"520 -12 OFFCURVE",
"601 89 OFFCURVE",
"601 199 CURVE SMOOTH",
"601 325 OFFCURVE",
"501 404 OFFCURVE",
"354 404 CURVE SMOOTH",
"334 404 OFFCURVE",
"307 402 OFFCURVE",
"286 399 CURVE",
"286 550 LINE",
"586 550 LINE",
"586 625 LINE",
"24 625 LINE",
"24 550 LINE",
"201 550 LINE",
"201 380 LINE",
"149 366 OFFCURVE",
"86 323 OFFCURVE",
"86 294 CURVE SMOOTH",
"86 251 OFFCURVE",
"177 198 OFFCURVE",
"231 198 CURVE SMOOTH",
"276 198 OFFCURVE",
"286 239 OFFCURVE",
"286 274 CURVE SMOOTH",
"286 323 LINE",
"308 327 OFFCURVE",
"334 329 OFFCURVE",
"359 329 CURVE SMOOTH",
"445 329 OFFCURVE",
"516 291 OFFCURVE",
"516 199 CURVE SMOOTH",
"516 125 OFFCURVE",
"462 63 OFFCURVE",
"381 63 CURVE SMOOTH",
"319 63 OFFCURVE",
"274 82 OFFCURVE",
"234 122 CURVE",
"188 67 LINE",
"238 14 OFFCURVE",
"300 -12 OFFCURVE",
"388 -12 CURVE SMOOTH"
);
},
{
closed = 1;
nodes = (
"546 -193 LINE",
"513 -148 LINE SMOOTH",
"449 -60 OFFCURVE",
"400 4 OFFCURVE",
"353 46 CURVE",
"246 21 LINE",
"332 -29 OFFCURVE",
"389 -97 OFFCURVE",
"456 -188 CURVE SMOOTH",
"490 -235 LINE"
);
}
);
width = 631;
}
);
category = Letter;
},
{
glyphname = KSsa;
lastChange = "2019-02-27 14:35:13 +0000";
layers = (
{
layerId = UUID0;
paths = (
{
closed = 1;
nodes = (
"468 -53 LINE",
"466 -38 OFFCURVE",
"465 -24 OFFCURVE",
"465 -10 CURVE SMOOTH",
"465 31 OFFCURVE",
"475 79 OFFCURVE",
"484 118 CURVE SMOOTH",
"491 149 OFFCURVE",
"498 185 OFFCURVE",
"498 240 CURVE SMOOTH",
"498 344 OFFCURVE",
"448 433 OFFCURVE",
"310 451 CURVE",
"310 550 LINE",
"484 550 LINE",
"484 625 LINE",
"42 625 LINE",
"42 550 LINE",
"225 550 LINE",
"225 454 LINE",
"113 447 OFFCURVE",
"30 380 OFFCURVE",
"30 270 CURVE SMOOTH",
"30 161 OFFCURVE",
"106 94 OFFCURVE",
"229 94 CURVE SMOOTH",
"295 94 OFFCURVE",
"352 120 OFFCURVE",
"392 159 CURVE",
"392 214 LINE",
"187 371 LINE",
"205 377 OFFCURVE",
"227 380 OFFCURVE",
"255 380 CURVE SMOOTH",
"387 380 OFFCURVE",
"418 326 OFFCURVE",
"418 239 CURVE SMOOTH",
"418 190 OFFCURVE",
"414 164 OFFCURVE",
"407 133 CURVE SMOOTH",
"397 89 OFFCURVE",
"385 35 OFFCURVE",
"385 -11 CURVE SMOOTH",
"385 -28 OFFCURVE",
"386 -45 OFFCURVE",
"388 -62 CURVE"
);
},
{
closed = 1;
nodes = (
"138 167 OFFCURVE",
"115 234 OFFCURVE",
"115 267 CURVE SMOOTH",
"115 289 OFFCURVE",
"119 309 OFFCURVE",
"129 327 CURVE",
"307 186 LINE",
"288 175 OFFCURVE",
"264 167 OFFCURVE",
"235 167 CURVE SMOOTH"
);
}
);
width = 528;
}
);
category = Letter;
},
{
glyphname = KKa;
lastChange = "2019-02-27 14:35:13 +0000";
layers = (
{
layerId = UUID0;
paths = (
{
closed = 1;
nodes = (
"191 147 OFFCURVE",
"159 161 OFFCURVE",
"159 207 CURVE SMOOTH",
"159 258 OFFCURVE",
"196 270 OFFCURVE",
"218 270 CURVE SMOOTH",
"242 270 OFFCURVE",
"265 260 OFFCURVE",
"279 249 CURVE",
"279 196 LINE",
"267 170 OFFCURVE",
"245 147 OFFCURVE",
"216 147 CURVE SMOOTH"
);
},
{
closed = 1;
nodes = (
"402 147 OFFCURVE",
"382 153 OFFCURVE",
"364 167 CURVE",
"364 222 LINE",
"375 246 OFFCURVE",
"396 270 OFFCURVE",
"425 270 CURVE SMOOTH",
"455 270 OFFCURVE",
"482 251 OFFCURVE",
"482 210 CURVE SMOOTH",
"482 166 OFFCURVE",
"451 147 OFFCURVE",
"423 147 CURVE SMOOTH"
);
},
{
closed = 1;
nodes = (
"364 470 LINE",
"364 550 LINE",
"635 550 LINE",
"635 625 LINE",
"44 625 LINE",
"44 550 LINE",
"279 550 LINE",
"279 470 LINE",
"96 470 LINE",
"96 400 LINE",
"279 400 LINE",
"279 318 LINE",
"258 329 OFFCURVE",
"236 333 OFFCURVE",
"217 333 CURVE SMOOTH",
"137 333 OFFCURVE",
"87 274 OFFCURVE",
"87 204 CURVE SMOOTH",
"87 127 OFFCURVE",
"149 84 OFFCURVE",
"204 84 CURVE SMOOTH",
"238 84 OFFCURVE",
"260 94 OFFCURVE",
"279 114 CURVE",
"279 -10 LINE",
"364 -10 LINE",
"364 98 LINE",
"384 87 OFFCURVE",
"406 84 OFFCURVE",
"424 84 CURVE SMOOTH",
"504 84 OFFCURVE",
"554 143 OFFCURVE",
"554 213 CURVE SMOOTH",
"554 286 OFFCURVE",
"501 333 OFFCURVE",
"434 333 CURVE SMOOTH",
"403 333 OFFCURVE",
"382 324 OFFCURVE",
"364 306 CURVE",
"364 400 LINE",
"407 400 LINE SMOOTH",
"541 400 OFFCURVE",
"585 334 OFFCURVE",
"585 234 CURVE SMOOTH",
"585 157 OFFCURVE",
"560 93 OFFCURVE",
"560 15 CURVE SMOOTH",
"560 -1 OFFCURVE",
"561 -21 OFFCURVE",
"563 -41 CURVE",
"643 -32 LINE",
"641 -14 OFFCURVE",
"640 3 OFFCURVE",
"640 20 CURVE SMOOTH",
"640 107 OFFCURVE",
"665 141 OFFCURVE",
"665 230 CURVE SMOOTH",
"665 404 OFFCURVE",
"565 470 OFFCURVE",
"396 470 CURVE SMOOTH"
);
}
);
width = 693;
}
);
category = Letter;
},
{
glyphname = KTa;
lastChange = "2019-02-27 14:35:13 +0000";
layers = (
{
layerId = UUID0;
paths = (
{
closed = 1;
nodes = (
"382 550 LINE",
"556 550 LINE",
"556 625 LINE",
"114 625 LINE",
"114 550 LINE",
"297 550 LINE",
"297 447 LINE",
"164 447 LINE",
"164 377 LINE",
"305 377 LINE",
"319 366 OFFCURVE",
"328 342 OFFCURVE",
"328 311 CURVE SMOOTH",
"328 264 OFFCURVE",
"301 249 OFFCURVE",
"257 239 CURVE",
"257 165 LINE",
"265 167 OFFCURVE",
"285 169 OFFCURVE",
"300 169 CURVE SMOOTH",
"384 169 OFFCURVE",
"414 141 OFFCURVE",
"414 94 CURVE SMOOTH",
"414 36 OFFCURVE",
"373 10 OFFCURVE",
"313 10 CURVE SMOOTH",
"229 10 OFFCURVE",
"146 53 OFFCURVE",
"63 209 CURVE",
"0 169 LINE",
"94 2 OFFCURVE",
"197 -60 OFFCURVE",
"315 -60 CURVE SMOOTH",
"449 -60 OFFCURVE",
"499 13 OFFCURVE",
"499 99 CURVE SMOOTH",
"499 166 OFFCURVE",
"458 214 OFFCURVE",
"384 233 CURVE",
"399 254 OFFCURVE",
"413 283 OFFCURVE",
"413 315 CURVE SMOOTH",
"413 341 OFFCURVE",
"406 360 OFFCURVE",
"395 375 CURVE",
"506 375 OFFCURVE",
"552 306 OFFCURVE",
"552 214 CURVE SMOOTH",
"552 168 OFFCURVE",
"546 136 OFFCURVE",
"540 105 CURVE SMOOTH",
"533 69 OFFCURVE",
"528 32 OFFCURVE",
"528 -1 CURVE SMOOTH",
"528 -21 OFFCURVE",
"529 -41 OFFCURVE",
"531 -61 CURVE",
"611 -52 LINE",
"609 -34 OFFCURVE",
"608 -17 OFFCURVE",
"608 0 CURVE SMOOTH",
"608 35 OFFCURVE",
"611 70 OFFCURVE",
"619 105 CURVE SMOOTH",
"627 141 OFFCURVE",
"632 174 OFFCURVE",
"632 210 CURVE SMOOTH",
"632 373 OFFCURVE",
"543 445 OFFCURVE",
"382 445 CURVE"
);
}
);
width = 661;
}
);
category = Letter;
},
{
glyphname = NgKa;
lastChange = "2019-02-27 14:35:13 +0000";
layers = (
{
layerId = UUID0;
paths = (
{
closed = 1;
nodes = (
"357 -240 LINE",
"357 -146 LINE",
"382 -162 OFFCURVE",
"411 -172 OFFCURVE",
"453 -172 CURVE SMOOTH",
"537 -172 OFFCURVE",
"592 -109 OFFCURVE",
"592 -31 CURVE SMOOTH",
"592 46 OFFCURVE",
"534 103 OFFCURVE",
"450 103 CURVE SMOOTH",
"410 103 OFFCURVE",
"376 90 OFFCURVE",
"357 67 CURVE",
"357 155 LINE",
"583 155 LINE",
"583 230 LINE",
"481 230 LINE",
"220 330 OFFCURVE",
"191 358 OFFCURVE",
"191 438 CURVE SMOOTH",
"191 550 LINE",
"449 550 LINE",
"449 481 LINE",
"524 481 LINE",
"524 625 LINE",
"54 625 LINE",
"54 550 LINE",
"107 550 LINE",
"107 431 LINE SMOOTH",
"107 325 OFFCURVE",
"163 286 OFFCURVE",
"296 230 CURVE",
"30 230 LINE",
"30 155 LINE",
"272 155 LINE",
"272 73 LINE",
"246 91 OFFCURVE",
"211 103 OFFCURVE",
"174 103 CURVE SMOOTH",
"92 103 OFFCURVE",
"31 44 OFFCURVE",
"31 -40 CURVE SMOOTH",
"31 -123 OFFCURVE",
"100 -172 OFFCURVE",
"174 -172 CURVE SMOOTH",
"220 -172 OFFCURVE",
"252 -156 OFFCURVE",
"272 -135 CURVE",
"272 -240 LINE"
);
},
{
closed = 1;
nodes = (
"137 -105 OFFCURVE",
"107 -80 OFFCURVE",
"107 -38 CURVE SMOOTH",
"107 12 OFFCURVE",
"142 36 OFFCURVE",
"183 36 CURVE SMOOTH",
"221 36 OFFCURVE",
"244 24 OFFCURVE",
"272 8 CURVE",
"272 -38 LINE",
"249 -84 OFFCURVE",
"219 -105 OFFCURVE",
"182 -105 CURVE SMOOTH"
);
},
{
closed = 1;
nodes = (
"404 -105 OFFCURVE",
"382 -94 OFFCURVE",
"357 -78 CURVE",
"357 -18 LINE",
"376 17 OFFCURVE",
"408 36 OFFCURVE",
"442 36 CURVE SMOOTH",
"479 36 OFFCURVE",
"516 16 OFFCURVE",
"516 -32 CURVE SMOOTH",
"516 -84 OFFCURVE",
"482 -105 OFFCURVE",
"441 -105 CURVE SMOOTH"
);
}
);
width = 622;
}
);
category = Letter;
},
{
glyphname = JJa;
lastChange = "2019-02-27 14:35:13 +0000";
layers = (
{
layerId = UUID0;
paths = (
{
closed = 1;
nodes = (
"290 -229 LINE SMOOTH",
"290 -158 OFFCURVE",
"262 -124 OFFCURVE",
"223 -76 CURVE SMOOTH",
"191 -36 OFFCURVE",
"159 5 OFFCURVE",
"159 69 CURVE SMOOTH",
"159 155 LINE",
"279 155 LINE",
"279 -55 LINE",
"364 -55 LINE",
"364 155 LINE",
"479 155 LINE",
"479 -115 LINE",
"564 -115 LINE",
"564 155 LINE",
"618 155 LINE",
"618 230 LINE",
"320 230 LINE",
"304 265 OFFCURVE",
"275 292 OFFCURVE",
"243 318 CURVE SMOOTH",
"199 353 OFFCURVE",
"159 391 OFFCURVE",
"159 456 CURVE SMOOTH",
"159 550 LINE",
"279 550 LINE",
"279 340 LINE",
"364 340 LINE",
"364 550 LINE",
"479 550 LINE",
"479 280 LINE",
"564 280 LINE",
"564 550 LINE",
"618 550 LINE",
"618 625 LINE",
"24 625 LINE",
"24 550 LINE",
"74 550 LINE",
"74 459 LINE SMOOTH",
"74 354 OFFCURVE",
"136 306 OFFCURVE",
"188 267 CURVE SMOOTH",
"204 255 OFFCURVE",
"218 243 OFFCURVE",
"230 230 CURVE",
"24 230 LINE",
"24 155 LINE",
"74 155 LINE",
"74 71 LINE SMOOTH",
"74 -20 OFFCURVE",
"111 -63 OFFCURVE",
"146 -104 CURVE SMOOTH",
"176 -139 OFFCURVE",
"205 -173 OFFCURVE",
"205 -237 CURVE",
"290 -249 LINE"
);
}
);
width = 648;
}
);
category = Letter;
},
{
glyphname = RKa;
lastChange = "2019-02-27 14:35:13 +0000";
layers = (
{
layerId = UUID0;
paths = (
{
closed = 1;
nodes = (
"357 -240 LINE",
"357 -146 LINE",
"382 -162 OFFCURVE",
"411 -172 OFFCURVE",
"453 -172 CURVE SMOOTH",
"537 -172 OFFCURVE",
"592 -109 OFFCURVE",
"592 -31 CURVE SMOOTH",
"592 46 OFFCURVE",
"534 103 OFFCURVE",
"450 103 CURVE SMOOTH",
"410 103 OFFCURVE",
"376 90 OFFCURVE",
"357 67 CURVE",
"357 155 LINE",
"583 155 LINE",
"583 230 LINE",
"356 230 LINE",
"364 245 OFFCURVE",
"367 265 OFFCURVE",
"367 284 CURVE SMOOTH",
"367 550 LINE",
"530 550 LINE",
"530 625 LINE",
"113 625 LINE",
"113 550 LINE",
"282 550 LINE",
"282 413 LINE",
"240 404 OFFCURVE",
"165 387 OFFCURVE",
"165 343 CURVE SMOOTH",
"165 310 OFFCURVE",
"222 259 OFFCURVE",
"270 230 CURVE",
"30 230 LINE",
"30 155 LINE",
"272 155 LINE",
"272 73 LINE",
"246 91 OFFCURVE",
"211 103 OFFCURVE",
"174 103 CURVE SMOOTH",
"92 103 OFFCURVE",
"31 44 OFFCURVE",
"31 -40 CURVE SMOOTH",
"31 -123 OFFCURVE",
"100 -172 OFFCURVE",
"174 -172 CURVE SMOOTH",
"220 -172 OFFCURVE",
"252 -156 OFFCURVE",
"272 -135 CURVE",
"272 -240 LINE"
);
},
{
closed = 1;
nodes = (
"137 -105 OFFCURVE",
"107 -80 OFFCURVE",
"107 -38 CURVE SMOOTH",
"107 12 OFFCURVE",
"142 36 OFFCURVE",
"183 36 CURVE SMOOTH",
"221 36 OFFCURVE",
"244 24 OFFCURVE",
"272 8 CURVE",
"272 -38 LINE",
"249 -84 OFFCURVE",
"219 -105 OFFCURVE",
"182 -105 CURVE SMOOTH"
);
},
{
closed = 1;
nodes = (
"404 -105 OFFCURVE",
"382 -94 OFFCURVE",
"357 -78 CURVE",
"357 -18 LINE",
"376 17 OFFCURVE",
"408 36 OFFCURVE",
"442 36 CURVE SMOOTH",
"479 36 OFFCURVE",
"516 16 OFFCURVE",
"516 -32 CURVE SMOOTH",
"516 -84 OFFCURVE",
"482 -105 OFFCURVE",
"441 -105 CURVE SMOOTH"
);
}
);
width = 622;
}
);
category = Letter;
},
{
glyphname = RGa;
lastChange = "2019-02-27 14:35:13 +0000";
layers = (
{
layerId = UUID0;
paths = (
{
closed = 1;
nodes = (
"498 0 LINE",
"498 625 LINE",
"24 625 LINE",
"24 550 LINE",
"413 550 LINE",
"413 465 LINE",
"24 465 LINE",
"24 390 LINE",
"148 390 LINE",
"148 283 LINE",
"106 274 OFFCURVE",
"31 257 OFFCURVE",
"31 213 CURVE SMOOTH",
"31 165 OFFCURVE",
"155 78 OFFCURVE",
"189 78 CURVE SMOOTH",
"223 78 OFFCURVE",
"233 119 OFFCURVE",
"233 154 CURVE SMOOTH",
"233 390 LINE",
"413 390 LINE",
"413 0 LINE"
);
}
);
width = 558;
}
);
category = Letter;
},
{
glyphname = RJa;
lastChange = "2019-02-27 14:35:13 +0000";
layers = (
{
layerId = UUID0;
paths = (
{
closed = 1;
nodes = (
"320 -108 OFFCURVE",
"331 -73 OFFCURVE",
"331 -35 CURVE SMOOTH",
"331 53 OFFCURVE",
"281 92 OFFCURVE",
"235 127 CURVE SMOOTH",
"195 157 OFFCURVE",
"159 184 OFFCURVE",
"159 244 CURVE SMOOTH",
"159 390 LINE",
"289 390 LINE",
"289 150 LINE",
"374 150 LINE",
"374 390 LINE",
"494 390 LINE",
"494 0 LINE",
"579 0 LINE",
"579 625 LINE",
"24 625 LINE",
"24 550 LINE",
"494 550 LINE",
"494 465 LINE",
"24 465 LINE",
"24 390 LINE",
"74 390 LINE",
"74 241 LINE SMOOTH",
"74 143 OFFCURVE",
"124 107 OFFCURVE",
"171 74 CURVE SMOOTH",
"211 46 OFFCURVE",
"246 21 OFFCURVE",
"246 -37 CURVE SMOOTH",
"246 -58 OFFCURVE",
"241 -73 OFFCURVE",
"233 -84 CURVE",
"301 -130 LINE"
);
}
);
width = 639;
}
);
category = Letter;
},
{
glyphname = RVa;
lastChange = "2019-02-27 14:35:13 +0000";
layers = (
{
layerId = UUID0;
paths = (
{
closed = 1;
nodes = (
"445 0 LINE",
"445 625 LINE",
"24 625 LINE",
"24 550 LINE",
"360 550 LINE",
"360 465 LINE",
"24 465 LINE",
"24 390 LINE",
"80 390 LINE",
"54 358 OFFCURVE",
"38 321 OFFCURVE",
"38 269 CURVE SMOOTH",
"38 151 OFFCURVE",
"128 90 OFFCURVE",
"232 90 CURVE SMOOTH",
"291 90 OFFCURVE",
"333 107 OFFCURVE",
"360 122 CURVE",
"360 0 LINE"
);
},
{
closed = 1;
nodes = (
"185 165 OFFCURVE",
"123 193 OFFCURVE",
"123 278 CURVE SMOOTH",
"123 330 OFFCURVE",
"144 365 OFFCURVE",
"184 390 CURVE",
"360 390 LINE",
"360 210 LINE",
"334 184 OFFCURVE",
"290 165 OFFCURVE",
"238 165 CURVE SMOOTH"
);
}
);
width = 505;
}
);
category = Letter;
},
{
glyphname = RNna;
lastChange = "2019-02-27 14:35:13 +0000";
layers = (
{
layerId = UUID0;
paths = (
{
closed = 1;
nodes = (
"125 0 LINE",
"125 97 LINE SMOOTH",
"125 157 OFFCURVE",
"175 176 OFFCURVE",
"214 176 CURVE SMOOTH",
"260 176 OFFCURVE",
"283 154 OFFCURVE",
"295 124 CURVE",
"294 116 OFFCURVE",
"294 108 OFFCURVE",
"294 100 CURVE SMOOTH",
"294 0 LINE",
"379 0 LINE",
"379 97 LINE SMOOTH",
"379 157 OFFCURVE",
"429 176 OFFCURVE",
"468 176 CURVE SMOOTH",
"509 176 OFFCURVE",
"536 159 OFFCURVE",
"554 134 CURVE",
"554 0 LINE",
"639 0 LINE",
"639 625 LINE",
"24 625 LINE",
"24 550 LINE",
"554 550 LINE",
"554 223 LINE",
"530 239 OFFCURVE",
"500 249 OFFCURVE",
"463 249 CURVE SMOOTH",
"400 249 OFFCURVE",
"355 228 OFFCURVE",
"328 197 CURVE",
"301 228 OFFCURVE",
"262 249 OFFCURVE",
"209 249 CURVE SMOOTH",
"91 249 OFFCURVE",
"40 177 OFFCURVE",
"40 100 CURVE SMOOTH",
"40 0 LINE"
);
}
);
width = 699;
}
);
category = Letter;
},
{
glyphname = RTha;
lastChange = "2019-02-27 14:35:13 +0000";
layers = (
{
layerId = UUID0;
paths = (
{
closed = 1;
nodes = (
"540 -220 LINE",
"527 -193 OFFCURVE",
"510 -156 OFFCURVE",
"510 -110 CURVE SMOOTH",
"510 -87 OFFCURVE",
"516 -59 OFFCURVE",
"523 -27 CURVE SMOOTH",
"534 20 OFFCURVE",
"546 78 OFFCURVE",
"546 147 CURVE SMOOTH",
"546 325 OFFCURVE",
"430 383 OFFCURVE",
"318 391 CURVE",
"333 413 OFFCURVE",
"341 441 OFFCURVE",
"341 475 CURVE SMOOTH",
"341 507 OFFCURVE",
"333 532 OFFCURVE",
"319 550 CURVE",
"470 550 LINE",
"470 625 LINE",
"24 625 LINE",
"24 550 LINE",
"198 550 LINE",
"235 545 OFFCURVE",
"256 522 OFFCURVE",
"256 471 CURVE SMOOTH",
"256 413 OFFCURVE",
"227 397 OFFCURVE",
"195 392 CURVE",
"152 392 LINE",
"152 322 LINE",
"187 322 LINE SMOOTH",
"273 322 OFFCURVE",
"314 269 OFFCURVE",
"314 190 CURVE SMOOTH",
"314 113 OFFCURVE",
"267 63 OFFCURVE",
"191 63 CURVE SMOOTH",
"130 63 OFFCURVE",
"86 90 OFFCURVE",
"40 130 CURVE",
"-4 72 LINE",
"40 33 OFFCURVE",
"106 -12 OFFCURVE",
"199 -12 CURVE SMOOTH",
"339 -12 OFFCURVE",
"399 91 OFFCURVE",
"399 191 CURVE SMOOTH",
"399 239 OFFCURVE",
"383 280 OFFCURVE",
"354 312 CURVE",
"440 291 OFFCURVE",
"466 238 OFFCURVE",
"466 147 CURVE SMOOTH",
"466 74 OFFCURVE",
"455 21 OFFCURVE",
"444 -24 CURVE SMOOTH",
"436 -58 OFFCURVE",
"429 -88 OFFCURVE",
"429 -119 CURVE SMOOTH",
"429 -176 OFFCURVE",
"451 -215 OFFCURVE",
"469 -246 CURVE"
);
}
);
width = 576;
}
);
category = Letter;
},
{
glyphname = RYa;
lastChange = "2019-02-27 14:35:13 +0000";
layers = (
{
layerId = UUID0;
paths = (
{
closed = 1;
nodes = (
"614 5 LINE",
"567 5 OFFCURVE",
"536 38 OFFCURVE",
"536 107 CURVE SMOOTH",
"536 280 LINE",
"457 280 LINE",
"428 204 OFFCURVE",
"335 175 OFFCURVE",
"269 175 CURVE SMOOTH",
"199 175 OFFCURVE",
"147 198 OFFCURVE",
"147 264 CURVE SMOOTH",
"147 317 OFFCURVE",
"204 359 OFFCURVE",
"290 359 CURVE",
"290 414 LINE",
"230 430 OFFCURVE",
"171 493 OFFCURVE",
"160 550 CURVE",
"517 550 LINE",
"517 625 LINE",
"24 625 LINE",
"24 550 LINE",
"67 550 LINE",
"85 485 OFFCURVE",
"129 434 OFFCURVE",
"173 402 CURVE",
"106 379 OFFCURVE",
"62 331 OFFCURVE",
"62 259 CURVE SMOOTH",
"62 169 OFFCURVE",
"130 100 OFFCURVE",
"264 100 CURVE SMOOTH",
"329 100 OFFCURVE",
"408 120 OFFCURVE",
"457 176 CURVE",
"457 101 LINE SMOOTH",
"457 -4 OFFCURVE",
"516 -60 OFFCURVE",
"602 -60 CURVE"
);
}
);
width = 614;
}
);
category = Letter;
},
{
glyphname = RSsa;
lastChange = "2019-02-27 14:35:13 +0000";
layers = (
{
layerId = UUID0;
paths = (
{
closed = 1;
nodes = (
"500 -50 LINE",
"500 341 LINE",
"415 341 LINE",
"415 180 LINE",
"233 334 LINE",
"233 550 LINE",
"500 550 LINE",
"500 625 LINE",
"24 625 LINE",
"24 550 LINE",
"148 550 LINE",
"148 363 LINE",
"106 354 OFFCURVE",
"31 337 OFFCURVE",
"31 293 CURVE SMOOTH",
"31 264 OFFCURVE",
"74 215 OFFCURVE",
"117 180 CURVE",
"117 148 LINE SMOOTH",
"117 8 OFFCURVE",
"213 -23 OFFCURVE",
"290 -23 CURVE SMOOTH",
"348 -23 OFFCURVE",
"388 -5 OFFCURVE",
"415 14 CURVE",
"415 -50 LINE"
);
},
{
closed = 1;
nodes = (
"257 50 OFFCURVE",
"202 62 OFFCURVE",
"202 136 CURVE SMOOTH",
"202 141 LINE",
"225 155 OFFCURVE",
"233 204 OFFCURVE",
"233 234 CURVE",
"233 238 LINE",
"409 89 LINE",
"382 65 OFFCURVE",
"348 50 OFFCURVE",
"304 50 CURVE SMOOTH"
);
}
);
width = 560;
}
);
category = Letter;
},
{
glyphname = RHa;
lastChange = "2019-02-27 14:35:13 +0000";
layers = (
{
layerId = UUID0;
paths = (
{
closed = 1;
nodes = (
"480 -54 OFFCURVE",
"547 11 OFFCURVE",
"547 99 CURVE SMOOTH",
"547 183 OFFCURVE",
"489 245 OFFCURVE",
"398 245 CURVE SMOOTH",
"326 245 OFFCURVE",
"278 205 OFFCURVE",
"259 154 CURVE",
"225 163 OFFCURVE",
"207 178 OFFCURVE",
"207 210 CURVE SMOOTH",
"207 232 OFFCURVE",
"216 248 OFFCURVE",
"226 265 CURVE SMOOTH",
"239 286 OFFCURVE",
"253 310 OFFCURVE",
"253 352 CURVE SMOOTH",
"253 550 LINE",
"376 550 LINE",
"376 625 LINE",
"24 625 LINE",
"24 550 LINE",
"168 550 LINE",
"168 433 LINE",
"126 424 OFFCURVE",
"71 399 OFFCURVE",
"71 363 CURVE SMOOTH",
"71 333 OFFCURVE",
"108 302 OFFCURVE",
"147 278 CURVE",
"139 261 OFFCURVE",
"130 235 OFFCURVE",
"130 210 CURVE SMOOTH",
"130 124 OFFCURVE",
"188 81 OFFCURVE",
"311 76 CURVE",
"321 131 OFFCURVE",
"350 170 OFFCURVE",
"398 170 CURVE SMOOTH",
"441 170 OFFCURVE",
"466 144 OFFCURVE",
"466 98 CURVE SMOOTH",
"466 41 OFFCURVE",
"433 18 OFFCURVE",
"386 2 CURVE",
"408 -67 LINE"
);
}
);
width = 547;
}
);
category = Letter;
},
{
glyphname = RTa;
lastChange = "2019-02-27 14:35:13 +0000";
layers = (
{
layerId = UUID0;
paths = (
{
closed = 1;
nodes = (
"358 -200 OFFCURVE",
"428 -121 OFFCURVE",
"428 -22 CURVE SMOOTH",
"428 50 OFFCURVE",
"389 100 OFFCURVE",
"316 126 CURVE",
"352 169 OFFCURVE",
"356 233 OFFCURVE",
"356 311 CURVE SMOOTH",
"356 550 LINE",
"469 550 LINE",
"469 625 LINE",
"109 625 LINE",
"109 550 LINE",
"271 550 LINE",
"271 433 LINE",
"229 424 OFFCURVE",
"170 402 OFFCURVE",
"170 363 CURVE SMOOTH",
"170 338 OFFCURVE",
"193 320 OFFCURVE",
"217 301 CURVE SMOOTH",
"243 281 OFFCURVE",
"271 259 OFFCURVE",
"271 222 CURVE SMOOTH",
"271 164 OFFCURVE",
"238 141 OFFCURVE",
"204 135 CURVE",
"184 133 LINE",
"184 60 LINE",
"197 61 OFFCURVE",
"215 62 OFFCURVE",
"229 62 CURVE SMOOTH",
"312 62 OFFCURVE",
"343 19 OFFCURVE",
"343 -29 CURVE SMOOTH",
"343 -101 OFFCURVE",
"282 -130 OFFCURVE",
"227 -130 CURVE SMOOTH",
"140 -130 OFFCURVE",
"100 -94 OFFCURVE",
"50 -43 CURVE",
"0 -93 LINE",
"59 -158 OFFCURVE",
"125 -200 OFFCURVE",
"229 -200 CURVE SMOOTH"
);
}
);
width = 499;
}
);
category = Letter;
},
{
glyphname = JNya;
lastChange = "2019-02-27 14:35:13 +0000";
layers = (
{
layerId = UUID0;
paths = (
{
closed = 1;
nodes = (
"537 -228 OFFCURVE",
"612 -171 OFFCURVE",
"612 -78 CURVE SMOOTH",
"612 15 OFFCURVE",
"539 77 OFFCURVE",
"433 85 CURVE",
"433 155 LINE",
"618 155 LINE",
"618 230 LINE",
"320 230 LINE",
"303 267 OFFCURVE",
"272 294 OFFCURVE",
"241 320 CURVE SMOOTH",
"199 356 OFFCURVE",
"159 392 OFFCURVE",
"159 456 CURVE SMOOTH",
"159 550 LINE",
"279 550 LINE",
"279 340 LINE",
"364 340 LINE",
"364 550 LINE",
"479 550 LINE",
"479 280 LINE",
"564 280 LINE",
"564 550 LINE",
"618 550 LINE",
"618 625 LINE",
"24 625 LINE",
"24 550 LINE",
"74 550 LINE",
"74 459 LINE SMOOTH",
"74 353 OFFCURVE",
"136 305 OFFCURVE",
"188 266 CURVE SMOOTH",
"204 254 OFFCURVE",
"220 242 OFFCURVE",
"232 230 CURVE",
"54 230 LINE",
"54 155 LINE",
"114 155 LINE",
"114 -240 LINE",
"199 -240 LINE",
"199 155 LINE",
"348 155 LINE",
"348 78 LINE",
"306 69 OFFCURVE",
"251 44 OFFCURVE",
"251 8 CURVE SMOOTH",
"251 -40 OFFCURVE",
"355 -107 OFFCURVE",
"389 -107 CURVE SMOOTH",
"423 -107 OFFCURVE",
"433 -66 OFFCURVE",
"433 -31 CURVE SMOOTH",
"433 15 LINE",
"487 9 OFFCURVE",
"530 -18 OFFCURVE",
"530 -77 CURVE SMOOTH",
"530 -129 OFFCURVE",
"495 -160 OFFCURVE",
"418 -190 CURVE",
"447 -250 LINE"
);
}
);
width = 648;
}
);
category = Letter;
},
{
glyphname = TTha;
lastChange = "2019-02-27 14:35:13 +0000";
layers = (
{
layerId = UUID0;
paths = (
{
closed = 1;
nodes = (
"491 -220 LINE",
"478 -193 OFFCURVE",
"461 -156 OFFCURVE",
"461 -110 CURVE SMOOTH",
"461 -85 OFFCURVE",
"469 -57 OFFCURVE",
"480 -27 CURVE SMOOTH",
"494 11 OFFCURVE",
"507 52 OFFCURVE",
"507 99 CURVE SMOOTH",
"507 219 OFFCURVE",
"403 253 OFFCURVE",
"324 262 CURVE",
"345 282 OFFCURVE",
"356 310 OFFCURVE",
"356 345 CURVE SMOOTH",
"356 396 OFFCURVE",
"327 426 OFFCURVE",
"285 438 CURVE",
"315 455 OFFCURVE",
"330 490 OFFCURVE",
"330 531 CURVE SMOOTH",
"330 585 OFFCURVE",
"299 625 OFFCURVE",
"233 625 CURVE SMOOTH",
"63 625 LINE",
"63 550 LINE",
"197 550 LINE SMOOTH",
"231 550 OFFCURVE",
"253 547 OFFCURVE",
"253 521 CURVE SMOOTH",
"253 498 OFFCURVE",
"237 460 OFFCURVE",
"175 460 CURVE SMOOTH",
"147 460 LINE",
"147 390 LINE",
"182 390 LINE SMOOTH",
"248 390 OFFCURVE",
"278 377 OFFCURVE",
"278 341 CURVE SMOOTH",
"278 300 OFFCURVE",
"241 265 OFFCURVE",
"176 265 CURVE SMOOTH",
"113 265 LINE",
"113 195 LINE",
"226 195 LINE SMOOTH",
"278 195 OFFCURVE",
"298 168 OFFCURVE",
"298 138 CURVE SMOOTH",
"298 84 OFFCURVE",
"258 62 OFFCURVE",
"207 62 CURVE SMOOTH",
"148 62 OFFCURVE",
"92 79 OFFCURVE",
"39 113 CURVE",
"2 55 LINE",
"58 16 OFFCURVE",
"127 -8 OFFCURVE",
"203 -8 CURVE SMOOTH",
"304 -8 OFFCURVE",
"376 38 OFFCURVE",
"376 135 CURVE SMOOTH",
"376 151 OFFCURVE",
"372 167 OFFCURVE",
"365 181 CURVE",
"406 168 OFFCURVE",
"427 143 OFFCURVE",
"427 92 CURVE SMOOTH",
"427 52 OFFCURVE",
"421 31 OFFCURVE",
"402 -21 CURVE SMOOTH",
"392 -48 OFFCURVE",
"380 -86 OFFCURVE",
"380 -119 CURVE SMOOTH",
"380 -176 OFFCURVE",
"402 -215 OFFCURVE",
"420 -246 CURVE"
);
}
);
width = 537;
}
);
category = Letter;
},
{
glyphname = DDha;
lastChange = "2019-02-27 14:35:13 +0000";
layers = (
{
layerId = UUID0;
paths = (
{
closed = 1;
nodes = (
"587 -234 LINE",
"644 -193 LINE",
"571 -65 OFFCURVE",
"507 29 OFFCURVE",
"439 90 CURVE",
"485 163 OFFCURVE",
"546 318 OFFCURVE",
"569 420 CURVE",
"505 433 LINE",
"471 327 OFFCURVE",
"428 213 OFFCURVE",
"382 131 CURVE",
"332 162 OFFCURVE",
"279 178 OFFCURVE",
"223 178 CURVE SMOOTH",
"138 178 OFFCURVE",
"78 126 OFFCURVE",
"78 57 CURVE SMOOTH",
"78 -18 OFFCURVE",
"137 -61 OFFCURVE",
"222 -61 CURVE SMOOTH",
"290 -61 OFFCURVE",
"348 -30 OFFCURVE",
"399 30 CURVE",
"452 -22 OFFCURVE",
"518 -113 OFFCURVE",
"585 -233 CURVE"
);
},
{
closed = 1;
nodes = (
"188 9 OFFCURVE",
"153 19 OFFCURVE",
"153 57 CURVE SMOOTH",
"153 101 OFFCURVE",
"196 108 OFFCURVE",
"226 108 CURVE SMOOTH",
"265 108 OFFCURVE",
"305 95 OFFCURVE",
"345 74 CURVE",
"307 29 OFFCURVE",
"271 9 OFFCURVE",
"226 9 CURVE SMOOTH"
);
},
{
closed = 1;
nodes = (
"231 343 LINE",
"283 292 OFFCURVE",
"348 242 OFFCURVE",
"418 242 CURVE SMOOTH",
"500 242 OFFCURVE",
"533 313 OFFCURVE",
"561 420 CURVE",
"505 434 LINE",
"481 358 OFFCURVE",
"466 317 OFFCURVE",
"415 317 CURVE SMOOTH",
"365 317 OFFCURVE",
"301 371 OFFCURVE",
"241 422 CURVE"
);
},
{
closed = 1;
nodes = (
"250 218 OFFCURVE",
"293 315 OFFCURVE",
"293 399 CURVE SMOOTH",
"293 550 LINE",
"549 550 LINE",
"549 625 LINE",
"64 625 LINE",
"64 550 LINE",
"208 550 LINE",
"208 395 LINE SMOOTH",
"208 317 OFFCURVE",
"182 288 OFFCURVE",
"154 288 CURVE SMOOTH",
"124 288 OFFCURVE",
"109 305 OFFCURVE",
"109 330 CURVE SMOOTH",
"109 358 OFFCURVE",
"130 375 OFFCURVE",
"153 375 CURVE SMOOTH",
"173 375 OFFCURVE",
"197 366 OFFCURVE",
"221 353 CURVE",
"223 429 LINE",
"198 439 OFFCURVE",
"172 445 OFFCURVE",
"145 445 CURVE SMOOTH",
"90 445 OFFCURVE",
"30 405 OFFCURVE",
"30 335 CURVE SMOOTH",
"30 261 OFFCURVE",
"78 218 OFFCURVE",
"153 218 CURVE SMOOTH"
);
}
);
width = 613;
}
);
category = Letter;
},
{
glyphname = NTha;
lastChange = "2019-02-27 14:35:13 +0000";
layers = (
{
layerId = UUID0;
paths = (
{
closed = 1;
nodes = (
"522 -220 LINE",
"509 -193 OFFCURVE",
"492 -156 OFFCURVE",
"492 -110 CURVE SMOOTH",
"492 -85 OFFCURVE",
"500 -57 OFFCURVE",
"511 -27 CURVE SMOOTH",
"525 11 OFFCURVE",
"538 52 OFFCURVE",
"538 99 CURVE SMOOTH",
"538 202 OFFCURVE",
"462 241 OFFCURVE",
"392 256 CURVE",
"392 550 LINE",
"462 550 LINE",
"462 625 LINE",
"24 625 LINE",
"24 550 LINE",
"307 550 LINE",
"307 455 LINE",
"64 455 LINE",
"64 380 LINE",
"307 380 LINE",
"307 265 LINE",
"144 265 LINE",
"144 195 LINE",
"257 195 LINE SMOOTH",
"309 195 OFFCURVE",
"329 168 OFFCURVE",
"329 138 CURVE SMOOTH",
"329 84 OFFCURVE",
"289 62 OFFCURVE",
"238 62 CURVE SMOOTH",
"179 62 OFFCURVE",
"123 79 OFFCURVE",
"70 113 CURVE",
"33 55 LINE",
"89 16 OFFCURVE",
"158 -8 OFFCURVE",
"234 -8 CURVE SMOOTH",
"335 -8 OFFCURVE",
"407 38 OFFCURVE",
"407 135 CURVE SMOOTH",
"407 151 OFFCURVE",
"403 167 OFFCURVE",
"396 181 CURVE",
"437 168 OFFCURVE",
"458 143 OFFCURVE",
"458 92 CURVE SMOOTH",
"458 52 OFFCURVE",
"452 31 OFFCURVE",
"433 -21 CURVE SMOOTH",
"423 -48 OFFCURVE",
"411 -87 OFFCURVE",
"411 -119 CURVE SMOOTH",
"411 -176 OFFCURVE",
"433 -215 OFFCURVE",
"451 -246 CURVE"
);
}
);
width = 568;
}
);
category = Letter;
},
{
glyphname = NDha;
lastChange = "2019-02-27 14:35:13 +0000";
layers = (
{
layerId = UUID0;
paths = (
{
closed = 1;
nodes = (
"603 -145 LINE",
"527 -11 OFFCURVE",
"463 90 OFFCURVE",
"393 156 CURVE",
"411 209 OFFCURVE",
"422 277 OFFCURVE",
"422 361 CURVE SMOOTH",
"422 550 LINE",
"492 550 LINE",
"492 625 LINE",
"24 625 LINE",
"24 550 LINE",
"337 550 LINE",
"337 455 LINE",
"64 455 LINE",
"64 380 LINE",
"337 380 LINE",
"337 329 LINE SMOOTH",
"337 282 OFFCURVE",
"332 242 OFFCURVE",
"324 208 CURVE",
"281 232 OFFCURVE",
"234 245 OFFCURVE",
"181 245 CURVE SMOOTH",
"113 245 OFFCURVE",
"34 203 OFFCURVE",
"34 115 CURVE SMOOTH",
"34 30 OFFCURVE",
"101 -12 OFFCURVE",
"186 -12 CURVE SMOOTH",
"257 -12 OFFCURVE",
"318 17 OFFCURVE",
"360 84 CURVE",
"414 28 OFFCURVE",
"475 -57 OFFCURVE",
"546 -185 CURVE"
);
},
{
closed = 1;
nodes = (
"152 58 OFFCURVE",
"112 70 OFFCURVE",
"112 115 CURVE SMOOTH",
"112 162 OFFCURVE",
"156 175 OFFCURVE",
"186 175 CURVE SMOOTH",
"221 175 OFFCURVE",
"259 164 OFFCURVE",
"300 136 CURVE",
"274 84 OFFCURVE",
"236 58 OFFCURVE",
"188 58 CURVE SMOOTH"
);
}
);
width = 573;
}
);
category = Letter;
},
{
glyphname = SsTta;
lastChange = "2019-02-27 14:35:13 +0000";
layers = (
{
layerId = UUID0;
paths = (
{
closed = 1;
nodes = (
"415 -250 OFFCURVE",
"483 -167 OFFCURVE",
"507 -128 CURVE",
"446 -87 LINE",
"419 -131 OFFCURVE",
"370 -177 OFFCURVE",
"298 -177 CURVE SMOOTH",
"240 -177 OFFCURVE",
"179 -152 OFFCURVE",
"179 -60 CURVE SMOOTH",
"179 115 LINE",
"416 115 LINE",
"416 35 LINE",
"501 35 LINE",
"501 115 LINE",
"554 115 LINE",
"554 190 LINE",
"501 190 LINE",
"501 550 LINE",
"565 550 LINE",
"565 625 LINE",
"416 625 LINE",
"416 432 LINE",
"164 625 LINE",
"24 625 LINE",
"24 550 LINE",
"79 550 LINE",
"79 400 LINE SMOOTH",
"79 285 OFFCURVE",
"144 240 OFFCURVE",
"262 240 CURVE SMOOTH",
"318 240 OFFCURVE",
"386 261 OFFCURVE",
"416 288 CURVE",
"416 190 LINE",
"39 190 LINE",
"39 115 LINE",
"94 115 LINE",
"94 -67 LINE SMOOTH",
"94 -184 OFFCURVE",
"181 -250 OFFCURVE",
"293 -250 CURVE SMOOTH"
);
},
{
closed = 1;
nodes = (
"195 313 OFFCURVE",
"164 334 OFFCURVE",
"164 404 CURVE SMOOTH",
"164 532 LINE",
"397 355 LINE",
"368 331 OFFCURVE",
"326 313 OFFCURVE",
"263 313 CURVE SMOOTH"
);
}
);
width = 595;
}
);
category = Letter;
},
{
glyphname = SsTtha;
lastChange = "2019-02-27 14:35:13 +0000";
layers = (
{
layerId = UUID0;
paths = (
{
closed = 1;
nodes = (
"682 -218 LINE",
"606 -84 OFFCURVE",
"542 17 OFFCURVE",
"472 83 CURVE",
"490 136 OFFCURVE",
"501 205 OFFCURVE",
"501 289 CURVE SMOOTH",
"501 551 LINE",
"565 551 LINE",
"565 626 LINE",
"416 626 LINE",
"416 423 LINE",
"164 626 LINE",
"24 626 LINE",
"24 551 LINE",
"79 551 LINE",
"79 391 LINE SMOOTH",
"79 276 OFFCURVE",
"144 231 OFFCURVE",
"262 231 CURVE SMOOTH",
"318 231 OFFCURVE",
"386 252 OFFCURVE",
"416 279 CURVE",
"416 256 LINE SMOOTH",
"416 209 OFFCURVE",
"411 169 OFFCURVE",
"403 135 CURVE",
"360 159 OFFCURVE",
"313 172 OFFCURVE",
"260 172 CURVE SMOOTH",
"192 172 OFFCURVE",
"113 130 OFFCURVE",
"113 42 CURVE SMOOTH",
"113 -43 OFFCURVE",
"180 -85 OFFCURVE",
"265 -85 CURVE SMOOTH",
"336 -85 OFFCURVE",
"397 -56 OFFCURVE",
"439 11 CURVE",
"493 -45 OFFCURVE",
"554 -130 OFFCURVE",
"625 -258 CURVE"
);
},
{
closed = 1;
nodes = (
"231 -15 OFFCURVE",
"191 -3 OFFCURVE",
"191 42 CURVE SMOOTH",
"191 89 OFFCURVE",
"235 102 OFFCURVE",
"265 102 CURVE SMOOTH",
"300 102 OFFCURVE",
"338 91 OFFCURVE",
"379 63 CURVE",
"353 11 OFFCURVE",
"315 -15 OFFCURVE",
"267 -15 CURVE SMOOTH"
);
},
{
closed = 1;
nodes = (
"195 304 OFFCURVE",
"164 325 OFFCURVE",
"164 395 CURVE SMOOTH",
"164 533 LINE",
"397 346 LINE",
"368 322 OFFCURVE",
"326 304 OFFCURVE",
"263 304 CURVE SMOOTH"
);
}
);
width = 652;
}
);
category = Letter;
},
{
glyphname = SsNna;
lastChange = "2019-02-27 14:35:13 +0000";
layers = (
{
layerId = UUID0;
paths = (
{
closed = 1;
nodes = (
"110 -60 LINE",
"110 37 LINE SMOOTH",
"110 97 OFFCURVE",
"138 116 OFFCURVE",
"166 116 CURVE SMOOTH",
"206 116 OFFCURVE",
"225 91 OFFCURVE",
"225 40 CURVE SMOOTH",
"225 -60 LINE",
"300 -60 LINE",
"300 37 LINE SMOOTH",
"300 97 OFFCURVE",
"328 116 OFFCURVE",
"356 116 CURVE SMOOTH",
"397 116 OFFCURVE",
"411 90 OFFCURVE",
"416 48 CURVE",
"416 -60 LINE",
"501 -60 LINE",
"501 550 LINE",
"565 550 LINE",
"565 625 LINE",
"416 625 LINE",
"416 422 LINE",
"164 625 LINE",
"24 625 LINE",
"24 550 LINE",
"79 550 LINE",
"79 390 LINE SMOOTH",
"79 275 OFFCURVE",
"144 230 OFFCURVE",
"262 230 CURVE SMOOTH",
"318 230 OFFCURVE",
"386 251 OFFCURVE",
"416 278 CURVE",
"416 172 LINE",
"400 180 OFFCURVE",
"381 184 OFFCURVE",
"358 184 CURVE SMOOTH",
"317 184 OFFCURVE",
"283 166 OFFCURVE",
"260 138 CURVE",
"240 166 OFFCURVE",
"209 184 OFFCURVE",
"160 184 CURVE SMOOTH",
"82 184 OFFCURVE",
"35 117 OFFCURVE",
"35 40 CURVE SMOOTH",
"35 -60 LINE"
);
},
{
closed = 1;
nodes = (
"195 303 OFFCURVE",
"164 324 OFFCURVE",
"164 394 CURVE SMOOTH",
"164 532 LINE",
"397 345 LINE",
"368 321 OFFCURVE",
"326 303 OFFCURVE",
"263 303 CURVE SMOOTH"
);
}
);
width = 595;
}
);
category = Letter;
},
{
glyphname = STha;
lastChange = "2019-02-27 14:35:13 +0000";
layers = (
{
layerId = UUID0;
paths = (
{
closed = 1;
nodes = (
"628 -272 LINE",
"615 -245 OFFCURVE",
"598 -208 OFFCURVE",
"598 -162 CURVE SMOOTH",
"598 -137 OFFCURVE",
"606 -109 OFFCURVE",
"617 -79 CURVE SMOOTH",
"631 -41 OFFCURVE",
"644 0 OFFCURVE",
"644 47 CURVE SMOOTH",
"644 134 OFFCURVE",
"589 176 OFFCURVE",
"528 196 CURVE",
"528 550 LINE",
"597 550 LINE",
"597 625 LINE",
"443 625 LINE",
"443 387 LINE",
"223 387 LINE",
"223 625 LINE",
"24 625 LINE",
"24 550 LINE",
"138 550 LINE",
"138 389 LINE",
"96 380 OFFCURVE",
"41 365 OFFCURVE",
"41 321 CURVE SMOOTH",
"41 273 OFFCURVE",
"145 206 OFFCURVE",
"179 206 CURVE SMOOTH",
"213 206 OFFCURVE",
"223 247 OFFCURVE",
"223 282 CURVE SMOOTH",
"223 312 LINE",
"443 312 LINE",
"443 211 LINE",
"425 213 OFFCURVE",
"409 213 OFFCURVE",
"397 213 CURVE SMOOTH",
"250 213 LINE",
"250 143 LINE",
"363 143 LINE SMOOTH",
"415 143 OFFCURVE",
"435 116 OFFCURVE",
"435 86 CURVE SMOOTH",
"435 32 OFFCURVE",
"395 10 OFFCURVE",
"344 10 CURVE SMOOTH",
"285 10 OFFCURVE",
"229 27 OFFCURVE",
"176 61 CURVE",
"139 3 LINE",
"195 -36 OFFCURVE",
"264 -60 OFFCURVE",
"340 -60 CURVE SMOOTH",
"441 -60 OFFCURVE",
"513 -14 OFFCURVE",
"513 83 CURVE SMOOTH",
"513 99 OFFCURVE",
"509 115 OFFCURVE",
"502 129 CURVE",
"543 116 OFFCURVE",
"564 91 OFFCURVE",
"564 40 CURVE SMOOTH",
"564 0 OFFCURVE",
"558 -21 OFFCURVE",
"539 -73 CURVE SMOOTH",
"529 -100 OFFCURVE",
"517 -139 OFFCURVE",
"517 -171 CURVE SMOOTH",
"517 -228 OFFCURVE",
"539 -267 OFFCURVE",
"557 -298 CURVE"
);
}
);
width = 674;
}
);
category = Letter;
},
{
glyphname = HYa;
lastChange = "2019-02-27 14:35:13 +0000";
layers = (
{
layerId = UUID0;
paths = (
{
closed = 1;
nodes = (
"228 -11 OFFCURVE",
"298 12 OFFCURVE",
"330 99 CURVE",
"265 127 LINE",
"243 73 OFFCURVE",
"198 64 OFFCURVE",
"172 64 CURVE SMOOTH",
"136 64 OFFCURVE",
"111 85 OFFCURVE",
"111 122 CURVE SMOOTH",
"111 224 OFFCURVE",
"293 305 OFFCURVE",
"419 305 CURVE SMOOTH",
"483 305 OFFCURVE",
"512 276 OFFCURVE",
"512 231 CURVE SMOOTH",
"512 173 OFFCURVE",
"473 144 OFFCURVE",
"432 135 CURVE",
"455 68 LINE",
"529 80 OFFCURVE",
"593 144 OFFCURVE",
"593 230 CURVE SMOOTH",
"593 327 OFFCURVE",
"525 380 OFFCURVE",
"419 380 CURVE SMOOTH",
"357 380 OFFCURVE",
"293 365 OFFCURVE",
"240 346 CURVE",
"230 366 OFFCURVE",
"226 389 OFFCURVE",
"226 418 CURVE SMOOTH",
"226 468 OFFCURVE",
"256 523 OFFCURVE",
"302 550 CURVE",
"565 550 LINE",
"565 625 LINE",
"94 625 LINE",
"94 550 LINE",
"211 550 LINE",
"164 512 OFFCURVE",
"141 460 OFFCURVE",
"141 408 CURVE SMOOTH",
"141 371 OFFCURVE",
"149 338 OFFCURVE",
"164 311 CURVE",
"87 267 OFFCURVE",
"30 201 OFFCURVE",
"30 116 CURVE SMOOTH",
"30 42 OFFCURVE",
"87 -11 OFFCURVE",
"171 -11 CURVE SMOOTH"
);
}
);
width = 623;
}
);
category = Letter;
},
{
glyphname = NnDda;
lastChange = "2019-02-27 14:35:13 +0000";
layers = (
{
layerId = UUID0;
paths = (
{
closed = 1;
nodes = (
"516 -210 OFFCURVE",
"565 -143 OFFCURVE",
"565 -47 CURVE SMOOTH",
"565 56 OFFCURVE",
"493 119 OFFCURVE",
"400 119 CURVE SMOOTH",
"372 119 OFFCURVE",
"353 117 OFFCURVE",
"335 109 CURVE",
"348 147 OFFCURVE",
"360 197 OFFCURVE",
"362 225 CURVE",
"576 225 LINE",
"576 300 LINE",
"91 300 LINE",
"91 225 LINE",
"276 225 LINE",
"266 166 OFFCURVE",
"241 72 OFFCURVE",
"196 14 CURVE",
"247 -32 LINE",
"279 6 OFFCURVE",
"321 44 OFFCURVE",
"382 44 CURVE SMOOTH",
"441 44 OFFCURVE",
"480 10 OFFCURVE",
"480 -51 CURVE SMOOTH",
"480 -129 OFFCURVE",
"432 -169 OFFCURVE",
"397 -197 CURVE",
"440 -253 LINE"
);
},
{
closed = 1;
nodes = (
"115 341 LINE",
"115 398 LINE SMOOTH",
"115 458 OFFCURVE",
"150 477 OFFCURVE",
"189 477 CURVE SMOOTH",
"234 477 OFFCURVE",
"259 452 OFFCURVE",
"275 420 CURVE",
"275 341 LINE",
"360 341 LINE",
"360 395 LINE SMOOTH",
"360 440 OFFCURVE",
"384 477 OFFCURVE",
"438 477 CURVE SMOOTH",
"477 477 OFFCURVE",
"505 458 OFFCURVE",
"522 435 CURVE",
"522 341 LINE",
"607 341 LINE",
"607 625 LINE",
"522 625 LINE",
"522 526 LINE",
"503 539 OFFCURVE",
"473 550 OFFCURVE",
"433 550 CURVE SMOOTH",
"370 550 OFFCURVE",
"334 528 OFFCURVE",
"308 498 CURVE",
"285 524 OFFCURVE",
"247 550 OFFCURVE",
"184 550 CURVE SMOOTH",
"66 550 OFFCURVE",
"30 478 OFFCURVE",
"30 401 CURVE SMOOTH",
"30 341 LINE"
);
}
);
width = 667;
}
);
category = Letter;
},
{
glyphname = TSa;
lastChange = "2019-02-27 14:35:13 +0000";
layers = (
{
layerId = UUID0;
paths = (
{
closed = 1;
nodes = (
"219 -140 OFFCURVE",
"229 -99 OFFCURVE",
"229 -64 CURVE SMOOTH",
"229 -50 LINE",
"438 -50 LINE",
"438 -130 LINE",
"523 -130 LINE",
"523 265 LINE",
"438 265 LINE",
"438 25 LINE",
"229 25 LINE",
"229 228 LINE",
"313 239 OFFCURVE",
"348 291 OFFCURVE",
"348 347 CURVE SMOOTH",
"348 399 OFFCURVE",
"320 426 OFFCURVE",
"276 441 CURVE",
"306 458 OFFCURVE",
"322 484 OFFCURVE",
"322 515 CURVE SMOOTH",
"322 525 OFFCURVE",
"319 540 OFFCURVE",
"313 550 CURVE",
"359 550 LINE",
"359 625 LINE",
"24 625 LINE",
"24 550 LINE",
"225 550 LINE",
"236 543 OFFCURVE",
"245 531 OFFCURVE",
"245 515 CURVE SMOOTH",
"245 491 OFFCURVE",
"223 463 OFFCURVE",
"167 463 CURVE SMOOTH",
"89 463 LINE",
"89 404 LINE",
"183 404 LINE SMOOTH",
"236 404 OFFCURVE",
"270 388 OFFCURVE",
"270 353 CURVE SMOOTH",
"270 317 OFFCURVE",
"245 300 OFFCURVE",
"185 300 CURVE SMOOTH",
"30 300 LINE",
"30 225 LINE",
"144 225 LINE",
"144 25 LINE",
"102 16 OFFCURVE",
"57 -9 OFFCURVE",
"57 -45 CURVE SMOOTH",
"57 -93 OFFCURVE",
"151 -140 OFFCURVE",
"185 -140 CURVE SMOOTH"
);
}
);
width = 583;
}
);
category = Letter;
},
{
glyphname = NTa;
lastChange = "2019-02-27 14:35:13 +0000";
layers = (
{
layerId = UUID0;
paths = (
{
closed = 1;
nodes = (
"381 -145 OFFCURVE",
"451 -72 OFFCURVE",
"451 25 CURVE SMOOTH",
"451 82 OFFCURVE",
"422 125 OFFCURVE",
"379 149 CURVE",
"406 172 OFFCURVE",
"422 206 OFFCURVE",
"422 253 CURVE SMOOTH",
"422 550 LINE",
"492 550 LINE",
"492 625 LINE",
"24 625 LINE",
"24 550 LINE",
"337 550 LINE",
"337 425 LINE",
"64 425 LINE",
"64 350 LINE",
"337 350 LINE",
"337 252 LINE SMOOTH",
"337 202 OFFCURVE",
"310 182 OFFCURVE",
"282 177 CURVE",
"271 178 OFFCURVE",
"255 179 OFFCURVE",
"243 179 CURVE SMOOTH",
"221 179 OFFCURVE",
"197 177 OFFCURVE",
"173 174 CURVE",
"186 102 LINE",
"201 104 OFFCURVE",
"216 104 OFFCURVE",
"232 104 CURVE SMOOTH",
"335 104 OFFCURVE",
"366 68 OFFCURVE",
"366 21 CURVE SMOOTH",
"366 -34 OFFCURVE",
"317 -75 OFFCURVE",
"249 -75 CURVE SMOOTH",
"167 -75 OFFCURVE",
"123 -39 OFFCURVE",
"79 7 CURVE",
"29 -47 LINE",
"78 -98 OFFCURVE",
"149 -145 OFFCURVE",
"253 -145 CURVE SMOOTH"
);
}
);
width = 522;
}
);
category = Letter;
},
{
glyphname = STa;
lastChange = "2019-02-27 14:35:13 +0000";
layers = (
{
layerId = UUID0;
paths = (
{
closed = 1;
nodes = (
"461 -145 OFFCURVE",
"531 -72 OFFCURVE",
"531 25 CURVE SMOOTH",
"531 82 OFFCURVE",
"502 125 OFFCURVE",
"459 149 CURVE",
"486 172 OFFCURVE",
"502 206 OFFCURVE",
"502 253 CURVE SMOOTH",
"502 550 LINE",
"561 550 LINE",
"561 625 LINE",
"417 625 LINE",
"417 377 LINE",
"203 377 LINE",
"203 625 LINE",
"24 625 LINE",
"24 550 LINE",
"118 550 LINE",
"118 377 LINE",
"76 368 OFFCURVE",
"31 343 OFFCURVE",
"31 307 CURVE SMOOTH",
"31 259 OFFCURVE",
"125 212 OFFCURVE",
"159 212 CURVE SMOOTH",
"193 212 OFFCURVE",
"203 253 OFFCURVE",
"203 288 CURVE SMOOTH",
"203 302 LINE",
"417 302 LINE",
"417 252 LINE SMOOTH",
"417 202 OFFCURVE",
"390 182 OFFCURVE",
"362 177 CURVE",
"351 178 OFFCURVE",
"335 179 OFFCURVE",
"323 179 CURVE SMOOTH",
"301 179 OFFCURVE",
"277 177 OFFCURVE",
"253 174 CURVE",
"266 102 LINE",
"281 104 OFFCURVE",
"296 104 OFFCURVE",
"312 104 CURVE SMOOTH",
"415 104 OFFCURVE",
"446 68 OFFCURVE",
"446 21 CURVE SMOOTH",
"446 -34 OFFCURVE",
"397 -75 OFFCURVE",
"329 -75 CURVE SMOOTH",
"247 -75 OFFCURVE",
"203 -39 OFFCURVE",
"159 7 CURVE",
"109 -47 LINE",
"158 -98 OFFCURVE",
"229 -145 OFFCURVE",
"333 -145 CURVE SMOOTH"
);
}
);
width = 591;
}
);
category = Letter;
},
{
glyphname = SMa;
lastChange = "2019-02-27 14:35:13 +0000";
layers = (
{
layerId = UUID0;
paths = (
{
closed = 1;
nodes = (
"801 -120 LINE",
"801 319 LINE",
"716 319 LINE",
"716 61 LINE",
"517 61 LINE",
"523 95 OFFCURVE",
"527 127 OFFCURVE",
"527 150 CURVE SMOOTH",
"527 204 OFFCURVE",
"521 244 OFFCURVE",
"502 284 CURVE",
"502 550 LINE",
"561 550 LINE",
"561 625 LINE",
"417 625 LINE",
"417 377 LINE",
"203 377 LINE",
"203 625 LINE",
"24 625 LINE",
"24 550 LINE",
"118 550 LINE",
"118 377 LINE",
"76 368 OFFCURVE",
"31 343 OFFCURVE",
"31 307 CURVE SMOOTH",
"31 259 OFFCURVE",
"125 212 OFFCURVE",
"159 212 CURVE SMOOTH",
"193 212 OFFCURVE",
"203 253 OFFCURVE",
"203 288 CURVE SMOOTH",
"203 302 LINE",
"332 302 LINE SMOOTH",
"434 302 OFFCURVE",
"442 220 OFFCURVE",
"442 151 CURVE SMOOTH",
"442 119 OFFCURVE",
"436 77 OFFCURVE",
"427 57 CURVE",
"383 47 OFFCURVE",
"317 31 OFFCURVE",
"317 0 CURVE SMOOTH",
"317 -44 OFFCURVE",
"408 -112 OFFCURVE",
"438 -112 CURVE SMOOTH",
"462 -112 OFFCURVE",
"484 -68 OFFCURVE",
"500 -14 CURVE",
"716 -14 LINE",
"716 -120 LINE"
);
}
);
width = 861;
}
);
category = Letter;
},
{
glyphname = NgNga;
lastChange = "2019-02-27 14:35:13 +0000";
layers = (
{
layerId = UUID0;
paths = (
{
closed = 1;
nodes = (
"522 230 LINE",
"451 230 LINE",
"190 330 OFFCURVE",
"161 358 OFFCURVE",
"161 438 CURVE SMOOTH",
"161 550 LINE",
"447 550 LINE",
"447 451 LINE",
"522 451 LINE",
"522 625 LINE",
"24 625 LINE",
"24 550 LINE",
"77 550 LINE",
"77 431 LINE SMOOTH",
"77 325 OFFCURVE",
"133 286 OFFCURVE",
"266 230 CURVE",
"24 230 LINE",
"24 154 LINE",
"77 154 LINE",
"77 35 LINE SMOOTH",
"77 -87 OFFCURVE",
"119 -107 OFFCURVE",
"412 -225 CURVE",
"451 -166 LINE",
"190 -66 OFFCURVE",
"161 -38 OFFCURVE",
"161 42 CURVE SMOOTH",
"161 154 LINE",
"448 154 LINE",
"448 55 LINE",
"522 55 LINE"
);
}
);
width = 581;
}
);
category = Letter;
},
{
glyphname = JNna;
lastChange = "2019-02-27 14:35:13 +0000";
layers = (
{
layerId = UUID0;
paths = (
{
closed = 1;
nodes = (
"337 238 OFFCURVE",
"306 280 OFFCURVE",
"257 319 CURVE SMOOTH",
"211 355 OFFCURVE",
"173 391 OFFCURVE",
"173 466 CURVE SMOOTH",
"173 550 LINE",
"293 550 LINE",
"293 350 LINE",
"378 350 LINE",
"378 550 LINE",
"493 550 LINE",
"493 290 LINE",
"578 290 LINE",
"578 550 LINE",
"632 550 LINE",
"632 625 LINE",
"38 625 LINE",
"38 550 LINE",
"88 550 LINE",
"88 459 LINE SMOOTH",
"88 363 OFFCURVE",
"146 308 OFFCURVE",
"202 267 CURVE SMOOTH",
"220 254 OFFCURVE",
"243 234 OFFCURVE",
"255 217 CURVE",
"235 227 OFFCURVE",
"214 234 OFFCURVE",
"182 234 CURVE SMOOTH",
"71 234 OFFCURVE",
"30 162 OFFCURVE",
"30 85 CURVE SMOOTH",
"30 -35 LINE",
"115 -35 LINE",
"115 82 LINE SMOOTH",
"115 142 OFFCURVE",
"155 161 OFFCURVE",
"194 161 CURVE SMOOTH",
"265 161 OFFCURVE",
"280 105 OFFCURVE",
"280 49 CURVE SMOOTH",
"280 -35 LINE",
"365 -35 LINE",
"365 49 LINE SMOOTH",
"365 105 OFFCURVE",
"388 161 OFFCURVE",
"453 161 CURVE SMOOTH",
"492 161 OFFCURVE",
"532 142 OFFCURVE",
"532 82 CURVE SMOOTH",
"532 -35 LINE",
"617 -35 LINE",
"617 85 LINE SMOOTH",
"617 162 OFFCURVE",
"576 234 OFFCURVE",
"464 234 CURVE SMOOTH",
"405 234 OFFCURVE",
"363 206 OFFCURVE",
"343 182 CURVE"
);
}
);
width = 662;
}
);
category = Letter;
},
{
glyphname = TtKa;
lastChange = "2019-02-27 14:35:13 +0000";
layers = (
{
layerId = UUID0;
paths = (
{
closed = 1;
nodes = (
"351 -240 LINE",
"351 -146 LINE",
"376 -162 OFFCURVE",
"405 -172 OFFCURVE",
"447 -172 CURVE SMOOTH",
"531 -172 OFFCURVE",
"586 -109 OFFCURVE",
"586 -31 CURVE SMOOTH",
"586 46 OFFCURVE",
"528 103 OFFCURVE",
"444 103 CURVE SMOOTH",
"404 103 OFFCURVE",
"370 90 OFFCURVE",
"351 67 CURVE",
"351 155 LINE",
"577 155 LINE",
"577 230 LINE",
"24 230 LINE",
"24 155 LINE",
"266 155 LINE",
"266 73 LINE",
"240 91 OFFCURVE",
"205 103 OFFCURVE",
"168 103 CURVE SMOOTH",
"86 103 OFFCURVE",
"25 44 OFFCURVE",
"25 -40 CURVE SMOOTH",
"25 -123 OFFCURVE",
"94 -172 OFFCURVE",
"168 -172 CURVE SMOOTH",
"214 -172 OFFCURVE",
"246 -156 OFFCURVE",
"266 -135 CURVE",
"266 -240 LINE"
);
},
{
closed = 1;
nodes = (
"131 -105 OFFCURVE",
"101 -80 OFFCURVE",
"101 -38 CURVE SMOOTH",
"101 12 OFFCURVE",
"136 36 OFFCURVE",
"177 36 CURVE SMOOTH",
"215 36 OFFCURVE",
"238 24 OFFCURVE",
"266 8 CURVE",
"266 -38 LINE",
"243 -84 OFFCURVE",
"213 -105 OFFCURVE",
"176 -105 CURVE SMOOTH"
);
},
{
closed = 1;
nodes = (
"398 -105 OFFCURVE",
"376 -94 OFFCURVE",
"351 -78 CURVE",
"351 -18 LINE",
"370 17 OFFCURVE",
"402 36 OFFCURVE",
"436 36 CURVE SMOOTH",
"473 36 OFFCURVE",
"510 16 OFFCURVE",
"510 -32 CURVE SMOOTH",
"510 -84 OFFCURVE",
"476 -105 OFFCURVE",
"435 -105 CURVE SMOOTH"
);
},
{
closed = 1;
nodes = (
"440 167 OFFCURVE",
"515 263 OFFCURVE",
"541 308 CURVE",
"480 349 LINE",
"450 296 OFFCURVE",
"393 240 OFFCURVE",
"311 240 CURVE SMOOTH",
"253 240 OFFCURVE",
"192 265 OFFCURVE",
"192 357 CURVE SMOOTH",
"192 550 LINE",
"413 550 LINE",
"413 460 LINE",
"498 460 LINE",
"498 550 LINE",
"545 550 LINE",
"545 625 LINE",
"48 625 LINE",
"48 550 LINE",
"107 550 LINE",
"107 350 LINE SMOOTH",
"107 233 OFFCURVE",
"194 167 OFFCURVE",
"306 167 CURVE SMOOTH"
);
}
);
width = 616;
}
);
category = Letter;
},
{
glyphname = NnSha;
lastChange = "2019-02-27 14:35:13 +0000";
layers = (
{
layerId = UUID0;
paths = (
{
closed = 1;
nodes = (
"192 -250 OFFCURVE",
"202 -209 OFFCURVE",
"202 -174 CURVE SMOOTH",
"202 -153 LINE",
"455 -153 LINE",
"455 -240 LINE",
"540 -240 LINE",
"540 155 LINE",
"610 155 LINE",
"610 230 LINE",
"33 230 LINE",
"33 155 LINE",
"117 155 LINE",
"117 -85 LINE",
"75 -94 OFFCURVE",
"30 -119 OFFCURVE",
"30 -155 CURVE SMOOTH",
"30 -203 OFFCURVE",
"124 -250 OFFCURVE",
"158 -250 CURVE SMOOTH"
);
},
{
closed = 1;
nodes = (
"202 155 LINE",
"455 155 LINE",
"455 -78 LINE",
"202 -78 LINE"
);
},
{
closed = 1;
nodes = (
"118 301 LINE",
"118 398 LINE SMOOTH",
"118 458 OFFCURVE",
"153 477 OFFCURVE",
"192 477 CURVE SMOOTH",
"237 477 OFFCURVE",
"262 452 OFFCURVE",
"278 420 CURVE",
"278 301 LINE",
"363 301 LINE",
"363 395 LINE SMOOTH",
"363 440 OFFCURVE",
"387 477 OFFCURVE",
"441 477 CURVE SMOOTH",
"480 477 OFFCURVE",
"508 458 OFFCURVE",
"525 435 CURVE",
"525 301 LINE",
"610 301 LINE",
"610 625 LINE",
"525 625 LINE",
"525 526 LINE",
"506 539 OFFCURVE",
"476 550 OFFCURVE",
"436 550 CURVE SMOOTH",
"373 550 OFFCURVE",
"337 528 OFFCURVE",
"311 498 CURVE",
"288 524 OFFCURVE",
"250 550 OFFCURVE",
"187 550 CURVE SMOOTH",
"69 550 OFFCURVE",
"33 478 OFFCURVE",
"33 401 CURVE SMOOTH",
"33 301 LINE"
);
}
);
width = 670;
}
);
category = Letter;
},
{
glyphname = KRu;
lastChange = "2019-02-27 14:35:13 +0000";
layers = (
{
layerId = UUID0;
paths = (
{
closed = 1;
nodes = (
"249 -60 OFFCURVE",
"292 26 OFFCURVE",
"292 116 CURVE SMOOTH",
"292 550 LINE",
"466 550 LINE",
"466 625 LINE",
"24 625 LINE",
"24 550 LINE",
"207 550 LINE",
"207 99 LINE",
"123 97 OFFCURVE",
"82 52 OFFCURVE",
"82 8 CURVE SMOOTH",
"82 -40 OFFCURVE",
"121 -60 OFFCURVE",
"164 -60 CURVE SMOOTH"
);
},
{
closed = 1;
nodes = (
"542 -161 LINE",
"527 -141 LINE SMOOTH",
"410 15 OFFCURVE",
"339 101 OFFCURVE",
"231 101 CURVE",
"229 23 LINE",
"322 23 OFFCURVE",
"399 -83 OFFCURVE",
"470 -181 CURVE SMOOTH",
"486 -203 LINE"
);
},
{
closed = 1;
nodes = (
"556 -5 LINE",
"541 15 LINE SMOOTH",
"440 150 OFFCURVE",
"370 217 OFFCURVE",
"252 243 CURVE",
"242 171 LINE",
"349 152 OFFCURVE",
"413 73 OFFCURVE",
"484 -25 CURVE SMOOTH",
"500 -47 LINE"
);
},
{
closed = 1;
nodes = (
"649 69 LINE",
"607 77 OFFCURVE",
"583 129 OFFCURVE",
"550 213 CURVE SMOOTH",
"508 319 OFFCURVE",
"456 450 OFFCURVE",
"251 450 CURVE SMOOTH",
"79 450 LINE",
"79 380 LINE",
"248 380 LINE SMOOTH",
"392 380 OFFCURVE",
"436 308 OFFCURVE",
"485 191 CURVE SMOOTH",
"532 78 OFFCURVE",
"565 14 OFFCURVE",
"624 2 CURVE"
);
}
);
width = 620;
}
);
category = Letter;
},
{
glyphname = KRuu;
lastChange = "2019-02-27 14:35:13 +0000";
layers = (
{
layerId = UUID0;
paths = (
{
closed = 1;
nodes = (
"249 -60 OFFCURVE",
"292 26 OFFCURVE",
"292 116 CURVE SMOOTH",
"292 550 LINE",
"466 550 LINE",
"466 625 LINE",
"24 625 LINE",
"24 550 LINE",
"207 550 LINE",
"207 99 LINE",
"123 97 OFFCURVE",
"82 52 OFFCURVE",
"82 8 CURVE SMOOTH",
"82 -40 OFFCURVE",
"121 -60 OFFCURVE",
"164 -60 CURVE SMOOTH"
);
},
{
closed = 1;
nodes = (
"542 -161 LINE",
"527 -141 LINE SMOOTH",
"410 15 OFFCURVE",
"339 101 OFFCURVE",
"231 101 CURVE",
"229 23 LINE",
"322 23 OFFCURVE",
"399 -83 OFFCURVE",
"470 -181 CURVE SMOOTH",
"486 -203 LINE"
);
},
{
closed = 1;
nodes = (
"460 104 OFFCURVE",
"504 151 OFFCURVE",
"523 245 CURVE",
"461 259 LINE",
"443 198 OFFCURVE",
"431 174 OFFCURVE",
"387 174 CURVE SMOOTH",
"346 174 OFFCURVE",
"315 194 OFFCURVE",
"278 246 CURVE",
"280 154 LINE",
"310 125 OFFCURVE",
"344 104 OFFCURVE",
"391 104 CURVE SMOOTH"
);
},
{
closed = 1;
nodes = (
"649 69 LINE",
"631 77 OFFCURVE",
"609 115 OFFCURVE",
"607 217 CURVE SMOOTH",
"604 344 OFFCURVE",
"570 450 OFFCURVE",
"366 450 CURVE SMOOTH",
"79 450 LINE",
"79 380 LINE",
"372 380 LINE SMOOTH",
"517 380 OFFCURVE",
"537 316 OFFCURVE",
"542 195 CURVE SMOOTH",
"547 70 OFFCURVE",
"589 14 OFFCURVE",
"624 2 CURVE"
);
}
);
width = 650;
}
);
category = Letter;
},
{
glyphname = DRu;
lastChange = "2019-02-27 14:35:13 +0000";
layers = (
{
layerId = UUID0;
paths = (
{
closed = 1;
nodes = (
"360 -60 OFFCURVE",
"398 -7 OFFCURVE",
"455 117 CURVE SMOOTH",
"505 221 OFFCURVE",
"544 345 OFFCURVE",
"560 420 CURVE",
"499 434 LINE",
"461 311 OFFCURVE",
"421 198 OFFCURVE",
"369 98 CURVE",
"363 99 OFFCURVE",
"352 99 OFFCURVE",
"345 99 CURVE SMOOTH",
"283 99 OFFCURVE",
"219 73 OFFCURVE",
"219 11 CURVE SMOOTH",
"219 -40 OFFCURVE",
"257 -60 OFFCURVE",
"301 -60 CURVE SMOOTH"
);
},
{
closed = 1;
nodes = (
"225 343 LINE",
"277 292 OFFCURVE",
"342 242 OFFCURVE",
"412 242 CURVE SMOOTH",
"494 242 OFFCURVE",
"527 313 OFFCURVE",
"555 420 CURVE",
"499 434 LINE",
"475 358 OFFCURVE",
"460 317 OFFCURVE",
"409 317 CURVE SMOOTH",
"359 317 OFFCURVE",
"295 372 OFFCURVE",
"235 422 CURVE"
);
},
{
closed = 1;
nodes = (
"244 218 OFFCURVE",
"287 315 OFFCURVE",
"287 399 CURVE SMOOTH",
"287 550 LINE",
"543 550 LINE",
"543 625 LINE",
"58 625 LINE",
"58 550 LINE",
"202 550 LINE",
"202 395 LINE SMOOTH",
"202 315 OFFCURVE",
"176 288 OFFCURVE",
"148 288 CURVE SMOOTH",
"118 288 OFFCURVE",
"103 305 OFFCURVE",
"103 330 CURVE SMOOTH",
"103 358 OFFCURVE",
"124 375 OFFCURVE",
"147 375 CURVE SMOOTH",
"167 375 OFFCURVE",
"191 366 OFFCURVE",
"215 353 CURVE",
"217 429 LINE",
"192 439 OFFCURVE",
"166 445 OFFCURVE",
"139 445 CURVE SMOOTH",
"84 445 OFFCURVE",
"24 405 OFFCURVE",
"24 335 CURVE SMOOTH",
"24 261 OFFCURVE",
"72 218 OFFCURVE",
"147 218 CURVE SMOOTH"
);
},
{
closed = 1;
nodes = (
"697 -192 LINE",
"683 -171 LINE SMOOTH",
"571 -3 OFFCURVE",
"498 85 OFFCURVE",
"391 89 CURVE",
"389 11 LINE",
"481 7 OFFCURVE",
"557 -106 OFFCURVE",
"626 -211 CURVE SMOOTH",
"641 -234 LINE"
);
},
{
closed = 1;
nodes = (
"767 -50 LINE",
"752 -29 LINE SMOOTH",
"645 121 OFFCURVE",
"584 204 OFFCURVE",
"468 234 CURVE",
"457 155 LINE",
"554 135 OFFCURVE",
"614 48 OFFCURVE",
"695 -69 CURVE SMOOTH",
"711 -92 LINE"
);
}
);
width = 730;
}
);
category = Letter;
},
{
glyphname = DRuu;
lastChange = "2019-02-27 14:35:13 +0000";
layers = (
{
layerId = UUID0;
paths = (
{
closed = 1;
nodes = (
"360 -60 OFFCURVE",
"398 -6 OFFCURVE",
"455 117 CURVE SMOOTH",
"504 223 OFFCURVE",
"545 344 OFFCURVE",
"561 419 CURVE",
"499 434 LINE",
"461 311 OFFCURVE",
"421 198 OFFCURVE",
"369 98 CURVE",
"363 99 OFFCURVE",
"352 99 OFFCURVE",
"345 99 CURVE SMOOTH",
"283 99 OFFCURVE",
"219 73 OFFCURVE",
"219 11 CURVE SMOOTH",
"219 -40 OFFCURVE",
"257 -60 OFFCURVE",
"301 -60 CURVE SMOOTH"
);
},
{
closed = 1;
nodes = (
"225 343 LINE",
"277 292 OFFCURVE",
"342 242 OFFCURVE",
"412 242 CURVE SMOOTH",
"494 242 OFFCURVE",
"527 313 OFFCURVE",
"555 420 CURVE",
"499 434 LINE",
"475 358 OFFCURVE",
"460 317 OFFCURVE",
"409 317 CURVE SMOOTH",
"359 317 OFFCURVE",
"295 371 OFFCURVE",
"235 422 CURVE"
);
},
{
closed = 1;
nodes = (
"244 218 OFFCURVE",
"287 315 OFFCURVE",
"287 399 CURVE SMOOTH",
"287 550 LINE",
"543 550 LINE",
"543 625 LINE",
"58 625 LINE",
"58 550 LINE",
"202 550 LINE",
"202 395 LINE SMOOTH",
"202 315 OFFCURVE",
"176 288 OFFCURVE",
"148 288 CURVE SMOOTH",
"118 288 OFFCURVE",
"103 305 OFFCURVE",
"103 330 CURVE SMOOTH",
"103 358 OFFCURVE",
"124 375 OFFCURVE",
"147 375 CURVE SMOOTH",
"167 375 OFFCURVE",
"191 366 OFFCURVE",
"215 353 CURVE",
"217 429 LINE",
"192 439 OFFCURVE",
"166 445 OFFCURVE",
"139 445 CURVE SMOOTH",
"84 445 OFFCURVE",
"24 405 OFFCURVE",
"24 335 CURVE SMOOTH",
"24 261 OFFCURVE",
"72 218 OFFCURVE",
"147 218 CURVE SMOOTH"
);
},
{
closed = 1;
nodes = (
"697 -192 LINE",
"683 -171 LINE SMOOTH",
"571 -3 OFFCURVE",
"498 85 OFFCURVE",
"391 89 CURVE",
"389 11 LINE",
"481 7 OFFCURVE",
"557 -106 OFFCURVE",
"626 -211 CURVE SMOOTH",
"641 -234 LINE"
);
},
{
closed = 1;
nodes = (
"708 62 OFFCURVE",
"752 109 OFFCURVE",
"771 209 CURVE",
"709 223 LINE",
"691 160 OFFCURVE",
"679 137 OFFCURVE",
"635 137 CURVE SMOOTH",
"592 137 OFFCURVE",
"551 167 OFFCURVE",
"493 245 CURVE",
"467 168 LINE",
"517 110 OFFCURVE",
"566 62 OFFCURVE",
"639 62 CURVE SMOOTH"
);
}
);
width = 741;
}
);
category = Letter;
},
{
glyphname = BhRu;
lastChange = "2019-02-27 14:35:13 +0000";
layers = (
{
layerId = UUID0;
paths = (
{
closed = 1;
nodes = (
"520 -12 OFFCURVE",
"601 89 OFFCURVE",
"601 199 CURVE SMOOTH",
"601 325 OFFCURVE",
"501 404 OFFCURVE",
"354 404 CURVE SMOOTH",
"334 404 OFFCURVE",
"307 402 OFFCURVE",
"286 399 CURVE",
"286 550 LINE",
"586 550 LINE",
"586 625 LINE",
"24 625 LINE",
"24 550 LINE",
"201 550 LINE",
"201 380 LINE",
"149 366 OFFCURVE",
"86 323 OFFCURVE",
"86 294 CURVE SMOOTH",
"86 251 OFFCURVE",
"177 198 OFFCURVE",
"231 198 CURVE SMOOTH",
"276 198 OFFCURVE",
"286 239 OFFCURVE",
"286 274 CURVE SMOOTH",
"286 323 LINE",
"308 327 OFFCURVE",
"334 329 OFFCURVE",
"359 329 CURVE SMOOTH",
"445 329 OFFCURVE",
"516 291 OFFCURVE",
"516 199 CURVE SMOOTH",
"516 125 OFFCURVE",
"462 63 OFFCURVE",
"381 63 CURVE SMOOTH",
"319 63 OFFCURVE",
"274 82 OFFCURVE",
"234 122 CURVE",
"188 67 LINE",
"238 14 OFFCURVE",
"300 -12 OFFCURVE",
"388 -12 CURVE SMOOTH"
);
},
{
closed = 1;
nodes = (
"546 -193 LINE",
"513 -148 LINE SMOOTH",
"449 -60 OFFCURVE",
"400 4 OFFCURVE",
"353 46 CURVE",
"246 21 LINE",
"332 -29 OFFCURVE",
"389 -97 OFFCURVE",
"456 -188 CURVE SMOOTH",
"490 -235 LINE"
);
},
{
closed = 1;
nodes = (
"673 -144 LINE",
"658 -123 LINE SMOOTH",
"602 -45 OFFCURVE",
"556 17 OFFCURVE",
"511 60 CURVE",
"443 25 LINE",
"497 -16 OFFCURVE",
"546 -83 OFFCURVE",
"601 -163 CURVE SMOOTH",
"617 -186 LINE"
);
}
);
width = 631;
}
);
category = Letter;
},
{
glyphname = BhRuu;
lastChange = "2019-02-27 14:35:13 +0000";
layers = (
{
layerId = UUID0;
paths = (
{
closed = 1;
nodes = (
"520 -12 OFFCURVE",
"601 89 OFFCURVE",
"601 199 CURVE SMOOTH",
"601 325 OFFCURVE",
"501 404 OFFCURVE",
"354 404 CURVE SMOOTH",
"334 404 OFFCURVE",
"307 402 OFFCURVE",
"286 399 CURVE",
"286 550 LINE",
"586 550 LINE",
"586 625 LINE",
"24 625 LINE",
"24 550 LINE",
"201 550 LINE",
"201 380 LINE",
"149 366 OFFCURVE",
"86 323 OFFCURVE",
"86 294 CURVE SMOOTH",
"86 251 OFFCURVE",
"177 198 OFFCURVE",
"231 198 CURVE SMOOTH",
"276 198 OFFCURVE",
"286 239 OFFCURVE",
"286 274 CURVE SMOOTH",
"286 323 LINE",
"308 327 OFFCURVE",
"334 329 OFFCURVE",
"359 329 CURVE SMOOTH",
"445 329 OFFCURVE",
"516 291 OFFCURVE",
"516 199 CURVE SMOOTH",
"516 125 OFFCURVE",
"462 63 OFFCURVE",
"381 63 CURVE SMOOTH",
"319 63 OFFCURVE",
"274 82 OFFCURVE",
"234 122 CURVE",
"188 67 LINE",
"238 14 OFFCURVE",
"300 -12 OFFCURVE",
"388 -12 CURVE SMOOTH"
);
},
{
closed = 1;
nodes = (
"546 -193 LINE",
"513 -148 LINE SMOOTH",
"449 -60 OFFCURVE",
"400 4 OFFCURVE",
"353 46 CURVE",
"246 21 LINE",
"332 -29 OFFCURVE",
"389 -97 OFFCURVE",
"456 -188 CURVE SMOOTH",
"490 -235 LINE"
);
},
{
closed = 1;
nodes = (
"693 -115 OFFCURVE",
"735 -73 OFFCURVE",
"761 10 CURVE",
"703 30 LINE",
"677 -21 OFFCURVE",
"665 -40 OFFCURVE",
"621 -40 CURVE SMOOTH",
"583 -40 OFFCURVE",
"546 -4 OFFCURVE",
"513 67 CURVE",
"461 5 LINE",
"503 -67 OFFCURVE",
"552 -115 OFFCURVE",
"625 -115 CURVE SMOOTH"
);
}
);
width = 728;
}
);
category = Letter;
},
{
glyphname = ShRu;
lastChange = "2019-02-27 14:35:13 +0000";
layers = (
{
layerId = UUID0;
paths = (
{
closed = 1;
nodes = (
"534 -60 OFFCURVE",
"577 26 OFFCURVE",
"577 116 CURVE SMOOTH",
"577 550 LINE",
"656 550 LINE",
"656 625 LINE",
"24 625 LINE",
"24 550 LINE",
"168 550 LINE",
"168 321 LINE",
"126 312 OFFCURVE",
"51 295 OFFCURVE",
"51 251 CURVE SMOOTH",
"51 203 OFFCURVE",
"175 116 OFFCURVE",
"209 116 CURVE SMOOTH",
"243 116 OFFCURVE",
"253 157 OFFCURVE",
"253 192 CURVE SMOOTH",
"253 242 LINE",
"492 242 LINE",
"492 99 LINE",
"408 97 OFFCURVE",
"367 52 OFFCURVE",
"367 8 CURVE SMOOTH",
"367 -40 OFFCURVE",
"406 -60 OFFCURVE",
"449 -60 CURVE SMOOTH"
);
},
{
closed = 1;
nodes = (
"852 -194 LINE",
"813 -141 LINE SMOOTH",
"697 17 OFFCURVE",
"625 101 OFFCURVE",
"517 101 CURVE",
"515 23 LINE",
"608 23 OFFCURVE",
"686 -84 OFFCURVE",
"756 -181 CURVE SMOOTH",
"796 -236 LINE"
);
},
{
closed = 1;
nodes = (
"253 550 LINE",
"492 550 LINE",
"492 317 LINE",
"253 317 LINE"
);
},
{
closed = 1;
nodes = (
"853 56 LINE",
"827 93 LINE SMOOTH",
"731 229 OFFCURVE",
"656 295 OFFCURVE",
"538 321 CURVE",
"538 237 LINE",
"641 219 OFFCURVE",
"702 150 OFFCURVE",
"770 53 CURVE SMOOTH",
"797 14 LINE"
);
}
);
width = 819;
}
);
category = Letter;
},
{
glyphname = ShRuu;
lastChange = "2019-02-27 14:35:13 +0000";
layers = (
{
layerId = UUID0;
paths = (
{
closed = 1;
nodes = (
"534 -60 OFFCURVE",
"577 26 OFFCURVE",
"577 116 CURVE SMOOTH",
"577 550 LINE",
"656 550 LINE",
"656 625 LINE",
"24 625 LINE",
"24 550 LINE",
"168 550 LINE",
"168 321 LINE",
"126 312 OFFCURVE",
"51 295 OFFCURVE",
"51 251 CURVE SMOOTH",
"51 203 OFFCURVE",
"175 116 OFFCURVE",
"209 116 CURVE SMOOTH",
"243 116 OFFCURVE",
"253 157 OFFCURVE",
"253 192 CURVE SMOOTH",
"253 242 LINE",
"492 242 LINE",
"492 99 LINE",
"408 97 OFFCURVE",
"367 52 OFFCURVE",
"367 8 CURVE SMOOTH",
"367 -40 OFFCURVE",
"406 -60 OFFCURVE",
"449 -60 CURVE SMOOTH"
);
},
{
closed = 1;
nodes = (
"852 -194 LINE",
"813 -141 LINE SMOOTH",
"697 17 OFFCURVE",
"625 101 OFFCURVE",
"517 101 CURVE",
"515 23 LINE",
"608 23 OFFCURVE",
"686 -84 OFFCURVE",
"756 -181 CURVE SMOOTH",
"796 -236 LINE"
);
},
{
closed = 1;
nodes = (
"253 550 LINE",
"492 550 LINE",
"492 317 LINE",
"253 317 LINE"
);
},
{
closed = 1;
nodes = (
"800 102 OFFCURVE",
"844 149 OFFCURVE",
"863 249 CURVE",
"801 263 LINE",
"783 200 OFFCURVE",
"771 177 OFFCURVE",
"727 177 CURVE SMOOTH",
"684 177 OFFCURVE",
"643 207 OFFCURVE",
"568 310 CURVE",
"559 208 LINE",
"609 150 OFFCURVE",
"658 102 OFFCURVE",
"731 102 CURVE SMOOTH"
);
}
);
width = 833;
}
);
category = Letter;
},
{
glyphname = KPRa;
lastChange = "2019-02-27 14:35:13 +0000";
layers = (
{
layerId = UUID0;
paths = (
{
closed = 1;
nodes = (
"395 -72 OFFCURVE",
"414 -33 OFFCURVE",
"414 43 CURVE SMOOTH",
"414 286 LINE",
"344 299 LINE",
"341 253 OFFCURVE",
"321 230 OFFCURVE",
"290 230 CURVE SMOOTH",
"254 230 OFFCURVE",
"241 253 OFFCURVE",
"241 295 CURVE SMOOTH",
"241 410 LINE",
"315 410 LINE SMOOTH",
"403 410 OFFCURVE",
"497 386 OFFCURVE",
"497 288 CURVE SMOOTH",
"497 250 OFFCURVE",
"495 222 OFFCURVE",
"491 186 CURVE SMOOTH",
"487 151 OFFCURVE",
"486 136 OFFCURVE",
"486 119 CURVE SMOOTH",
"486 73 OFFCURVE",
"499 46 OFFCURVE",
"517 13 CURVE",
"597 22 LINE",
"581 51 OFFCURVE",
"566 84 OFFCURVE",
"566 120 CURVE SMOOTH",
"566 139 OFFCURVE",
"568 161 OFFCURVE",
"572 196 CURVE SMOOTH",
"576 229 OFFCURVE",
"577 263 OFFCURVE",
"577 294 CURVE SMOOTH",
"577 460 OFFCURVE",
"410 480 OFFCURVE",
"313 480 CURVE SMOOTH",
"241 480 LINE",
"241 550 LINE",
"466 550 LINE",
"466 625 LINE",
"24 625 LINE",
"24 550 LINE",
"156 550 LINE",
"156 480 LINE",
"70 480 LINE",
"70 410 LINE",
"156 410 LINE",
"156 301 LINE SMOOTH",
"156 212 OFFCURVE",
"194 155 OFFCURVE",
"284 155 CURVE SMOOTH",
"303 155 OFFCURVE",
"322 159 OFFCURVE",
"339 167 CURVE",
"339 81 LINE",
"307 75 OFFCURVE",
"249 63 OFFCURVE",
"249 24 CURVE SMOOTH",
"249 -17 OFFCURVE",
"329 -72 OFFCURVE",
"359 -72 CURVE SMOOTH"
);
},
{
closed = 1;
nodes = (
"367 -8 LINE",
"437 -35 OFFCURVE",
"499 -114 OFFCURVE",
"561 -199 CURVE SMOOTH",
"595 -246 LINE",
"651 -204 LINE",
"618 -159 LINE SMOOTH",
"515 -18 OFFCURVE",
"451 59 OFFCURVE",
"367 78 CURVE"
);
}
);
width = 618;
}
);
category = Letter;
},
{
glyphname = RTRa;
lastChange = "2019-02-27 14:35:13 +0000";
layers = (
{
layerId = UUID0;
paths = (
{
closed = 1;
nodes = (
"272 -75 OFFCURVE",
"353 -24 OFFCURVE",
"353 80 CURVE SMOOTH",
"353 145 OFFCURVE",
"316 201 OFFCURVE",
"241 222 CURVE",
"265 250 OFFCURVE",
"275 288 OFFCURVE",
"275 338 CURVE SMOOTH",
"275 550 LINE",
"402 550 LINE",
"402 625 LINE",
"24 625 LINE",
"24 550 LINE",
"190 550 LINE",
"190 457 LINE",
"146 449 OFFCURVE",
"89 424 OFFCURVE",
"89 387 CURVE SMOOTH",
"89 360 OFFCURVE",
"118 341 OFFCURVE",
"145 326 CURVE SMOOTH",
"167 314 OFFCURVE",
"186 301 OFFCURVE",
"186 283 CURVE SMOOTH",
"186 236 OFFCURVE",
"126 231 OFFCURVE",
"90 229 CURVE",
"90 157 LINE",
"104 159 OFFCURVE",
"119 159 OFFCURVE",
"134 159 CURVE SMOOTH",
"248 159 OFFCURVE",
"268 119 OFFCURVE",
"268 82 CURVE SMOOTH",
"268 31 OFFCURVE",
"227 -3 OFFCURVE",
"157 -3 CURVE SMOOTH",
"118 -3 OFFCURVE",
"90 6 OFFCURVE",
"50 25 CURVE",
"10 -34 LINE",
"53 -58 OFFCURVE",
"94 -75 OFFCURVE",
"158 -75 CURVE SMOOTH"
);
},
{
closed = 1;
nodes = (
"495 -208 LINE",
"466 -175 LINE SMOOTH",
"367 -62 OFFCURVE",
"303 -3 OFFCURVE",
"160 -3 CURVE",
"151 -75 LINE",
"272 -75 OFFCURVE",
"338 -132 OFFCURVE",
"409 -215 CURVE SMOOTH",
"439 -250 LINE"
);
}
);
width = 459;
}
);
category = Letter;
},
{
glyphname = JJVa;
lastChange = "2019-02-27 14:35:13 +0000";
layers = (
{
layerId = UUID0;
paths = (
{
closed = 1;
nodes = (
"479 2 LINE SMOOTH",
"479 -153 OFFCURVE",
"443 -180 OFFCURVE",
"405 -180 CURVE SMOOTH",
"377 -180 OFFCURVE",
"360 -163 OFFCURVE",
"360 -138 CURVE SMOOTH",
"360 -110 OFFCURVE",
"381 -93 OFFCURVE",
"409 -93 CURVE SMOOTH",
"435 -93 OFFCURVE",
"459 -102 OFFCURVE",
"472 -115 CURVE",
"486 -46 LINE",
"462 -32 OFFCURVE",
"432 -23 OFFCURVE",
"401 -23 CURVE SMOOTH",
"341 -23 OFFCURVE",
"281 -63 OFFCURVE",
"281 -133 CURVE SMOOTH",
"281 -207 OFFCURVE",
"329 -250 OFFCURVE",
"404 -250 CURVE SMOOTH",
"515 -250 OFFCURVE",
"564 -153 OFFCURVE",
"564 6 CURVE SMOOTH",
"564 155 LINE",
"618 155 LINE",
"618 230 LINE",
"320 230 LINE",
"304 265 OFFCURVE",
"275 292 OFFCURVE",
"243 318 CURVE SMOOTH",
"199 353 OFFCURVE",
"159 391 OFFCURVE",
"159 456 CURVE SMOOTH",
"159 550 LINE",
"279 550 LINE",
"279 340 LINE",
"364 340 LINE",
"364 550 LINE",
"479 550 LINE",
"479 280 LINE",
"564 280 LINE",
"564 550 LINE",
"618 550 LINE",
"618 625 LINE",
"24 625 LINE",
"24 550 LINE",
"74 550 LINE",
"74 459 LINE SMOOTH",
"74 354 OFFCURVE",
"136 306 OFFCURVE",
"188 267 CURVE SMOOTH",
"204 255 OFFCURVE",
"218 243 OFFCURVE",
"230 230 CURVE",
"24 230 LINE",
"24 155 LINE",
"74 155 LINE",
"74 106 LINE SMOOTH",
"74 27 OFFCURVE",
"92 -24 OFFCURVE",
"108 -66 CURVE SMOOTH",
"120 -98 OFFCURVE",
"127 -124 OFFCURVE",
"127 -153 CURVE SMOOTH",
"127 -172 OFFCURVE",
"125 -201 OFFCURVE",
"120 -225 CURVE",
"199 -246 LINE",
"206 -213 OFFCURVE",
"211 -171 OFFCURVE",
"211 -145 CURVE SMOOTH",
"211 -100 OFFCURVE",
"200 -71 OFFCURVE",
"188 -39 CURVE SMOOTH",
"174 -2 OFFCURVE",
"159 38 OFFCURVE",
"159 109 CURVE SMOOTH",
"159 155 LINE",
"279 155 LINE",
"279 0 LINE",
"364 0 LINE",
"364 155 LINE",
"479 155 LINE"
);
}
);
width = 648;
}
);
category = Letter;
},
{
glyphname = RKSsa;
lastChange = "2019-02-27 14:35:13 +0000";
layers = (
{
layerId = UUID0;
paths = (
{
closed = 1;
nodes = (
"431 -234 LINE",
"433 -213 OFFCURVE",
"437 -197 OFFCURVE",
"443 -174 CURVE SMOOTH",
"449 -151 OFFCURVE",
"456 -121 OFFCURVE",
"456 -69 CURVE SMOOTH",
"456 13 OFFCURVE",
"410 83 OFFCURVE",
"298 98 CURVE",
"298 155 LINE",
"472 155 LINE",
"472 230 LINE",
"303 230 LINE",
"311 245 OFFCURVE",
"314 265 OFFCURVE",
"314 284 CURVE SMOOTH",
"314 550 LINE",
"477 550 LINE",
"477 625 LINE",
"60 625 LINE",
"60 550 LINE",
"229 550 LINE",
"229 413 LINE",
"187 404 OFFCURVE",
"112 387 OFFCURVE",
"112 343 CURVE SMOOTH",
"112 310 OFFCURVE",
"169 259 OFFCURVE",
"217 230 CURVE",
"30 230 LINE",
"30 155 LINE",
"213 155 LINE",
"213 100 LINE",
"122 91 OFFCURVE",
"49 36 OFFCURVE",
"49 -46 CURVE SMOOTH",
"49 -126 OFFCURVE",
"111 -190 OFFCURVE",
"221 -190 CURVE SMOOTH",
"274 -190 OFFCURVE",
"321 -169 OFFCURVE",
"353 -138 CURVE",
"353 -85 LINE",
"200 29 LINE",
"213 34 OFFCURVE",
"225 36 OFFCURVE",
"244 36 CURVE SMOOTH",
"349 36 OFFCURVE",
"377 -6 OFFCURVE",
"377 -70 CURVE SMOOTH",
"377 -114 OFFCURVE",
"373 -146 OFFCURVE",
"362 -187 CURVE SMOOTH",
"357 -205 OFFCURVE",
"353 -223 OFFCURVE",
"351 -246 CURVE"
);
},
{
closed = 1;
nodes = (
"147 -127 OFFCURVE",
"128 -74 OFFCURVE",
"128 -48 CURVE SMOOTH",
"128 -31 OFFCURVE",
"131 -15 OFFCURVE",
"139 -1 CURVE",
"284 -112 LINE",
"271 -120 OFFCURVE",
"250 -127 OFFCURVE",
"226 -127 CURVE SMOOTH"
);
}
);
width = 507;
}
);
category = Letter;
},
{
glyphname = RVYa;
lastChange = "2019-02-27 14:35:13 +0000";
layers = (
{
layerId = UUID0;
paths = (
{
closed = 1;
nodes = (
"345 -135 OFFCURVE",
"448 -105 OFFCURVE",
"544 -35 CURVE",
"505 21 LINE",
"421 -36 OFFCURVE",
"353 -64 OFFCURVE",
"263 -64 CURVE SMOOTH",
"185 -64 OFFCURVE",
"112 -47 OFFCURVE",
"112 0 CURVE SMOOTH",
"112 28 OFFCURVE",
"130 52 OFFCURVE",
"167 52 CURVE SMOOTH",
"185 52 OFFCURVE",
"207 46 OFFCURVE",
"226 39 CURVE SMOOTH",
"248 31 OFFCURVE",
"279 23 OFFCURVE",
"317 23 CURVE SMOOTH",
"412 23 OFFCURVE",
"463 91 OFFCURVE",
"463 196 CURVE SMOOTH",
"463 625 LINE",
"24 625 LINE",
"24 550 LINE",
"378 550 LINE",
"378 465 LINE",
"24 465 LINE",
"24 390 LINE",
"74 390 LINE",
"67 371 OFFCURVE",
"63 350 OFFCURVE",
"63 323 CURVE SMOOTH",
"63 211 OFFCURVE",
"153 160 OFFCURVE",
"252 160 CURVE SMOOTH",
"309 160 OFFCURVE",
"351 177 OFFCURVE",
"378 192 CURVE",
"378 171 LINE SMOOTH",
"378 125 OFFCURVE",
"358 91 OFFCURVE",
"312 91 CURVE SMOOTH",
"289 91 OFFCURVE",
"259 98 OFFCURVE",
"235 106 CURVE SMOOTH",
"209 115 OFFCURVE",
"187 120 OFFCURVE",
"152 120 CURVE SMOOTH",
"71 120 OFFCURVE",
"29 66 OFFCURVE",
"29 1 CURVE SMOOTH",
"29 -90 OFFCURVE",
"120 -135 OFFCURVE",
"254 -135 CURVE SMOOTH"
);
},
{
closed = 1;
nodes = (
"192 235 OFFCURVE",
"143 269 OFFCURVE",
"143 328 CURVE SMOOTH",
"143 352 OFFCURVE",
"148 373 OFFCURVE",
"156 390 CURVE",
"378 390 LINE",
"378 280 LINE",
"352 254 OFFCURVE",
"308 235 OFFCURVE",
"258 235 CURVE SMOOTH"
);
}
);
width = 564;
}
);
category = Letter;
},
{
glyphname = KTVa;
lastChange = "2019-02-27 14:35:13 +0000";
layers = (
{
layerId = UUID0;
paths = (
{
closed = 1;
nodes = (
"521 -52 LINE",
"519 -34 OFFCURVE",
"518 -17 OFFCURVE",
"518 0 CURVE SMOOTH",
"518 35 OFFCURVE",
"521 70 OFFCURVE",
"529 105 CURVE SMOOTH",
"537 141 OFFCURVE",
"542 174 OFFCURVE",
"542 210 CURVE SMOOTH",
"542 373 OFFCURVE",
"453 445 OFFCURVE",
"292 445 CURVE",
"292 550 LINE",
"466 550 LINE",
"466 625 LINE",
"24 625 LINE",
"24 550 LINE",
"207 550 LINE",
"207 447 LINE",
"74 447 LINE",
"74 377 LINE",
"207 377 LINE",
"204 300 OFFCURVE",
"172 294 OFFCURVE",
"127 293 CURVE",
"127 225 LINE",
"149 227 OFFCURVE",
"164 228 OFFCURVE",
"178 228 CURVE SMOOTH",
"281 228 OFFCURVE",
"320 185 OFFCURVE",
"331 144 CURVE",
"309 155 OFFCURVE",
"283 162 OFFCURVE",
"248 162 CURVE SMOOTH",
"165 162 OFFCURVE",
"114 119 OFFCURVE",
"114 47 CURVE SMOOTH",
"114 -16 OFFCURVE",
"176 -60 OFFCURVE",
"254 -60 CURVE SMOOTH",
"355 -60 OFFCURVE",
"414 22 OFFCURVE",
"414 118 CURVE SMOOTH",
"414 205 OFFCURVE",
"359 264 OFFCURVE",
"262 286 CURVE",
"279 308 OFFCURVE",
"291 338 OFFCURVE",
"293 375 CURVE",
"305 375 LINE SMOOTH",
"416 375 OFFCURVE",
"462 306 OFFCURVE",
"462 214 CURVE SMOOTH",
"462 168 OFFCURVE",
"456 136 OFFCURVE",
"450 105 CURVE SMOOTH",
"443 69 OFFCURVE",
"438 32 OFFCURVE",
"438 -1 CURVE SMOOTH",
"438 -21 OFFCURVE",
"439 -41 OFFCURVE",
"441 -61 CURVE"
);
},
{
closed = 1;
nodes = (
"219 8 OFFCURVE",
"189 22 OFFCURVE",
"189 53 CURVE SMOOTH",
"189 80 OFFCURVE",
"213 96 OFFCURVE",
"251 96 CURVE SMOOTH",
"278 96 OFFCURVE",
"307 86 OFFCURVE",
"330 71 CURVE",
"322 36 OFFCURVE",
"300 8 OFFCURVE",
"254 8 CURVE SMOOTH"
);
}
);
width = 571;
}
);
category = Letter;
},
{
glyphname = NnDdu;
lastChange = "2019-02-27 14:35:13 +0000";
layers = (
{
layerId = UUID0;
paths = (
{
closed = 1;
nodes = (
"477 -255 OFFCURVE",
"541 -198 OFFCURVE",
"541 -122 CURVE SMOOTH",
"541 -82 OFFCURVE",
"525 -45 OFFCURVE",
"490 -25 CURVE",
"505 -4 OFFCURVE",
"514 24 OFFCURVE",
"514 59 CURVE SMOOTH",
"514 135 OFFCURVE",
"451 174 OFFCURVE",
"382 174 CURVE SMOOTH",
"361 174 OFFCURVE",
"346 172 OFFCURVE",
"332 168 CURVE",
"341 185 OFFCURVE",
"349 205 OFFCURVE",
"355 225 CURVE",
"577 225 LINE",
"577 300 LINE",
"92 300 LINE",
"92 225 LINE",
"274 225 LINE",
"261 179 OFFCURVE",
"241 140 OFFCURVE",
"206 99 CURVE",
"257 53 LINE",
"285 81 OFFCURVE",
"322 101 OFFCURVE",
"376 101 CURVE SMOOTH",
"417 101 OFFCURVE",
"436 78 OFFCURVE",
"436 49 CURVE SMOOTH",
"436 25 OFFCURVE",
"429 8 OFFCURVE",
"415 -5 CURVE",
"409 -5 LINE SMOOTH",
"361 -5 OFFCURVE",
"320 -29 OFFCURVE",
"291 -56 CURVE",
"341 -102 LINE",
"354 -89 OFFCURVE",
"375 -76 OFFCURVE",
"408 -76 CURVE SMOOTH",
"444 -76 OFFCURVE",
"463 -97 OFFCURVE",
"463 -125 CURVE SMOOTH",
"463 -162 OFFCURVE",
"422 -183 OFFCURVE",
"370 -183 CURVE SMOOTH",
"319 -183 OFFCURVE",
"264 -172 OFFCURVE",
"204 -138 CURVE",
"165 -194 LINE",
"228 -233 OFFCURVE",
"296 -255 OFFCURVE",
"376 -255 CURVE SMOOTH"
);
},
{
closed = 1;
nodes = (
"115 341 LINE",
"115 398 LINE SMOOTH",
"115 458 OFFCURVE",
"150 477 OFFCURVE",
"189 477 CURVE SMOOTH",
"234 477 OFFCURVE",
"259 452 OFFCURVE",
"275 420 CURVE",
"275 341 LINE",
"360 341 LINE",
"360 395 LINE SMOOTH",
"360 440 OFFCURVE",
"384 477 OFFCURVE",
"438 477 CURVE SMOOTH",
"477 477 OFFCURVE",
"505 458 OFFCURVE",
"522 435 CURVE",
"522 341 LINE",
"607 341 LINE",
"607 625 LINE",
"522 625 LINE",
"522 526 LINE",
"503 539 OFFCURVE",
"473 550 OFFCURVE",
"433 550 CURVE SMOOTH",
"370 550 OFFCURVE",
"334 528 OFFCURVE",
"308 498 CURVE",
"285 524 OFFCURVE",
"247 550 OFFCURVE",
"184 550 CURVE SMOOTH",
"66 550 OFFCURVE",
"30 478 OFFCURVE",
"30 401 CURVE SMOOTH",
"30 341 LINE"
);
}
);
width = 667;
}
);
category = Letter;
},
{
glyphname = TSu;
lastChange = "2019-02-27 14:35:13 +0000";
layers = (
{
layerId = UUID0;
paths = (
{
closed = 1;
nodes = (
"441 -250 OFFCURVE",
"513 -198 OFFCURVE",
"513 -112 CURVE SMOOTH",
"513 265 LINE",
"428 265 LINE",
"428 72 LINE",
"229 72 LINE",
"229 228 LINE",
"313 239 OFFCURVE",
"348 291 OFFCURVE",
"348 347 CURVE SMOOTH",
"348 399 OFFCURVE",
"320 426 OFFCURVE",
"276 441 CURVE",
"306 458 OFFCURVE",
"322 484 OFFCURVE",
"322 515 CURVE SMOOTH",
"322 525 OFFCURVE",
"319 540 OFFCURVE",
"313 550 CURVE",
"359 550 LINE",
"359 625 LINE",
"30 625 LINE",
"30 550 LINE",
"225 550 LINE",
"236 543 OFFCURVE",
"245 531 OFFCURVE",
"245 515 CURVE SMOOTH",
"245 491 OFFCURVE",
"223 463 OFFCURVE",
"167 463 CURVE SMOOTH",
"89 463 LINE",
"89 404 LINE",
"183 404 LINE SMOOTH",
"236 404 OFFCURVE",
"270 388 OFFCURVE",
"270 353 CURVE SMOOTH",
"270 317 OFFCURVE",
"245 300 OFFCURVE",
"185 300 CURVE SMOOTH",
"30 300 LINE",
"30 225 LINE",
"144 225 LINE",
"144 72 LINE",
"102 63 OFFCURVE",
"57 38 OFFCURVE",
"57 2 CURVE SMOOTH",
"57 -46 OFFCURVE",
"151 -93 OFFCURVE",
"185 -93 CURVE SMOOTH",
"219 -93 OFFCURVE",
"229 -52 OFFCURVE",
"229 -17 CURVE SMOOTH",
"229 -3 LINE",
"428 -3 LINE",
"428 -108 LINE SMOOTH",
"428 -156 OFFCURVE",
"389 -177 OFFCURVE",
"332 -177 CURVE SMOOTH",
"293 -177 OFFCURVE",
"249 -171 OFFCURVE",
"200 -148 CURVE",
"164 -207 LINE",
"215 -236 OFFCURVE",
"275 -250 OFFCURVE",
"334 -250 CURVE SMOOTH"
);
}
);
width = 573;
}
);
category = Letter;
},
{
glyphname = NTu;
lastChange = "2019-02-27 14:35:13 +0000";
layers = (
{
layerId = UUID0;
paths = (
{
closed = 1;
nodes = (
"362 -250 OFFCURVE",
"426 -194 OFFCURVE",
"426 -118 CURVE SMOOTH",
"426 -81 OFFCURVE",
"415 -54 OFFCURVE",
"394 -36 CURVE",
"432 -9 OFFCURVE",
"457 37 OFFCURVE",
"457 95 CURVE SMOOTH",
"457 152 OFFCURVE",
"428 195 OFFCURVE",
"385 219 CURVE",
"412 242 OFFCURVE",
"428 276 OFFCURVE",
"428 323 CURVE SMOOTH",
"428 550 LINE",
"498 550 LINE",
"498 625 LINE",
"30 625 LINE",
"30 550 LINE",
"343 550 LINE",
"343 455 LINE",
"70 455 LINE",
"70 380 LINE",
"343 380 LINE",
"343 322 LINE SMOOTH",
"343 272 OFFCURVE",
"316 252 OFFCURVE",
"288 247 CURVE",
"277 248 OFFCURVE",
"261 249 OFFCURVE",
"249 249 CURVE SMOOTH",
"227 249 OFFCURVE",
"203 247 OFFCURVE",
"179 244 CURVE",
"192 172 LINE",
"207 174 OFFCURVE",
"222 174 OFFCURVE",
"238 174 CURVE SMOOTH",
"341 174 OFFCURVE",
"372 137 OFFCURVE",
"372 91 CURVE SMOOTH",
"372 36 OFFCURVE",
"324 -5 OFFCURVE",
"255 -5 CURVE SMOOTH",
"215 -5 OFFCURVE",
"182 1 OFFCURVE",
"149 17 CURVE",
"114 -44 LINE",
"157 -63 OFFCURVE",
"210 -78 OFFCURVE",
"261 -78 CURVE SMOOTH",
"277 -78 OFFCURVE",
"296 -76 OFFCURVE",
"310 -74 CURVE",
"334 -78 OFFCURVE",
"348 -93 OFFCURVE",
"348 -119 CURVE SMOOTH",
"348 -157 OFFCURVE",
"304 -178 OFFCURVE",
"253 -178 CURVE SMOOTH",
"201 -178 OFFCURVE",
"149 -167 OFFCURVE",
"88 -131 CURVE",
"50 -189 LINE",
"107 -226 OFFCURVE",
"184 -250 OFFCURVE",
"261 -250 CURVE SMOOTH"
);
}
);
width = 522;
}
);
category = Letter;
},
{
glyphname = RTr;
lastChange = "2019-02-27 14:35:13 +0000";
layers = (
{
layerId = UUID0;
paths = (
{
closed = 1;
nodes = (
"217 435 OFFCURVE",
"160 410 OFFCURVE",
"160 373 CURVE SMOOTH",
"160 346 OFFCURVE",
"189 327 OFFCURVE",
"216 312 CURVE SMOOTH",
"238 300 OFFCURVE",
"257 287 OFFCURVE",
"257 269 CURVE SMOOTH",
"257 222 OFFCURVE",
"197 217 OFFCURVE",
"161 215 CURVE",
"161 143 LINE",
"175 145 OFFCURVE",
"190 145 OFFCURVE",
"205 145 CURVE SMOOTH",
"319 145 OFFCURVE",
"339 114 OFFCURVE",
"339 77 CURVE SMOOTH",
"339 26 OFFCURVE",
"298 0 OFFCURVE",
"228 0 CURVE SMOOTH",
"156 0 OFFCURVE",
"105 24 OFFCURVE",
"31 75 CURVE",
"-9 16 LINE",
"60 -36 OFFCURVE",
"123 -72 OFFCURVE",
"226 -72 CURVE SMOOTH",
"344 -72 OFFCURVE",
"424 -12 OFFCURVE",
"424 75 CURVE SMOOTH",
"424 140 OFFCURVE",
"387 187 OFFCURVE",
"312 208 CURVE",
"336 236 OFFCURVE",
"346 274 OFFCURVE",
"346 324 CURVE SMOOTH",
"346 550 LINE",
"459 550 LINE",
"459 625 LINE",
"99 625 LINE",
"99 550 LINE",
"261 550 LINE",
"261 443 LINE"
);
},
{
closed = 1;
nodes = (
"328 -250 OFFCURVE",
"416 -225 OFFCURVE",
"497 -168 CURVE",
"458 -112 LINE",
"389 -157 OFFCURVE",
"334 -179 OFFCURVE",
"260 -179 CURVE SMOOTH",
"203 -179 OFFCURVE",
"150 -164 OFFCURVE",
"150 -124 CURVE SMOOTH",
"150 -97 OFFCURVE",
"169 -72 OFFCURVE",
"226 -72 CURVE",
"198 -13 LINE",
"112 -13 OFFCURVE",
"67 -63 OFFCURVE",
"67 -123 CURVE SMOOTH",
"67 -208 OFFCURVE",
"141 -250 OFFCURVE",
"251 -250 CURVE SMOOTH"
);
}
);
width = 518;
}
);
category = Letter;
},
{
glyphname = RYuu;
lastChange = "2019-02-27 14:35:13 +0000";
layers = (
{
layerId = UUID0;
paths = (
{
closed = 1;
nodes = (
"114 33 OFFCURVE",
"179 52 OFFCURVE",
"305 52 CURVE SMOOTH",
"439 52 OFFCURVE",
"457 130 OFFCURVE",
"457 210 CURVE SMOOTH",
"457 328 LINE",
"410 356 LINE",
"366 305 OFFCURVE",
"301 293 OFFCURVE",
"238 293 CURVE SMOOTH",
"177 293 OFFCURVE",
"127 312 OFFCURVE",
"127 359 CURVE SMOOTH",
"127 407 OFFCURVE",
"170 424 OFFCURVE",
"255 425 CURVE",
"255 480 LINE",
"215 490 OFFCURVE",
"187 519 OFFCURVE",
"173 551 CURVE",
"440 551 LINE",
"440 626 LINE",
"25 626 LINE",
"25 551 LINE",
"78 551 LINE",
"94 515 OFFCURVE",
"118 488 OFFCURVE",
"146 468 CURVE",
"77 452 OFFCURVE",
"46 412 OFFCURVE",
"46 356 CURVE SMOOTH",
"46 286 OFFCURVE",
"112 224 OFFCURVE",
"243 224 CURVE SMOOTH",
"288 224 OFFCURVE",
"338 230 OFFCURVE",
"381 253 CURVE",
"381 207 LINE SMOOTH",
"381 146 OFFCURVE",
"367 124 OFFCURVE",
"307 124 CURVE SMOOTH",
"176 124 OFFCURVE",
"74 101 OFFCURVE",
"5 43 CURVE",
"48 -11 LINE"
);
}
);
width = 516;
}
);
category = Letter;
},
{
glyphname = STu;
lastChange = "2019-02-27 14:35:13 +0000";
layers = (
{
layerId = UUID0;
paths = (
{
closed = 1;
nodes = (
"384 -250 OFFCURVE",
"445 -195 OFFCURVE",
"445 -122 CURVE SMOOTH",
"445 -92 OFFCURVE",
"436 -65 OFFCURVE",
"417 -44 CURVE",
"455 -21 OFFCURVE",
"476 13 OFFCURVE",
"476 62 CURVE SMOOTH",
"476 104 OFFCURVE",
"463 135 OFFCURVE",
"423 162 CURVE",
"459 188 OFFCURVE",
"477 224 OFFCURVE",
"477 265 CURVE SMOOTH",
"477 550 LINE",
"536 550 LINE",
"536 625 LINE",
"392 625 LINE",
"392 397 LINE",
"203 397 LINE",
"203 625 LINE",
"24 625 LINE",
"24 550 LINE",
"118 550 LINE",
"118 397 LINE",
"76 388 OFFCURVE",
"31 363 OFFCURVE",
"31 327 CURVE SMOOTH",
"31 279 OFFCURVE",
"125 232 OFFCURVE",
"159 232 CURVE SMOOTH",
"193 232 OFFCURVE",
"203 273 OFFCURVE",
"203 308 CURVE SMOOTH",
"203 322 LINE",
"392 322 LINE",
"392 262 LINE SMOOTH",
"392 204 OFFCURVE",
"341 199 OFFCURVE",
"285 199 CURVE SMOOTH",
"263 199 OFFCURVE",
"234 197 OFFCURVE",
"210 194 CURVE",
"223 122 LINE",
"238 124 OFFCURVE",
"253 124 OFFCURVE",
"269 124 CURVE SMOOTH",
"366 124 OFFCURVE",
"391 94 OFFCURVE",
"391 58 CURVE SMOOTH",
"391 1 OFFCURVE",
"330 -5 OFFCURVE",
"286 -5 CURVE SMOOTH",
"249 -5 OFFCURVE",
"203 6 OFFCURVE",
"170 21 CURVE",
"133 -39 LINE",
"178 -62 OFFCURVE",
"234 -78 OFFCURVE",
"292 -78 CURVE SMOOTH",
"305 -78 OFFCURVE",
"320 -78 OFFCURVE",
"334 -76 CURVE",
"358 -83 OFFCURVE",
"367 -99 OFFCURVE",
"367 -117 CURVE SMOOTH",
"367 -156 OFFCURVE",
"328 -178 OFFCURVE",
"272 -178 CURVE SMOOTH",
"222 -178 OFFCURVE",
"168 -167 OFFCURVE",
"108 -131 CURVE",
"69 -189 LINE",
"122 -223 OFFCURVE",
"193 -250 OFFCURVE",
"272 -250 CURVE SMOOTH"
);
}
);
width = 566;
}
);
category = Letter;
},
{
glyphname = SMr;
lastChange = "2019-02-27 14:35:13 +0000";
layers = (
{
layerId = UUID0;
paths = (
{
closed = 1;
nodes = (
"872 -250 OFFCURVE",
"945 -224 OFFCURVE",
"1004 -189 CURVE",
"973 -128 LINE",
"922 -158 OFFCURVE",
"854 -178 OFFCURVE",
"800 -178 CURVE SMOOTH",
"742 -178 OFFCURVE",
"703 -157 OFFCURVE",
"703 -117 CURVE SMOOTH",
"703 -90 OFFCURVE",
"725 -71 OFFCURVE",
"764 -71 CURVE SMOOTH",
"781 -71 LINE",
"781 319 LINE",
"696 319 LINE",
"696 101 LINE",
"519 101 LINE",
"524 129 OFFCURVE",
"527 156 OFFCURVE",
"527 180 CURVE SMOOTH",
"527 220 OFFCURVE",
"522 269 OFFCURVE",
"502 310 CURVE",
"502 550 LINE",
"561 550 LINE",
"561 625 LINE",
"417 625 LINE",
"417 397 LINE",
"203 397 LINE",
"203 625 LINE",
"24 625 LINE",
"24 550 LINE",
"118 550 LINE",
"118 397 LINE",
"76 388 OFFCURVE",
"31 363 OFFCURVE",
"31 327 CURVE SMOOTH",
"31 279 OFFCURVE",
"125 232 OFFCURVE",
"159 232 CURVE SMOOTH",
"193 232 OFFCURVE",
"203 273 OFFCURVE",
"203 308 CURVE SMOOTH",
"203 322 LINE",
"332 322 LINE SMOOTH",
"434 322 OFFCURVE",
"442 255 OFFCURVE",
"442 186 CURVE SMOOTH",
"442 154 OFFCURVE",
"436 117 OFFCURVE",
"427 97 CURVE",
"383 87 OFFCURVE",
"317 72 OFFCURVE",
"317 41 CURVE SMOOTH",
"317 -2 OFFCURVE",
"406 -72 OFFCURVE",
"434 -72 CURVE SMOOTH",
"459 -72 OFFCURVE",
"484 -29 OFFCURVE",
"501 26 CURVE",
"696 26 LINE",
"696 -15 LINE",
"651 -30 OFFCURVE",
"621 -70 OFFCURVE",
"621 -120 CURVE SMOOTH",
"621 -199 OFFCURVE",
"687 -250 OFFCURVE",
"791 -250 CURVE SMOOTH"
);
}
);
width = 852;
}
);
category = Letter;
},
